<svg width="100" height="100" viewBox="0 0 100 100" fill="none" xmlns="http://www.w3.org/2000/svg">
<rect width="100" height="100" rx="50" fill="#616161"/>
<path d="M79.5417 54.1667H72.25V45.8333H79.5417C80.2083 45.8333 80.75 46.0417 81.1667 46.4583C81.5833 46.875 81.7917 47.375 81.7917 47.9583V52.0417C81.7917 52.625 81.5833 53.125 81.1667 53.5417C80.75 53.9583 80.2083 54.1667 79.5417 54.1667ZM61.9583 31.8333L67.3333 37.2083L59.2083 45.3333L53.8333 39.9583L61.9583 31.8333ZM46.1667 27.75V18.2083C46.1667 17.7917 46.2917 17.4167 46.5417 17.0833C46.7917 16.75 47.125 16.5 47.5417 16.3333L52.4583 18.2083C52.9583 18.375 53.3333 18.6667 53.5833 19.0833C53.8333 19.5 53.9583 19.9583 53.9583 20.4583V28.4167L46.1667 27.75ZM37.7083 37.2083L43.0833 31.8333L51.2083 39.9583L45.8333 45.3333L37.7083 37.2083ZM27.75 46.1667L18.2083 46.5417C17.7917 46.5417 17.4167 46.4167 17.0833 46.1667C16.75 45.9167 16.5 45.5833 16.3333 45.1667L18.2083 50L16.3333 54.8333C16.5 55.25 16.75 55.5833 17.0833 55.8333C17.4167 56.0833 17.7917 56.2083 18.2083 56.2083L27.75 55.625V46.1667ZM37.7083 62.7917L45.8333 54.6667L51.2083 60.0417L43.0833 68.1667L37.7083 62.7917ZM46.1667 72.25V81.7917C46.1667 82.2083 46.2917 82.5833 46.5417 82.9167C46.7917 83.25 47.125 83.5 47.5417 83.6667L52.4583 81.7917C52.9583 81.625 53.3333 81.3333 53.5833 80.9167C53.8333 80.5 53.9583 80.0417 53.9583 79.5417V71.5833L46.1667 72.25ZM61.9583 68.1667L53.8333 60.0417L59.2083 54.6667L67.3333 62.7917L61.9583 68.1667ZM61.6667 50C61.6667 53.2917 60.5 56.1667 58.1667 58.625C55.8333 61.0833 53.0417 62.3333 50 62.3333C46.9583 62.3333 44.1667 61.0833 41.625 68.625C39.0833 56.1667 37.8333 53.2917 37.8333 50C37.8333 46.9583 39.0833 44.1667 41.625 41.625C44.1667 39.0833 46.9583 37.8333 50 37.8333C53.0417 37.8333 55.8333 39.0833 58.1667 41.625C60.5 44.1667 61.6667 46.9583 61.6667 50Z" fill="white"/>
</svg> 