<svg width="1968" height="1148" viewBox="0 0 1968 1148" fill="none" xmlns="http://www.w3.org/2000/svg">
<rect x="15" y="33" width="1920" height="1080" fill="#D9D9D9"/>
<g filter="url(#filter0_d_17_252)">
<rect x="45" y="67" width="96" height="1011" rx="48" fill="white"/>
</g>
<circle cx="92.7215" cy="114.721" r="43.7215" fill="#D9D9D9"/>
<g filter="url(#filter1_d_17_252)">
<ellipse cx="92.7215" cy="114.721" rx="18.8524" ry="18.7187" fill="white"/>
</g>
<g filter="url(#filter2_d_17_252)">
<path d="M92.6546 73.8078L102.439 90.7549H82.8702L92.6546 73.8078Z" fill="white"/>
</g>
<g filter="url(#filter3_d_17_252)">
<path d="M108.532 94.9571L128.101 94.9571L118.316 111.904L108.532 94.9571Z" fill="white"/>
</g>
<g filter="url(#filter4_d_17_252)">
<path d="M108.532 135.804L118.316 118.857L128.101 135.804L108.532 135.804Z" fill="white"/>
</g>
<g filter="url(#filter5_d_17_252)">
<path d="M57.0558 94.4223L76.6246 94.4223L66.8402 111.369L57.0558 94.4223Z" fill="white"/>
</g>
<g filter="url(#filter6_d_17_252)">
<path d="M57.0557 135.804L66.8401 118.857L76.6245 135.804L57.0557 135.804Z" fill="white"/>
</g>
<g filter="url(#filter7_d_17_252)">
<path d="M92.6546 156.972L82.8702 140.025H102.439L92.6546 156.972Z" fill="white"/>
</g>
<circle cx="92.7215" cy="359.721" r="43.7215" fill="#D9D9D9"/>
<circle cx="92.7215" cy="458.721" r="43.7215" fill="#D9D9D9"/>
<circle cx="92.7215" cy="656.721" r="43.7215" fill="#D9D9D9"/>
<circle cx="92.7215" cy="557.721" r="43.7215" fill="#D9D9D9"/>
<circle cx="63.5" cy="236.5" r="12.5" fill="#D9D9D9"/>
<circle cx="63.5" cy="267.5" r="12.5" fill="#D9D9D9"/>
<circle cx="93.5" cy="267.5" r="12.5" fill="#D9D9D9"/>
<circle cx="123.5" cy="267.5" r="12.5" fill="#D9D9D9"/>
<circle cx="93.5" cy="236.5" r="12.5" fill="#D9D9D9"/>
<circle cx="123.5" cy="236.5" r="12.5" fill="#D9D9D9"/>
<path d="M57.4205 183.199C56.483 183.199 55.6473 183.038 54.9134 182.716C54.1842 182.394 53.6042 181.946 53.1733 181.374C52.7472 180.796 52.5152 180.126 52.4773 179.364H54.267C54.3049 179.832 54.4659 180.237 54.75 180.578C55.0341 180.914 55.4058 181.175 55.8651 181.359C56.3243 181.544 56.8333 181.636 57.392 181.636C58.017 181.636 58.571 181.527 59.054 181.31C59.5369 181.092 59.9157 180.789 60.1903 180.401C60.465 180.012 60.6023 179.562 60.6023 179.051C60.6023 178.516 60.4697 178.045 60.2045 177.638C59.9394 177.226 59.5511 176.904 59.0398 176.672C58.5284 176.44 57.9034 176.324 57.1648 176.324H56V174.761H57.1648C57.7424 174.761 58.2491 174.657 58.6847 174.449C59.125 174.241 59.4683 173.947 59.7145 173.568C59.9654 173.189 60.0909 172.744 60.0909 172.233C60.0909 171.741 59.982 171.312 59.7642 170.947C59.5464 170.583 59.2386 170.299 58.8409 170.095C58.4479 169.892 57.9839 169.79 57.4489 169.79C56.947 169.79 56.4735 169.882 56.0284 170.067C55.5881 170.247 55.2282 170.509 54.9489 170.855C54.6695 171.196 54.518 171.608 54.4943 172.091H52.7898C52.8182 171.329 53.0478 170.661 53.4787 170.088C53.9096 169.51 54.473 169.061 55.169 168.739C55.8698 168.417 56.6392 168.256 57.4773 168.256C58.3769 168.256 59.1487 168.438 59.7926 168.803C60.4366 169.162 60.9313 169.638 61.277 170.23C61.6226 170.822 61.7955 171.461 61.7955 172.148C61.7955 172.967 61.58 173.665 61.1491 174.243C60.723 174.821 60.143 175.221 59.4091 175.443V175.557C60.3277 175.708 61.045 176.099 61.5611 176.729C62.0772 177.354 62.3352 178.128 62.3352 179.051C62.3352 179.842 62.1198 180.552 61.6889 181.182C61.2628 181.807 60.6804 182.299 59.9418 182.659C59.2031 183.019 58.3627 183.199 57.4205 183.199ZM66.4901 181.139C66.1397 181.139 65.839 181.014 65.5881 180.763C65.3371 180.512 65.2116 180.211 65.2116 179.861C65.2116 179.51 65.3371 179.21 65.5881 178.959C65.839 178.708 66.1397 178.582 66.4901 178.582C66.8404 178.582 67.1411 178.708 67.392 178.959C67.643 179.21 67.7685 179.51 67.7685 179.861C67.7685 180.093 67.7093 180.306 67.5909 180.5C67.4773 180.694 67.3234 180.85 67.1293 180.969C66.9399 181.082 66.7268 181.139 66.4901 181.139ZM66.4901 173.781C66.1397 173.781 65.839 173.656 65.5881 173.405C65.3371 173.154 65.2116 172.853 65.2116 172.503C65.2116 172.152 65.3371 171.852 65.5881 171.601C65.839 171.35 66.1397 171.224 66.4901 171.224C66.8404 171.224 67.1411 171.35 67.392 171.601C67.643 171.852 67.7685 172.152 67.7685 172.503C67.7685 172.735 67.7093 172.948 67.5909 173.142C67.4773 173.336 67.3234 173.492 67.1293 173.611C66.9399 173.724 66.7268 173.781 66.4901 173.781ZM70.407 180.017V178.568L76.799 168.455H77.8501V170.699H77.1399L72.3104 178.341V178.455H80.9183V180.017H70.407ZM77.2536 183V179.577V178.902V168.455H78.9297V183H77.2536ZM88.1254 183.199C87.292 183.199 86.5415 183.033 85.8739 182.702C85.2063 182.37 84.6713 181.916 84.2688 181.338C83.8664 180.76 83.6462 180.102 83.6083 179.364H85.3129C85.3791 180.022 85.6774 180.566 86.2077 180.997C86.7428 181.423 87.382 181.636 88.1254 181.636C88.7219 181.636 89.2522 181.497 89.7163 181.217C90.185 180.938 90.552 180.554 90.8171 180.067C91.087 179.574 91.2219 179.018 91.2219 178.398C91.2219 177.763 91.0823 177.197 90.8029 176.7C90.5283 176.198 90.1495 175.803 89.6665 175.514C89.1836 175.225 88.632 175.079 88.0117 175.074C87.5666 175.069 87.1097 175.138 86.641 175.28C86.1722 175.417 85.7863 175.595 85.4833 175.812L83.8356 175.614L84.7163 168.455H92.2731V170.017H86.1935L85.6822 174.307H85.7674C86.0657 174.07 86.4397 173.874 86.8896 173.717C87.3394 173.561 87.8081 173.483 88.2958 173.483C89.186 173.483 89.979 173.696 90.6751 174.122C91.3758 174.544 91.9251 175.121 92.3228 175.855C92.7253 176.589 92.9265 177.427 92.9265 178.369C92.9265 179.297 92.7182 180.126 92.3015 180.855C91.8896 181.58 91.3214 182.152 90.5969 182.574C89.8725 182.991 89.0487 183.199 88.1254 183.199ZM101.629 183V168.455H106.543C107.684 168.455 108.617 168.661 109.342 169.072C110.071 169.48 110.611 170.031 110.961 170.727C111.311 171.423 111.487 172.2 111.487 173.057C111.487 173.914 111.311 174.693 110.961 175.393C110.615 176.094 110.08 176.653 109.356 177.07C108.631 177.482 107.703 177.688 106.572 177.688H103.049V176.125H106.515C107.296 176.125 107.924 175.99 108.397 175.72C108.871 175.45 109.214 175.086 109.427 174.626C109.645 174.162 109.754 173.639 109.754 173.057C109.754 172.474 109.645 171.954 109.427 171.494C109.214 171.035 108.868 170.675 108.39 170.415C107.912 170.15 107.277 170.017 106.487 170.017H103.39V183H101.629ZM114.324 168.455H116.426L121.369 180.528H121.54L126.483 168.455H128.585V183H126.938V171.949H126.795L122.25 183H120.659L116.114 171.949H115.972V183H114.324V168.455Z" fill="black"/>
<path d="M54.5057 207V205.722L59.3068 200.466C59.8703 199.85 60.3343 199.315 60.6989 198.861C61.0634 198.402 61.3333 197.971 61.5085 197.568C61.6884 197.161 61.7784 196.735 61.7784 196.29C61.7784 195.778 61.6553 195.336 61.4091 194.962C61.1676 194.588 60.8362 194.299 60.4148 194.095C59.9934 193.892 59.5199 193.79 58.9943 193.79C58.4356 193.79 57.9479 193.906 57.5312 194.138C57.1193 194.365 56.7997 194.685 56.5724 195.097C56.3499 195.509 56.2386 195.991 56.2386 196.545H54.5625C54.5625 195.693 54.759 194.945 55.152 194.301C55.545 193.657 56.08 193.155 56.7571 192.795C57.4389 192.436 58.2036 192.256 59.0511 192.256C59.9034 192.256 60.6586 192.436 61.3168 192.795C61.9749 193.155 62.491 193.641 62.8651 194.251C63.2391 194.862 63.4261 195.542 63.4261 196.29C63.4261 196.825 63.3291 197.348 63.1349 197.859C62.9455 198.366 62.6141 198.932 62.1406 199.557C61.6719 200.177 61.0208 200.935 60.1875 201.83L56.9205 205.324V205.438H63.6818V207H54.5057ZM71.1605 207.199C70.3272 207.199 69.5767 207.033 68.9091 206.702C68.2415 206.37 67.7064 205.916 67.304 205.338C66.9015 204.76 66.6813 204.102 66.6435 203.364H68.348C68.4143 204.022 68.7126 204.566 69.2429 204.997C69.7779 205.423 70.4171 205.636 71.1605 205.636C71.7571 205.636 72.2874 205.497 72.7514 205.217C73.2202 204.938 73.5871 204.554 73.8523 204.067C74.1222 203.574 74.2571 203.018 74.2571 202.398C74.2571 201.763 74.1174 201.197 73.8381 200.7C73.5634 200.198 73.1847 199.803 72.7017 199.514C72.2188 199.225 71.6671 199.079 71.0469 199.074C70.6018 199.069 70.1449 199.138 69.6761 199.28C69.2074 199.417 68.8215 199.595 68.5185 199.812L66.8707 199.614L67.7514 192.455H75.3082V194.017H69.2287L68.7173 198.307H68.8026C69.1009 198.07 69.4749 197.874 69.9247 197.717C70.3745 197.561 70.8433 197.483 71.331 197.483C72.2211 197.483 73.0142 197.696 73.7102 198.122C74.411 198.544 74.9602 199.121 75.358 199.855C75.7604 200.589 75.9616 201.427 75.9616 202.369C75.9616 203.297 75.7533 204.126 75.3366 204.855C74.9247 205.58 74.3565 206.152 73.6321 206.574C72.9077 206.991 72.0838 207.199 71.1605 207.199ZM85.0614 198.946V200.509H78.6978V198.946H85.0614ZM92.5277 207.199C91.6944 207.199 90.9439 207.033 90.2763 206.702C89.6087 206.37 89.0736 205.916 88.6712 205.338C88.2687 204.76 88.0485 204.102 88.0107 203.364H89.7152C89.7815 204.022 90.0798 204.566 90.6101 204.997C91.1451 205.423 91.7843 205.636 92.5277 205.636C93.1243 205.636 93.6546 205.497 94.1186 205.217C94.5874 204.938 94.9543 204.554 95.2195 204.067C95.4893 203.574 95.6243 203.018 95.6243 202.398C95.6243 201.763 95.4846 201.197 95.2053 200.7C94.9306 200.198 94.5518 199.803 94.0689 199.514C93.5859 199.225 93.0343 199.079 92.4141 199.074C91.969 199.069 91.5121 199.138 91.0433 199.28C90.5746 199.417 90.1887 199.595 89.8857 199.812L88.2379 199.614L89.1186 192.455H96.6754V194.017H90.5959L90.0845 198.307H90.1697C90.468 198.07 90.8421 197.874 91.2919 197.717C91.7417 197.561 92.2105 197.483 92.6982 197.483C93.5883 197.483 94.3814 197.696 95.0774 198.122C95.7782 198.544 96.3274 199.121 96.7251 199.855C97.1276 200.589 97.3288 201.427 97.3288 202.369C97.3288 203.297 97.1205 204.126 96.7038 204.855C96.2919 205.58 95.7237 206.152 94.9993 206.574C94.2749 206.991 93.451 207.199 92.5277 207.199ZM106.429 198.946V200.509H100.065V198.946H106.429ZM114.463 192.455V207H112.702V194.301H112.616L109.065 196.659V194.869L112.702 192.455H114.463ZM118.305 204.017V202.568L124.697 192.455H125.749V194.699H125.038L120.209 202.341V202.455H128.817V204.017H118.305ZM125.152 207V203.577V202.902V192.455H126.828V207H125.152Z" fill="black"/>
<path d="M71.5341 367V356.091H73.2102V367H71.5341ZM72.3864 354.273C72.0597 354.273 71.7779 354.161 71.5412 353.939C71.3092 353.716 71.1932 353.449 71.1932 353.136C71.1932 352.824 71.3092 352.556 71.5412 352.334C71.7779 352.111 72.0597 352 72.3864 352C72.7131 352 72.9924 352.111 73.2244 352.334C73.4612 352.556 73.5795 352.824 73.5795 353.136C73.5795 353.449 73.4612 353.716 73.2244 353.939C72.9924 354.161 72.7131 354.273 72.3864 354.273ZM80.712 367.227C79.6893 367.227 78.8086 366.986 78.07 366.503C77.3313 366.02 76.7631 365.355 76.3654 364.507C75.9677 363.66 75.7688 362.691 75.7688 361.602C75.7688 360.494 75.9724 359.517 76.3796 358.669C76.7915 357.817 77.3645 357.152 78.0984 356.673C78.837 356.19 79.6987 355.949 80.6836 355.949C81.4506 355.949 82.1419 356.091 82.7575 356.375C83.373 356.659 83.8772 357.057 84.2702 357.568C84.6632 358.08 84.9071 358.676 85.0018 359.358H83.3256C83.1978 358.861 82.9137 358.42 82.4734 358.037C82.0378 357.649 81.4506 357.455 80.712 357.455C80.0586 357.455 79.4857 357.625 78.9933 357.966C78.5056 358.302 78.1244 358.778 77.8498 359.393C77.5799 360.004 77.445 360.722 77.445 361.545C77.445 362.388 77.5775 363.122 77.8427 363.747C78.1126 364.372 78.4914 364.857 78.979 365.203C79.4715 365.549 80.0491 365.722 80.712 365.722C81.1476 365.722 81.543 365.646 81.8981 365.494C82.2532 365.343 82.5539 365.125 82.8001 364.841C83.0463 364.557 83.2215 364.216 83.3256 363.818H85.0018C84.9071 364.462 84.6727 365.042 84.2987 365.558C83.9293 366.07 83.4393 366.477 82.8285 366.78C82.2224 367.078 81.5169 367.227 80.712 367.227ZM91.8839 367.227C90.899 367.227 90.0349 366.993 89.2915 366.524C88.5529 366.055 87.9753 365.4 87.5586 364.557C87.1467 363.714 86.9407 362.729 86.9407 361.602C86.9407 360.466 87.1467 359.474 87.5586 358.626C87.9753 357.779 88.5529 357.121 89.2915 356.652C90.0349 356.183 90.899 355.949 91.8839 355.949C92.8687 355.949 93.7305 356.183 94.4691 356.652C95.2125 357.121 95.7901 357.779 96.2021 358.626C96.6187 359.474 96.8271 360.466 96.8271 361.602C96.8271 362.729 96.6187 363.714 96.2021 364.557C95.7901 365.4 95.2125 366.055 94.4691 366.524C93.7305 366.993 92.8687 367.227 91.8839 367.227ZM91.8839 365.722C92.632 365.722 93.2475 365.53 93.7305 365.146C94.2134 364.763 94.5709 364.259 94.8029 363.634C95.0349 363.009 95.1509 362.331 95.1509 361.602C95.1509 360.873 95.0349 360.194 94.8029 359.564C94.5709 358.934 94.2134 358.425 93.7305 358.037C93.2475 357.649 92.632 357.455 91.8839 357.455C91.1358 357.455 90.5202 357.649 90.0373 358.037C89.5543 358.425 89.1969 358.934 88.9648 359.564C88.7328 360.194 88.6168 360.873 88.6168 361.602C88.6168 362.331 88.7328 363.009 88.9648 363.634C89.1969 364.259 89.5543 364.763 90.0373 365.146C90.5202 365.53 91.1358 365.722 91.8839 365.722ZM101.062 360.438V367H99.3857V356.091H101.005V357.795H101.147C101.403 357.241 101.791 356.796 102.312 356.46C102.833 356.119 103.505 355.949 104.329 355.949C105.067 355.949 105.714 356.1 106.268 356.403C106.822 356.702 107.253 357.156 107.56 357.767C107.868 358.373 108.022 359.14 108.022 360.068V367H106.346V360.182C106.346 359.325 106.123 358.657 105.678 358.179C105.233 357.696 104.622 357.455 103.846 357.455C103.311 357.455 102.833 357.571 102.411 357.803C101.995 358.035 101.665 358.373 101.424 358.818C101.183 359.263 101.062 359.803 101.062 360.438ZM115.369 352.455V367H113.608V354.301H113.523L109.972 356.659V354.869L113.608 352.455H115.369Z" fill="black"/>
<path d="M69.5341 664V653.091H71.2102V664H69.5341ZM70.3864 651.273C70.0597 651.273 69.7779 651.161 69.5412 650.939C69.3092 650.716 69.1932 650.449 69.1932 650.136C69.1932 649.824 69.3092 649.556 69.5412 649.334C69.7779 649.111 70.0597 649 70.3864 649C70.7131 649 70.9924 649.111 71.2244 649.334C71.4612 649.556 71.5795 649.824 71.5795 650.136C71.5795 650.449 71.4612 650.716 71.2244 650.939C70.9924 651.161 70.7131 651.273 70.3864 651.273ZM78.712 664.227C77.6893 664.227 76.8086 663.986 76.07 663.503C75.3313 663.02 74.7631 662.355 74.3654 661.507C73.9677 660.66 73.7688 659.691 73.7688 658.602C73.7688 657.494 73.9724 656.517 74.3796 655.669C74.7915 654.817 75.3645 654.152 76.0984 653.673C76.837 653.19 77.6987 652.949 78.6836 652.949C79.4506 652.949 80.1419 653.091 80.7575 653.375C81.373 653.659 81.8772 654.057 82.2702 654.568C82.6632 655.08 82.9071 655.676 83.0018 656.358H81.3256C81.1978 655.861 80.9137 655.42 80.4734 655.037C80.0378 654.649 79.4506 654.455 78.712 654.455C78.0586 654.455 77.4857 654.625 76.9933 654.966C76.5056 655.302 76.1244 655.778 75.8498 656.393C75.5799 657.004 75.445 657.722 75.445 658.545C75.445 659.388 75.5775 660.122 75.8427 660.747C76.1126 661.372 76.4914 661.857 76.979 662.203C77.4715 662.549 78.0491 662.722 78.712 662.722C79.1476 662.722 79.543 662.646 79.8981 662.494C80.2532 662.343 80.5539 662.125 80.8001 661.841C81.0463 661.557 81.2215 661.216 81.3256 660.818H83.0018C82.9071 661.462 82.6727 662.042 82.2987 662.558C81.9293 663.07 81.4393 663.477 80.8285 663.78C80.2224 664.078 79.5169 664.227 78.712 664.227ZM89.8839 664.227C88.899 664.227 88.0349 663.993 87.2915 663.524C86.5529 663.055 85.9753 662.4 85.5586 661.557C85.1467 660.714 84.9407 659.729 84.9407 658.602C84.9407 657.466 85.1467 656.474 85.5586 655.626C85.9753 654.779 86.5529 654.121 87.2915 653.652C88.0349 653.183 88.899 652.949 89.8839 652.949C90.8687 652.949 91.7305 653.183 92.4691 653.652C93.2125 654.121 93.7901 654.779 94.2021 655.626C94.6187 656.474 94.8271 657.466 94.8271 658.602C94.8271 659.729 94.6187 660.714 94.2021 661.557C93.7901 662.4 93.2125 663.055 92.4691 663.524C91.7305 663.993 90.8687 664.227 89.8839 664.227ZM89.8839 662.722C90.632 662.722 91.2475 662.53 91.7305 662.146C92.2134 661.763 92.5709 661.259 92.8029 660.634C93.0349 660.009 93.1509 659.331 93.1509 658.602C93.1509 657.873 93.0349 657.194 92.8029 656.564C92.5709 655.934 92.2134 655.425 91.7305 655.037C91.2475 654.649 90.632 654.455 89.8839 654.455C89.1358 654.455 88.5202 654.649 88.0373 655.037C87.5543 655.425 87.1969 655.934 86.9648 656.564C86.7328 657.194 86.6168 657.873 86.6168 658.602C86.6168 659.331 86.7328 660.009 86.9648 660.634C87.1969 661.259 87.5543 661.763 88.0373 662.146C88.5202 662.53 89.1358 662.722 89.8839 662.722ZM99.0618 657.438V664H97.3857V653.091H99.005V654.795H99.147C99.4027 654.241 99.791 653.796 100.312 653.46C100.833 653.119 101.505 652.949 102.329 652.949C103.067 652.949 103.714 653.1 104.268 653.403C104.822 653.702 105.253 654.156 105.56 654.767C105.868 655.373 106.022 656.14 106.022 657.068V664H104.346V657.182C104.346 656.325 104.123 655.657 103.678 655.179C103.233 654.696 102.622 654.455 101.846 654.455C101.311 654.455 100.833 654.571 100.411 654.803C99.9946 655.035 99.6655 655.373 99.424 655.818C99.1825 656.263 99.0618 656.803 99.0618 657.438ZM108.716 661.017V659.568L115.108 649.455H116.159V651.699H115.449L110.619 659.341V659.455H119.227V661.017H108.716ZM115.562 664V660.577V659.902V649.455H117.238V664H115.562Z" fill="black"/>
<path d="M70.5341 565V554.091H72.2102V565H70.5341ZM71.3864 552.273C71.0597 552.273 70.7779 552.161 70.5412 551.939C70.3092 551.716 70.1932 551.449 70.1932 551.136C70.1932 550.824 70.3092 550.556 70.5412 550.334C70.7779 550.111 71.0597 550 71.3864 550C71.7131 550 71.9924 550.111 72.2244 550.334C72.4612 550.556 72.5795 550.824 72.5795 551.136C72.5795 551.449 72.4612 551.716 72.2244 551.939C71.9924 552.161 71.7131 552.273 71.3864 552.273ZM79.712 565.227C78.6893 565.227 77.8086 564.986 77.07 564.503C76.3313 564.02 75.7631 563.355 75.3654 562.507C74.9677 561.66 74.7688 560.691 74.7688 559.602C74.7688 558.494 74.9724 557.517 75.3796 556.669C75.7915 555.817 76.3645 555.152 77.0984 554.673C77.837 554.19 78.6987 553.949 79.6836 553.949C80.4506 553.949 81.1419 554.091 81.7575 554.375C82.373 554.659 82.8772 555.057 83.2702 555.568C83.6632 556.08 83.9071 556.676 84.0018 557.358H82.3256C82.1978 556.861 81.9137 556.42 81.4734 556.037C81.0378 555.649 80.4506 555.455 79.712 555.455C79.0586 555.455 78.4857 555.625 77.9933 555.966C77.5056 556.302 77.1244 556.778 76.8498 557.393C76.5799 558.004 76.445 558.722 76.445 559.545C76.445 560.388 76.5775 561.122 76.8427 561.747C77.1126 562.372 77.4914 562.857 77.979 563.203C78.4715 563.549 79.0491 563.722 79.712 563.722C80.1476 563.722 80.543 563.646 80.8981 563.494C81.2532 563.343 81.5539 563.125 81.8001 562.841C82.0463 562.557 82.2215 562.216 82.3256 561.818H84.0018C83.9071 562.462 83.6727 563.042 83.2987 563.558C82.9293 564.07 82.4393 564.477 81.8285 564.78C81.2224 565.078 80.5169 565.227 79.712 565.227ZM90.8839 565.227C89.899 565.227 89.0349 564.993 88.2915 564.524C87.5529 564.055 86.9753 563.4 86.5586 562.557C86.1467 561.714 85.9407 560.729 85.9407 559.602C85.9407 558.466 86.1467 557.474 86.5586 556.626C86.9753 555.779 87.5529 555.121 88.2915 554.652C89.0349 554.183 89.899 553.949 90.8839 553.949C91.8687 553.949 92.7305 554.183 93.4691 554.652C94.2125 555.121 94.7901 555.779 95.2021 556.626C95.6187 557.474 95.8271 558.466 95.8271 559.602C95.8271 560.729 95.6187 561.714 95.2021 562.557C94.7901 563.4 94.2125 564.055 93.4691 564.524C92.7305 564.993 91.8687 565.227 90.8839 565.227ZM90.8839 563.722C91.632 563.722 92.2475 563.53 92.7305 563.146C93.2134 562.763 93.5709 562.259 93.8029 561.634C94.0349 561.009 94.1509 560.331 94.1509 559.602C94.1509 558.873 94.0349 558.194 93.8029 557.564C93.5709 556.934 93.2134 556.425 92.7305 556.037C92.2475 555.649 91.632 555.455 90.8839 555.455C90.1358 555.455 89.5202 555.649 89.0373 556.037C88.5543 556.425 88.1969 556.934 87.9648 557.564C87.7328 558.194 87.6168 558.873 87.6168 559.602C87.6168 560.331 87.7328 561.009 87.9648 561.634C88.1969 562.259 88.5543 562.763 89.0373 563.146C89.5202 563.53 90.1358 563.722 90.8839 563.722ZM100.062 558.438V565H98.3857V554.091H100.005V555.795H100.147C100.403 555.241 100.791 554.796 101.312 554.46C101.833 554.119 102.505 553.949 103.329 553.949C104.067 553.949 104.714 554.1 105.268 554.403C105.822 554.702 106.253 555.156 106.56 555.767C106.868 556.373 107.022 557.14 107.022 558.068V565H105.346V558.182C105.346 557.325 105.123 556.657 104.678 556.179C104.233 555.696 103.622 555.455 102.846 555.455C102.311 555.455 101.833 555.571 101.411 555.803C100.995 556.035 100.665 556.373 100.424 556.818C100.183 557.263 100.062 557.803 100.062 558.438ZM114.971 565.199C114.034 565.199 113.198 565.038 112.464 564.716C111.735 564.394 111.155 563.946 110.724 563.374C110.298 562.796 110.066 562.126 110.028 561.364H111.818C111.856 561.832 112.017 562.237 112.301 562.578C112.585 562.914 112.957 563.175 113.416 563.359C113.875 563.544 114.384 563.636 114.943 563.636C115.568 563.636 116.122 563.527 116.605 563.31C117.088 563.092 117.467 562.789 117.741 562.401C118.016 562.012 118.153 561.562 118.153 561.051C118.153 560.516 118.02 560.045 117.755 559.638C117.49 559.226 117.102 558.904 116.591 558.672C116.079 558.44 115.454 558.324 114.716 558.324H113.551V556.761H114.716C115.293 556.761 115.8 556.657 116.235 556.449C116.676 556.241 117.019 555.947 117.265 555.568C117.516 555.189 117.642 554.744 117.642 554.233C117.642 553.741 117.533 553.312 117.315 552.947C117.097 552.583 116.789 552.299 116.392 552.095C115.999 551.892 115.535 551.79 115 551.79C114.498 551.79 114.024 551.882 113.579 552.067C113.139 552.247 112.779 552.509 112.5 552.855C112.22 553.196 112.069 553.608 112.045 554.091H110.341C110.369 553.329 110.599 552.661 111.029 552.088C111.46 551.51 112.024 551.061 112.72 550.739C113.421 550.417 114.19 550.256 115.028 550.256C115.928 550.256 116.699 550.438 117.343 550.803C117.987 551.162 118.482 551.638 118.828 552.23C119.173 552.822 119.346 553.461 119.346 554.148C119.346 554.967 119.131 555.665 118.7 556.243C118.274 556.821 117.694 557.221 116.96 557.443V557.557C117.878 557.708 118.596 558.099 119.112 558.729C119.628 559.354 119.886 560.128 119.886 561.051C119.886 561.842 119.671 562.552 119.24 563.182C118.814 563.807 118.231 564.299 117.493 564.659C116.754 565.019 115.913 565.199 114.971 565.199Z" fill="black"/>
<path d="M70.5341 466V455.091H72.2102V466H70.5341ZM71.3864 453.273C71.0597 453.273 70.7779 453.161 70.5412 452.939C70.3092 452.716 70.1932 452.449 70.1932 452.136C70.1932 451.824 70.3092 451.556 70.5412 451.334C70.7779 451.111 71.0597 451 71.3864 451C71.7131 451 71.9924 451.111 72.2244 451.334C72.4612 451.556 72.5795 451.824 72.5795 452.136C72.5795 452.449 72.4612 452.716 72.2244 452.939C71.9924 453.161 71.7131 453.273 71.3864 453.273ZM79.712 466.227C78.6893 466.227 77.8086 465.986 77.07 465.503C76.3313 465.02 75.7631 464.355 75.3654 463.507C74.9677 462.66 74.7688 461.691 74.7688 460.602C74.7688 459.494 74.9724 458.517 75.3796 457.669C75.7915 456.817 76.3645 456.152 77.0984 455.673C77.837 455.19 78.6987 454.949 79.6836 454.949C80.4506 454.949 81.1419 455.091 81.7575 455.375C82.373 455.659 82.8772 456.057 83.2702 456.568C83.6632 457.08 83.9071 457.676 84.0018 458.358H82.3256C82.1978 457.861 81.9137 457.42 81.4734 457.037C81.0378 456.649 80.4506 456.455 79.712 456.455C79.0586 456.455 78.4857 456.625 77.9933 456.966C77.5056 457.302 77.1244 457.778 76.8498 458.393C76.5799 459.004 76.445 459.722 76.445 460.545C76.445 461.388 76.5775 462.122 76.8427 462.747C77.1126 463.372 77.4914 463.857 77.979 464.203C78.4715 464.549 79.0491 464.722 79.712 464.722C80.1476 464.722 80.543 464.646 80.8981 464.494C81.2532 464.343 81.5539 464.125 81.8001 463.841C82.0463 463.557 82.2215 463.216 82.3256 462.818H84.0018C83.9071 463.462 83.6727 464.042 83.2987 464.558C82.9293 465.07 82.4393 465.477 81.8285 465.78C81.2224 466.078 80.5169 466.227 79.712 466.227ZM90.8839 466.227C89.899 466.227 89.0349 465.993 88.2915 465.524C87.5529 465.055 86.9753 464.4 86.5586 463.557C86.1467 462.714 85.9407 461.729 85.9407 460.602C85.9407 459.466 86.1467 458.474 86.5586 457.626C86.9753 456.779 87.5529 456.121 88.2915 455.652C89.0349 455.183 89.899 454.949 90.8839 454.949C91.8687 454.949 92.7305 455.183 93.4691 455.652C94.2125 456.121 94.7901 456.779 95.2021 457.626C95.6187 458.474 95.8271 459.466 95.8271 460.602C95.8271 461.729 95.6187 462.714 95.2021 463.557C94.7901 464.4 94.2125 465.055 93.4691 465.524C92.7305 465.993 91.8687 466.227 90.8839 466.227ZM90.8839 464.722C91.632 464.722 92.2475 464.53 92.7305 464.146C93.2134 463.763 93.5709 463.259 93.8029 462.634C94.0349 462.009 94.1509 461.331 94.1509 460.602C94.1509 459.873 94.0349 459.194 93.8029 458.564C93.5709 457.934 93.2134 457.425 92.7305 457.037C92.2475 456.649 91.632 456.455 90.8839 456.455C90.1358 456.455 89.5202 456.649 89.0373 457.037C88.5543 457.425 88.1969 457.934 87.9648 458.564C87.7328 459.194 87.6168 459.873 87.6168 460.602C87.6168 461.331 87.7328 462.009 87.9648 462.634C88.1969 463.259 88.5543 463.763 89.0373 464.146C89.5202 464.53 90.1358 464.722 90.8839 464.722ZM100.062 459.438V466H98.3857V455.091H100.005V456.795H100.147C100.403 456.241 100.791 455.796 101.312 455.46C101.833 455.119 102.505 454.949 103.329 454.949C104.067 454.949 104.714 455.1 105.268 455.403C105.822 455.702 106.253 456.156 106.56 456.767C106.868 457.373 107.022 458.14 107.022 459.068V466H105.346V459.182C105.346 458.325 105.123 457.657 104.678 457.179C104.233 456.696 103.622 456.455 102.846 456.455C102.311 456.455 101.833 456.571 101.411 456.803C100.995 457.035 100.665 457.373 100.424 457.818C100.183 458.263 100.062 458.803 100.062 459.438ZM110.056 466V464.722L114.858 459.466C115.421 458.85 115.885 458.315 116.25 457.861C116.614 457.402 116.884 456.971 117.059 456.568C117.239 456.161 117.329 455.735 117.329 455.29C117.329 454.778 117.206 454.336 116.96 453.962C116.718 453.588 116.387 453.299 115.966 453.095C115.544 452.892 115.071 452.79 114.545 452.79C113.986 452.79 113.499 452.906 113.082 453.138C112.67 453.365 112.35 453.685 112.123 454.097C111.901 454.509 111.789 454.991 111.789 455.545H110.113C110.113 454.693 110.31 453.945 110.703 453.301C111.096 452.657 111.631 452.155 112.308 451.795C112.99 451.436 113.754 451.256 114.602 451.256C115.454 451.256 116.209 451.436 116.868 451.795C117.526 452.155 118.042 452.641 118.416 453.251C118.79 453.862 118.977 454.542 118.977 455.29C118.977 455.825 118.88 456.348 118.686 456.859C118.496 457.366 118.165 457.932 117.691 458.557C117.223 459.177 116.572 459.935 115.738 460.83L112.471 464.324V464.438H119.233V466H110.056Z" fill="black"/>
<g filter="url(#filter8_d_17_252)">
<rect x="154" y="45" width="1769" height="1058" rx="48" fill="white"/>
</g>
<rect x="168" y="96" width="1741" height="996" rx="53" fill="#D9D9D9"/>
<path d="M910.761 621.364V594.364H913.676V597.483H914.034C914.256 597.142 914.563 596.707 914.955 596.179C915.355 595.642 915.926 595.165 916.668 594.747C917.418 594.321 918.432 594.108 919.71 594.108C921.364 594.108 922.821 594.521 924.082 595.348C925.344 596.175 926.328 597.347 927.036 598.864C927.743 600.381 928.097 602.17 928.097 604.233C928.097 606.312 927.743 608.115 927.036 609.641C926.328 611.158 925.348 612.334 924.095 613.169C922.842 613.996 921.398 614.409 919.761 614.409C918.5 614.409 917.49 614.2 916.732 613.783C915.973 613.357 915.389 612.875 914.98 612.338C914.571 611.793 914.256 611.341 914.034 610.983H913.778V621.364H910.761ZM913.727 604.182C913.727 605.665 913.945 606.973 914.379 608.107C914.814 609.232 915.449 610.114 916.284 610.753C917.119 611.384 918.142 611.699 919.352 611.699C920.614 611.699 921.666 611.366 922.51 610.702C923.362 610.028 924.001 609.125 924.428 607.991C924.862 606.849 925.08 605.58 925.08 604.182C925.08 602.801 924.866 601.557 924.44 600.449C924.023 599.332 923.388 598.45 922.536 597.803C921.692 597.146 920.631 596.818 919.352 596.818C918.125 596.818 917.094 597.129 916.259 597.751C915.423 598.365 914.793 599.226 914.366 600.334C913.94 601.433 913.727 602.716 913.727 604.182ZM932.699 614V594.364H935.614V597.33H935.818C936.176 596.358 936.824 595.57 937.761 594.964C938.699 594.359 939.756 594.057 940.932 594.057C941.153 594.057 941.43 594.061 941.763 594.07C942.095 594.078 942.347 594.091 942.517 594.108V597.176C942.415 597.151 942.18 597.112 941.814 597.061C941.456 597.001 941.077 596.972 940.676 596.972C939.722 596.972 938.869 597.172 938.119 597.572C937.378 597.964 936.79 598.51 936.355 599.209C935.929 599.899 935.716 600.687 935.716 601.574V614H932.699ZM953.473 614.409C951.7 614.409 950.145 613.987 948.807 613.143C947.477 612.3 946.438 611.119 945.688 609.602C944.946 608.085 944.575 606.312 944.575 604.284C944.575 602.239 944.946 600.453 945.688 598.928C946.438 597.402 947.477 596.217 948.807 595.374C950.145 594.53 951.7 594.108 953.473 594.108C955.246 594.108 956.797 594.53 958.126 595.374C959.464 596.217 960.504 597.402 961.246 598.928C961.996 600.453 962.371 602.239 962.371 604.284C962.371 606.312 961.996 608.085 961.246 609.602C960.504 611.119 959.464 612.3 958.126 613.143C956.797 613.987 955.246 614.409 953.473 614.409ZM953.473 611.699C954.82 611.699 955.928 611.354 956.797 610.663C957.666 609.973 958.31 609.065 958.727 607.94C959.145 606.815 959.354 605.597 959.354 604.284C959.354 602.972 959.145 601.749 958.727 600.615C958.31 599.482 957.666 598.565 956.797 597.866C955.928 597.168 954.82 596.818 953.473 596.818C952.126 596.818 951.018 597.168 950.149 597.866C949.28 598.565 948.636 599.482 948.219 600.615C947.801 601.749 947.592 602.972 947.592 604.284C947.592 605.597 947.801 606.815 948.219 607.94C948.636 609.065 949.28 609.973 950.149 610.663C951.018 611.354 952.126 611.699 953.473 611.699ZM974.902 621.773C973.445 621.773 972.192 621.585 971.144 621.21C970.096 620.844 969.222 620.358 968.523 619.753C967.833 619.156 967.283 618.517 966.874 617.835L969.277 616.148C969.55 616.506 969.895 616.915 970.313 617.375C970.73 617.844 971.301 618.249 972.026 618.589C972.759 618.939 973.718 619.114 974.902 619.114C976.488 619.114 977.796 618.73 978.827 617.963C979.858 617.196 980.374 615.994 980.374 614.358V610.369H980.118C979.897 610.727 979.581 611.17 979.172 611.699C978.772 612.219 978.192 612.683 977.434 613.092C976.684 613.493 975.669 613.693 974.391 613.693C972.806 613.693 971.382 613.318 970.121 612.568C968.868 611.818 967.875 610.727 967.142 609.295C966.418 607.864 966.056 606.125 966.056 604.08C966.056 602.068 966.409 600.317 967.117 598.825C967.824 597.325 968.809 596.166 970.07 595.348C971.331 594.521 972.789 594.108 974.442 594.108C975.721 594.108 976.735 594.321 977.485 594.747C978.243 595.165 978.823 595.642 979.223 596.179C979.632 596.707 979.948 597.142 980.169 597.483H980.476V594.364H983.391V614.562C983.391 616.25 983.007 617.622 982.24 618.679C981.482 619.744 980.459 620.524 979.172 621.018C977.894 621.521 976.471 621.773 974.902 621.773ZM974.8 610.983C976.01 610.983 977.033 610.706 977.868 610.152C978.703 609.598 979.338 608.801 979.773 607.761C980.208 606.722 980.425 605.477 980.425 604.028C980.425 602.614 980.212 601.365 979.786 600.283C979.36 599.2 978.729 598.352 977.894 597.739C977.059 597.125 976.027 596.818 974.8 596.818C973.522 596.818 972.456 597.142 971.604 597.79C970.76 598.437 970.125 599.307 969.699 600.398C969.282 601.489 969.073 602.699 969.073 604.028C969.073 605.392 969.286 606.598 969.712 607.646C970.147 608.686 970.786 609.504 971.63 610.101C972.482 610.689 973.539 610.983 974.8 610.983ZM988.914 614V594.364H991.828V597.33H992.033C992.391 596.358 993.039 595.57 993.976 594.964C994.914 594.359 995.971 594.057 997.147 594.057C997.368 594.057 997.645 594.061 997.978 594.07C998.31 594.078 998.561 594.091 998.732 594.108V597.176C998.63 597.151 998.395 597.112 998.029 597.061C997.671 597.001 997.292 596.972 996.891 596.972C995.936 596.972 995.084 597.172 994.334 597.572C993.593 597.964 993.005 598.51 992.57 599.209C992.144 599.899 991.931 600.687 991.931 601.574V614H988.914ZM1008.09 614.46C1006.84 614.46 1005.71 614.226 1004.7 613.757C1003.68 613.28 1002.88 612.594 1002.28 611.699C1001.69 610.795 1001.39 609.705 1001.39 608.426C1001.39 607.301 1001.61 606.389 1002.05 605.69C1002.5 604.983 1003.09 604.429 1003.83 604.028C1004.57 603.628 1005.39 603.33 1006.28 603.134C1007.19 602.929 1008.1 602.767 1009.01 602.648C1010.2 602.494 1011.17 602.379 1011.91 602.303C1012.66 602.217 1013.2 602.077 1013.55 601.881C1013.89 601.685 1014.07 601.344 1014.07 600.858V600.756C1014.07 599.494 1013.72 598.514 1013.03 597.815C1012.35 597.116 1011.32 596.767 1009.93 596.767C1008.49 596.767 1007.36 597.082 1006.54 597.713C1005.72 598.344 1005.15 599.017 1004.81 599.733L1001.95 598.71C1002.46 597.517 1003.14 596.588 1004 595.923C1004.86 595.25 1005.79 594.781 1006.81 594.517C1007.83 594.244 1008.84 594.108 1009.83 594.108C1010.46 594.108 1011.18 594.185 1012 594.338C1012.83 594.483 1013.62 594.786 1014.39 595.246C1015.16 595.706 1015.81 596.401 1016.32 597.33C1016.83 598.259 1017.09 599.503 1017.09 601.062V614H1014.07V611.341H1013.92C1013.71 611.767 1013.37 612.223 1012.89 612.709C1012.42 613.195 1011.78 613.608 1010.99 613.949C1010.2 614.29 1009.23 614.46 1008.09 614.46ZM1008.55 611.75C1009.74 611.75 1010.75 611.516 1011.56 611.047C1012.39 610.578 1013.01 609.973 1013.43 609.232C1013.86 608.49 1014.07 607.71 1014.07 606.892V604.131C1013.94 604.284 1013.66 604.425 1013.23 604.553C1012.8 604.672 1012.31 604.778 1011.74 604.872C1011.19 604.957 1010.65 605.034 1010.12 605.102C1009.6 605.162 1009.18 605.213 1008.85 605.256C1008.07 605.358 1007.34 605.524 1006.65 605.754C1005.98 605.976 1005.44 606.312 1005.02 606.764C1004.61 607.207 1004.4 607.812 1004.4 608.58C1004.4 609.628 1004.79 610.42 1005.57 610.957C1006.35 611.486 1007.35 611.75 1008.55 611.75ZM1022.59 614V594.364H1025.51V597.432H1025.76C1026.17 596.384 1026.83 595.57 1027.75 594.99C1028.66 594.402 1029.75 594.108 1031.03 594.108C1032.33 594.108 1033.4 594.402 1034.27 594.99C1035.13 595.57 1035.81 596.384 1036.3 597.432H1036.5C1037.01 596.418 1037.76 595.612 1038.77 595.016C1039.77 594.411 1040.98 594.108 1042.38 594.108C1044.14 594.108 1045.57 594.658 1046.69 595.757C1047.81 596.848 1048.37 598.548 1048.37 600.858V614H1045.35V600.858C1045.35 599.409 1044.95 598.374 1044.16 597.751C1043.37 597.129 1042.43 596.818 1041.36 596.818C1039.98 596.818 1038.91 597.236 1038.15 598.071C1037.39 598.898 1037.01 599.946 1037.01 601.216V614H1033.95V600.551C1033.95 599.435 1033.58 598.536 1032.86 597.854C1032.13 597.163 1031.2 596.818 1030.06 596.818C1029.28 596.818 1028.54 597.027 1027.86 597.445C1027.19 597.862 1026.64 598.442 1026.22 599.183C1025.81 599.916 1025.61 600.764 1025.61 601.727V614H1022.59ZM1064.01 614V594.364H1067.02V614H1064.01ZM1065.54 591.091C1064.95 591.091 1064.45 590.891 1064.02 590.49C1063.6 590.089 1063.39 589.608 1063.39 589.045C1063.39 588.483 1063.6 588.001 1064.02 587.601C1064.45 587.2 1064.95 587 1065.54 587C1066.13 587 1066.63 587.2 1067.05 587.601C1067.48 588.001 1067.69 588.483 1067.69 589.045C1067.69 589.608 1067.48 590.089 1067.05 590.49C1066.63 590.891 1066.13 591.091 1065.54 591.091ZM1081.29 594.364V596.92H1070.71V594.364H1081.29ZM1073.88 614V591.653C1073.88 590.528 1074.14 589.591 1074.67 588.841C1075.2 588.091 1075.89 587.528 1076.73 587.153C1077.57 586.778 1078.47 586.591 1079.4 586.591C1080.14 586.591 1080.75 586.651 1081.22 586.77C1081.69 586.889 1082.04 587 1082.27 587.102L1081.4 589.71C1081.24 589.659 1081.03 589.595 1080.76 589.518C1080.49 589.442 1080.14 589.403 1079.71 589.403C1078.71 589.403 1077.99 589.655 1077.55 590.158C1077.11 590.661 1076.9 591.398 1076.9 592.369V614H1073.88ZM1085.52 614V594.364H1088.44V597.33H1088.64C1089 596.358 1089.65 595.57 1090.59 594.964C1091.52 594.359 1092.58 594.057 1093.76 594.057C1093.98 594.057 1094.25 594.061 1094.59 594.07C1094.92 594.078 1095.17 594.091 1095.34 594.108V597.176C1095.24 597.151 1095 597.112 1094.64 597.061C1094.28 597.001 1093.9 596.972 1093.5 596.972C1092.55 596.972 1091.69 597.172 1090.94 597.572C1090.2 597.964 1089.61 598.51 1089.18 599.209C1088.75 599.899 1088.54 600.687 1088.54 601.574V614H1085.52ZM1104.7 614.46C1103.45 614.46 1102.32 614.226 1101.31 613.757C1100.29 613.28 1099.49 612.594 1098.89 611.699C1098.3 610.795 1098 609.705 1098 608.426C1098 607.301 1098.22 606.389 1098.66 605.69C1099.11 604.983 1099.7 604.429 1100.44 604.028C1101.18 603.628 1102 603.33 1102.89 603.134C1103.8 602.929 1104.7 602.767 1105.62 602.648C1106.81 602.494 1107.78 602.379 1108.52 602.303C1109.27 602.217 1109.81 602.077 1110.15 601.881C1110.5 601.685 1110.68 601.344 1110.68 600.858V600.756C1110.68 599.494 1110.33 598.514 1109.64 597.815C1108.96 597.116 1107.93 596.767 1106.54 596.767C1105.1 596.767 1103.97 597.082 1103.15 597.713C1102.33 598.344 1101.76 599.017 1101.42 599.733L1098.56 598.71C1099.07 597.517 1099.75 596.588 1100.61 595.923C1101.47 595.25 1102.4 594.781 1103.42 594.517C1104.44 594.244 1105.45 594.108 1106.43 594.108C1107.07 594.108 1107.79 594.185 1108.61 594.338C1109.43 594.483 1110.23 594.786 1111 595.246C1111.77 595.706 1112.42 596.401 1112.93 597.33C1113.44 598.259 1113.7 599.503 1113.7 601.062V614H1110.68V611.341H1110.53C1110.32 611.767 1109.98 612.223 1109.5 612.709C1109.03 613.195 1108.39 613.608 1107.6 613.949C1106.81 614.29 1105.84 614.46 1104.7 614.46ZM1105.16 611.75C1106.35 611.75 1107.36 611.516 1108.17 611.047C1109 610.578 1109.62 609.973 1110.04 609.232C1110.47 608.49 1110.68 607.71 1110.68 606.892V604.131C1110.55 604.284 1110.27 604.425 1109.84 604.553C1109.41 604.672 1108.91 604.778 1108.35 604.872C1107.8 604.957 1107.26 605.034 1106.73 605.102C1106.21 605.162 1105.79 605.213 1105.46 605.256C1104.68 605.358 1103.95 605.524 1103.26 605.754C1102.59 605.976 1102.05 606.312 1101.63 606.764C1101.22 607.207 1101.01 607.812 1101.01 608.58C1101.01 609.628 1101.4 610.42 1102.18 610.957C1102.96 611.486 1103.95 611.75 1105.16 611.75ZM1119.2 614V594.364H1122.12V597.432H1122.37C1122.78 596.384 1123.44 595.57 1124.35 594.99C1125.27 594.402 1126.36 594.108 1127.64 594.108C1128.94 594.108 1130.01 594.402 1130.87 594.99C1131.74 595.57 1132.42 596.384 1132.91 597.432H1133.11C1133.61 596.418 1134.37 595.612 1135.37 595.016C1136.38 594.411 1137.59 594.108 1138.99 594.108C1140.75 594.108 1142.18 594.658 1143.3 595.757C1144.42 596.848 1144.98 598.548 1144.98 600.858V614H1141.96V600.858C1141.96 599.409 1141.56 598.374 1140.77 597.751C1139.98 597.129 1139.04 596.818 1137.97 596.818C1136.59 596.818 1135.52 597.236 1134.76 598.071C1134 598.898 1133.62 599.946 1133.62 601.216V614H1130.56V600.551C1130.56 599.435 1130.19 598.536 1129.47 597.854C1128.74 597.163 1127.81 596.818 1126.67 596.818C1125.88 596.818 1125.15 597.027 1124.47 597.445C1123.8 597.862 1123.25 598.442 1122.83 599.183C1122.42 599.916 1122.22 600.764 1122.22 601.727V614H1119.2ZM1158.72 614.409C1156.83 614.409 1155.2 613.991 1153.83 613.156C1152.46 612.312 1151.41 611.136 1150.67 609.628C1149.94 608.111 1149.57 606.347 1149.57 604.335C1149.57 602.324 1149.94 600.551 1150.67 599.017C1151.41 597.474 1152.44 596.273 1153.76 595.412C1155.09 594.543 1156.65 594.108 1158.42 594.108C1159.44 594.108 1160.45 594.278 1161.45 594.619C1162.44 594.96 1163.35 595.514 1164.17 596.281C1164.99 597.04 1165.64 598.045 1166.13 599.298C1166.61 600.551 1166.86 602.094 1166.86 603.926V605.205H1151.72V602.597H1163.79C1163.79 601.489 1163.57 600.5 1163.12 599.631C1162.69 598.761 1162.07 598.075 1161.26 597.572C1160.45 597.07 1159.51 596.818 1158.42 596.818C1157.22 596.818 1156.18 597.116 1155.3 597.713C1154.43 598.301 1153.76 599.068 1153.29 600.014C1152.82 600.96 1152.59 601.974 1152.59 603.057V604.795C1152.59 606.278 1152.84 607.536 1153.36 608.567C1153.88 609.589 1154.6 610.369 1155.52 610.906C1156.44 611.435 1157.51 611.699 1158.72 611.699C1159.52 611.699 1160.23 611.588 1160.87 611.366C1161.52 611.136 1162.08 610.795 1162.55 610.344C1163.02 609.884 1163.38 609.312 1163.63 608.631L1166.55 609.449C1166.24 610.438 1165.73 611.307 1165 612.057C1164.28 612.798 1163.38 613.378 1162.32 613.795C1161.25 614.205 1160.05 614.409 1158.72 614.409Z" fill="black"/>
<path d="M917.761 87.3636V60.3636H920.676V63.483H921.034C921.256 63.142 921.563 62.7074 921.955 62.179C922.355 61.642 922.926 61.1648 923.668 60.7472C924.418 60.321 925.432 60.108 926.71 60.108C928.364 60.108 929.821 60.5213 931.082 61.348C932.344 62.1747 933.328 63.3466 934.036 64.8636C934.743 66.3807 935.097 68.1705 935.097 70.233C935.097 72.3125 934.743 74.1151 934.036 75.6406C933.328 77.1577 932.348 78.3338 931.095 79.169C929.842 79.9957 928.398 80.4091 926.761 80.4091C925.5 80.4091 924.49 80.2003 923.732 79.7827C922.973 79.3565 922.389 78.875 921.98 78.3381C921.571 77.7926 921.256 77.3409 921.034 76.983H920.778V87.3636H917.761ZM920.727 70.1818C920.727 71.6648 920.945 72.973 921.379 74.1065C921.814 75.2315 922.449 76.1136 923.284 76.7528C924.119 77.3835 925.142 77.6989 926.352 77.6989C927.614 77.6989 928.666 77.3665 929.51 76.7017C930.362 76.0284 931.001 75.125 931.428 73.9915C931.862 72.8494 932.08 71.5795 932.08 70.1818C932.08 68.8011 931.866 67.5568 931.44 66.4489C931.023 65.3324 930.388 64.4503 929.536 63.8026C928.692 63.1463 927.631 62.8182 926.352 62.8182C925.125 62.8182 924.094 63.1293 923.259 63.7514C922.423 64.3651 921.793 65.2259 921.366 66.3338C920.94 67.4332 920.727 68.7159 920.727 70.1818ZM939.699 80V60.3636H942.614V63.3295H942.818C943.176 62.358 943.824 61.5696 944.761 60.9645C945.699 60.3594 946.756 60.0568 947.932 60.0568C948.153 60.0568 948.43 60.0611 948.763 60.0696C949.095 60.0781 949.347 60.0909 949.517 60.108V63.1761C949.415 63.1506 949.18 63.1122 948.814 63.0611C948.456 63.0014 948.077 62.9716 947.676 62.9716C946.722 62.9716 945.869 63.1719 945.119 63.5724C944.378 63.9645 943.79 64.5099 943.355 65.2088C942.929 65.8991 942.716 66.6875 942.716 67.5739V80H939.699ZM960.473 80.4091C958.7 80.4091 957.145 79.9872 955.807 79.1435C954.477 78.2997 953.438 77.1193 952.688 75.6023C951.946 74.0852 951.575 72.3125 951.575 70.2841C951.575 68.2386 951.946 66.4531 952.688 64.9276C953.438 63.402 954.477 62.2173 955.807 61.3736C957.145 60.5298 958.7 60.108 960.473 60.108C962.246 60.108 963.797 60.5298 965.126 61.3736C966.464 62.2173 967.504 63.402 968.246 64.9276C968.996 66.4531 969.371 68.2386 969.371 70.2841C969.371 72.3125 968.996 74.0852 968.246 75.6023C967.504 77.1193 966.464 78.2997 965.126 79.1435C963.797 79.9872 962.246 80.4091 960.473 80.4091ZM960.473 77.6989C961.82 77.6989 962.928 77.3537 963.797 76.6634C964.666 75.973 965.31 75.0653 965.727 73.9403C966.145 72.8153 966.354 71.5966 966.354 70.2841C966.354 68.9716 966.145 67.7486 965.727 66.6151C965.31 65.4815 964.666 64.5653 963.797 63.8665C962.928 63.1676 961.82 62.8182 960.473 62.8182C959.126 62.8182 958.018 63.1676 957.149 63.8665C956.28 64.5653 955.636 65.4815 955.219 66.6151C954.801 67.7486 954.592 68.9716 954.592 70.2841C954.592 71.5966 954.801 72.8153 955.219 73.9403C955.636 75.0653 956.28 75.973 957.149 76.6634C958.018 77.3537 959.126 77.6989 960.473 77.6989ZM981.902 87.7727C980.445 87.7727 979.192 87.5852 978.144 87.2102C977.096 86.8438 976.222 86.358 975.523 85.7528C974.833 85.1563 974.283 84.517 973.874 83.8352L976.277 82.1477C976.55 82.5057 976.895 82.9148 977.313 83.375C977.73 83.8438 978.301 84.2486 979.026 84.5895C979.759 84.9389 980.718 85.1136 981.902 85.1136C983.488 85.1136 984.796 84.7301 985.827 83.9631C986.858 83.196 987.374 81.9943 987.374 80.358V76.3693H987.118C986.897 76.7273 986.581 77.1705 986.172 77.6989C985.772 78.2188 985.192 78.6832 984.434 79.0923C983.684 79.4929 982.669 79.6932 981.391 79.6932C979.806 79.6932 978.382 79.3182 977.121 78.5682C975.868 77.8182 974.875 76.7273 974.142 75.2955C973.418 73.8636 973.056 72.125 973.056 70.0795C973.056 68.0682 973.409 66.3168 974.117 64.8253C974.824 63.3253 975.809 62.1662 977.07 61.348C978.331 60.5213 979.789 60.108 981.442 60.108C982.721 60.108 983.735 60.321 984.485 60.7472C985.243 61.1648 985.823 61.642 986.223 62.179C986.632 62.7074 986.948 63.142 987.169 63.483H987.476V60.3636H990.391V80.5625C990.391 82.25 990.007 83.6222 989.24 84.679C988.482 85.7443 987.459 86.5241 986.172 87.0185C984.894 87.5213 983.471 87.7727 981.902 87.7727ZM981.8 76.983C983.01 76.983 984.033 76.706 984.868 76.152C985.703 75.598 986.338 74.8011 986.773 73.7614C987.208 72.7216 987.425 71.4773 987.425 70.0284C987.425 68.6136 987.212 67.3651 986.786 66.2827C986.36 65.2003 985.729 64.3523 984.894 63.7386C984.059 63.125 983.027 62.8182 981.8 62.8182C980.522 62.8182 979.456 63.142 978.604 63.7898C977.76 64.4375 977.125 65.3068 976.699 66.3977C976.282 67.4886 976.073 68.6989 976.073 70.0284C976.073 71.392 976.286 72.598 976.712 73.6463C977.147 74.6861 977.786 75.5043 978.63 76.1009C979.482 76.6889 980.539 76.983 981.8 76.983ZM995.914 80V60.3636H998.828V63.3295H999.033C999.391 62.358 1000.04 61.5696 1000.98 60.9645C1001.91 60.3594 1002.97 60.0568 1004.15 60.0568C1004.37 60.0568 1004.65 60.0611 1004.98 60.0696C1005.31 60.0781 1005.56 60.0909 1005.73 60.108V63.1761C1005.63 63.1506 1005.4 63.1122 1005.03 63.0611C1004.67 63.0014 1004.29 62.9716 1003.89 62.9716C1002.94 62.9716 1002.08 63.1719 1001.33 63.5724C1000.59 63.9645 1000 64.5099 999.57 65.2088C999.144 65.8991 998.931 66.6875 998.931 67.5739V80H995.914ZM1015.09 80.4602C1013.84 80.4602 1012.71 80.2259 1011.7 79.7571C1010.68 79.2798 1009.88 78.5938 1009.28 77.6989C1008.69 76.7955 1008.39 75.7045 1008.39 74.4261C1008.39 73.3011 1008.61 72.3892 1009.05 71.6903C1009.5 70.983 1010.09 70.429 1010.83 70.0284C1011.57 69.6278 1012.39 69.3295 1013.28 69.1335C1014.19 68.929 1015.1 68.767 1016.01 68.6477C1017.2 68.4943 1018.17 68.3793 1018.91 68.3026C1019.66 68.2173 1020.2 68.0767 1020.55 67.8807C1020.89 67.6847 1021.07 67.3437 1021.07 66.858V66.7557C1021.07 65.4943 1020.72 64.5142 1020.03 63.8153C1019.35 63.1165 1018.32 62.767 1016.93 62.767C1015.49 62.767 1014.36 63.0824 1013.54 63.7131C1012.72 64.3437 1012.15 65.017 1011.81 65.733L1008.95 64.7102C1009.46 63.517 1010.14 62.5881 1011 61.9233C1011.86 61.25 1012.79 60.7812 1013.81 60.517C1014.83 60.2443 1015.84 60.108 1016.83 60.108C1017.46 60.108 1018.18 60.1847 1019 60.3381C1019.83 60.483 1020.62 60.7855 1021.39 61.2457C1022.16 61.706 1022.81 62.4006 1023.32 63.3295C1023.83 64.2585 1024.09 65.5028 1024.09 67.0625V80H1021.07V77.3409H1020.92C1020.71 77.767 1020.37 78.223 1019.89 78.7088C1019.42 79.1946 1018.78 79.608 1017.99 79.9489C1017.2 80.2898 1016.23 80.4602 1015.09 80.4602ZM1015.55 77.75C1016.74 77.75 1017.75 77.5156 1018.56 77.0469C1019.39 76.5781 1020.01 75.973 1020.43 75.2315C1020.86 74.4901 1021.07 73.7102 1021.07 72.892V70.1307C1020.94 70.2841 1020.66 70.4247 1020.23 70.5526C1019.8 70.6719 1019.31 70.7784 1018.74 70.8722C1018.19 70.9574 1017.65 71.0341 1017.12 71.1023C1016.6 71.1619 1016.18 71.2131 1015.85 71.2557C1015.07 71.358 1014.34 71.5241 1013.65 71.7543C1012.98 71.9759 1012.44 72.3125 1012.02 72.7642C1011.61 73.2074 1011.4 73.8125 1011.4 74.5795C1011.4 75.6278 1011.79 76.4205 1012.57 76.9574C1013.35 77.4858 1014.35 77.75 1015.55 77.75ZM1029.59 80V60.3636H1032.51V63.4318H1032.76C1033.17 62.3835 1033.83 61.5696 1034.75 60.9901C1035.66 60.402 1036.75 60.108 1038.03 60.108C1039.33 60.108 1040.4 60.402 1041.27 60.9901C1042.13 61.5696 1042.81 62.3835 1043.3 63.4318H1043.5C1044.01 62.4176 1044.76 61.6122 1045.77 61.0156C1046.77 60.4105 1047.98 60.108 1049.38 60.108C1051.14 60.108 1052.57 60.6577 1053.69 61.7571C1054.81 62.848 1055.37 64.5483 1055.37 66.858V80H1052.35V66.858C1052.35 65.4091 1051.95 64.3736 1051.16 63.7514C1050.37 63.1293 1049.43 62.8182 1048.36 62.8182C1046.98 62.8182 1045.91 63.2358 1045.15 64.071C1044.39 64.8977 1044.01 65.946 1044.01 67.2159V80H1040.95V66.5511C1040.95 65.4347 1040.58 64.5355 1039.86 63.8537C1039.13 63.1634 1038.2 62.8182 1037.06 62.8182C1036.28 62.8182 1035.54 63.027 1034.86 63.4446C1034.19 63.8622 1033.64 64.4418 1033.22 65.1832C1032.81 65.9162 1032.61 66.7642 1032.61 67.7273V80H1029.59ZM1074.02 68.1875V80H1071.01V60.3636H1073.92V63.4318H1074.18C1074.64 62.4347 1075.34 61.6335 1076.27 61.0284C1077.21 60.4148 1078.42 60.108 1079.91 60.108C1081.23 60.108 1082.4 60.3807 1083.4 60.9261C1084.39 61.4631 1085.17 62.2812 1085.72 63.3807C1086.28 64.4716 1086.55 65.8523 1086.55 67.5227V80H1083.54V67.7273C1083.54 66.1847 1083.14 64.983 1082.33 64.1222C1081.53 63.2528 1080.43 62.8182 1079.04 62.8182C1078.07 62.8182 1077.21 63.027 1076.45 63.4446C1075.7 63.8622 1075.11 64.4716 1074.68 65.2727C1074.24 66.0739 1074.02 67.0455 1074.02 68.1875ZM1097.84 80.4602C1096.6 80.4602 1095.47 80.2259 1094.46 79.7571C1093.44 79.2798 1092.64 78.5938 1092.04 77.6989C1091.44 76.7955 1091.15 75.7045 1091.15 74.4261C1091.15 73.3011 1091.37 72.3892 1091.81 71.6903C1092.25 70.983 1092.85 70.429 1093.59 70.0284C1094.33 69.6278 1095.15 69.3295 1096.04 69.1335C1096.95 68.929 1097.85 68.767 1098.76 68.6477C1099.96 68.4943 1100.93 68.3793 1101.67 68.3026C1102.42 68.2173 1102.96 68.0767 1103.3 67.8807C1103.65 67.6847 1103.83 67.3437 1103.83 66.858V66.7557C1103.83 65.4943 1103.48 64.5142 1102.79 63.8153C1102.11 63.1165 1101.07 62.767 1099.69 62.767C1098.25 62.767 1097.12 63.0824 1096.3 63.7131C1095.48 64.3437 1094.9 65.017 1094.57 65.733L1091.71 64.7102C1092.22 63.517 1092.9 62.5881 1093.75 61.9233C1094.61 61.25 1095.55 60.7812 1096.57 60.517C1097.59 60.2443 1098.59 60.108 1099.58 60.108C1100.21 60.108 1100.94 60.1847 1101.76 60.3381C1102.58 60.483 1103.38 60.7855 1104.15 61.2457C1104.92 61.706 1105.57 62.4006 1106.08 63.3295C1106.59 64.2585 1106.84 65.5028 1106.84 67.0625V80H1103.83V77.3409H1103.67C1103.47 77.767 1103.13 78.223 1102.65 78.7088C1102.17 79.1946 1101.54 79.608 1100.75 79.9489C1099.95 80.2898 1098.99 80.4602 1097.84 80.4602ZM1098.3 77.75C1099.5 77.75 1100.5 77.5156 1101.32 77.0469C1102.15 76.5781 1102.77 75.973 1103.19 75.2315C1103.61 74.4901 1103.83 73.7102 1103.83 72.892V70.1307C1103.7 70.2841 1103.42 70.4247 1102.98 70.5526C1102.56 70.6719 1102.06 70.7784 1101.5 70.8722C1100.95 70.9574 1100.41 71.0341 1099.88 71.1023C1099.36 71.1619 1098.94 71.2131 1098.61 71.2557C1097.83 71.358 1097.09 71.5241 1096.41 71.7543C1095.74 71.9759 1095.19 72.3125 1094.78 72.7642C1094.37 73.2074 1094.16 73.8125 1094.16 74.5795C1094.16 75.6278 1094.55 76.4205 1095.33 76.9574C1096.11 77.4858 1097.1 77.75 1098.3 77.75ZM1112.35 80V60.3636H1115.27V63.4318H1115.52C1115.93 62.3835 1116.59 61.5696 1117.5 60.9901C1118.42 60.402 1119.51 60.108 1120.79 60.108C1122.08 60.108 1123.16 60.402 1124.02 60.9901C1124.89 61.5696 1125.57 62.3835 1126.06 63.4318H1126.26C1126.76 62.4176 1127.52 61.6122 1128.52 61.0156C1129.53 60.4105 1130.73 60.108 1132.14 60.108C1133.9 60.108 1135.33 60.6577 1136.45 61.7571C1137.57 62.848 1138.12 64.5483 1138.12 66.858V80H1135.11V66.858C1135.11 65.4091 1134.71 64.3736 1133.92 63.7514C1133.13 63.1293 1132.19 62.8182 1131.12 62.8182C1129.74 62.8182 1128.67 63.2358 1127.91 64.071C1127.15 64.8977 1126.77 65.946 1126.77 67.2159V80H1123.7V66.5511C1123.7 65.4347 1123.34 64.5355 1122.62 63.8537C1121.89 63.1634 1120.96 62.8182 1119.82 62.8182C1119.03 62.8182 1118.3 63.027 1117.62 63.4446C1116.94 63.8622 1116.4 64.4418 1115.98 65.1832C1115.57 65.9162 1115.37 66.7642 1115.37 67.7273V80H1112.35ZM1151.87 80.4091C1149.98 80.4091 1148.35 79.9915 1146.98 79.1562C1145.61 78.3125 1144.56 77.1364 1143.82 75.6278C1143.09 74.1108 1142.72 72.3466 1142.72 70.3352C1142.72 68.3239 1143.09 66.5511 1143.82 65.017C1144.56 63.4744 1145.59 62.2727 1146.91 61.4119C1148.24 60.5426 1149.79 60.108 1151.57 60.108C1152.59 60.108 1153.6 60.2784 1154.6 60.6193C1155.59 60.9602 1156.5 61.5142 1157.32 62.2812C1158.14 63.0398 1158.79 64.0455 1159.28 65.2983C1159.76 66.5511 1160 68.0937 1160 69.9261V71.2045H1144.87V68.5966H1156.94C1156.94 67.4886 1156.71 66.5 1156.27 65.6307C1155.84 64.7614 1155.21 64.0753 1154.4 63.5724C1153.6 63.0696 1152.66 62.8182 1151.57 62.8182C1150.36 62.8182 1149.32 63.1165 1148.45 63.7131C1147.58 64.3011 1146.91 65.0682 1146.44 66.0142C1145.97 66.9602 1145.74 67.9744 1145.74 69.0568V70.7955C1145.74 72.2784 1145.99 73.5355 1146.5 74.5668C1147.02 75.5895 1147.74 76.3693 1148.66 76.9062C1149.58 77.4347 1150.65 77.6989 1151.87 77.6989C1152.67 77.6989 1153.38 77.5881 1154.02 77.3665C1154.67 77.1364 1155.23 76.7955 1155.7 76.3438C1156.16 75.8835 1156.53 75.3125 1156.78 74.6307L1159.7 75.4489C1159.39 76.4375 1158.87 77.3068 1158.15 78.0568C1157.43 78.7983 1156.53 79.3778 1155.47 79.7955C1154.4 80.2045 1153.2 80.4091 1151.87 80.4091Z" fill="black"/>
<circle cx="1863" cy="70" r="19" fill="#D9D9D9"/>
<path d="M1830 70C1830 64.9609 1828 60.1282 1824.44 56.565C1820.87 53.0018 1816.04 51 1811 51C1805.96 51 1801.13 53.0018 1797.56 56.565C1794 60.1282 1792 64.9609 1792 70L1811 70H1830Z" fill="#D9D9D9"/>
<path d="M1745 70C1745 75.0391 1747 79.8718 1750.56 83.435C1754.13 86.9982 1758.96 89 1764 89C1769.04 89 1773.87 86.9982 1777.44 83.435C1781 79.8718 1783 75.0391 1783 70L1764 70L1745 70Z" fill="#D9D9D9"/>
<defs>
<filter id="filter0_d_17_252" x="0.0999985" y="22.1" width="185.8" height="1100.8" filterUnits="userSpaceOnUse" color-interpolation-filters="sRGB">
<feFlood flood-opacity="0" result="BackgroundImageFix"/>
<feColorMatrix in="SourceAlpha" type="matrix" values="0 0 0 0 0 0 0 0 0 0 0 0 0 0 0 0 0 0 127 0" result="hardAlpha"/>
<feOffset/>
<feGaussianBlur stdDeviation="22.45"/>
<feComposite in2="hardAlpha" operator="out"/>
<feColorMatrix type="matrix" values="0 0 0 0 1 0 0 0 0 1 0 0 0 0 1 0 0 0 1 0"/>
<feBlend mode="normal" in2="BackgroundImageFix" result="effect1_dropShadow_17_252"/>
<feBlend mode="normal" in="SourceGraphic" in2="effect1_dropShadow_17_252" result="shape"/>
</filter>
<filter id="filter1_d_17_252" x="28.9691" y="51.1028" width="127.505" height="127.237" filterUnits="userSpaceOnUse" color-interpolation-filters="sRGB">
<feFlood flood-opacity="0" result="BackgroundImageFix"/>
<feColorMatrix in="SourceAlpha" type="matrix" values="0 0 0 0 0 0 0 0 0 0 0 0 0 0 0 0 0 0 127 0" result="hardAlpha"/>
<feOffset/>
<feGaussianBlur stdDeviation="22.45"/>
<feComposite in2="hardAlpha" operator="out"/>
<feColorMatrix type="matrix" values="0 0 0 0 1 0 0 0 0 1 0 0 0 0 1 0 0 0 1 0"/>
<feBlend mode="normal" in2="BackgroundImageFix" result="effect1_dropShadow_17_252"/>
<feBlend mode="normal" in="SourceGraphic" in2="effect1_dropShadow_17_252" result="shape"/>
</filter>
<filter id="filter2_d_17_252" x="37.9702" y="28.9078" width="109.369" height="106.747" filterUnits="userSpaceOnUse" color-interpolation-filters="sRGB">
<feFlood flood-opacity="0" result="BackgroundImageFix"/>
<feColorMatrix in="SourceAlpha" type="matrix" values="0 0 0 0 0 0 0 0 0 0 0 0 0 0 0 0 0 0 127 0" result="hardAlpha"/>
<feOffset/>
<feGaussianBlur stdDeviation="22.45"/>
<feComposite in2="hardAlpha" operator="out"/>
<feColorMatrix type="matrix" values="0 0 0 0 1 0 0 0 0 1 0 0 0 0 1 0 0 0 1 0"/>
<feBlend mode="normal" in2="BackgroundImageFix" result="effect1_dropShadow_17_252"/>
<feBlend mode="normal" in="SourceGraphic" in2="effect1_dropShadow_17_252" result="shape"/>
</filter>
<filter id="filter3_d_17_252" x="63.6321" y="50.0571" width="109.369" height="106.747" filterUnits="userSpaceOnUse" color-interpolation-filters="sRGB">
<feFlood flood-opacity="0" result="BackgroundImageFix"/>
<feColorMatrix in="SourceAlpha" type="matrix" values="0 0 0 0 0 0 0 0 0 0 0 0 0 0 0 0 0 0 127 0" result="hardAlpha"/>
<feOffset/>
<feGaussianBlur stdDeviation="22.45"/>
<feComposite in2="hardAlpha" operator="out"/>
<feColorMatrix type="matrix" values="0 0 0 0 1 0 0 0 0 1 0 0 0 0 1 0 0 0 1 0"/>
<feBlend mode="normal" in2="BackgroundImageFix" result="effect1_dropShadow_17_252"/>
<feBlend mode="normal" in="SourceGraphic" in2="effect1_dropShadow_17_252" result="shape"/>
</filter>
<filter id="filter4_d_17_252" x="63.632" y="73.9568" width="109.369" height="106.747" filterUnits="userSpaceOnUse" color-interpolation-filters="sRGB">
<feFlood flood-opacity="0" result="BackgroundImageFix"/>
<feColorMatrix in="SourceAlpha" type="matrix" values="0 0 0 0 0 0 0 0 0 0 0 0 0 0 0 0 0 0 127 0" result="hardAlpha"/>
<feOffset/>
<feGaussianBlur stdDeviation="22.45"/>
<feComposite in2="hardAlpha" operator="out"/>
<feColorMatrix type="matrix" values="0 0 0 0 1 0 0 0 0 1 0 0 0 0 1 0 0 0 1 0"/>
<feBlend mode="normal" in2="BackgroundImageFix" result="effect1_dropShadow_17_252"/>
<feBlend mode="normal" in="SourceGraphic" in2="effect1_dropShadow_17_252" result="shape"/>
</filter>
<filter id="filter5_d_17_252" x="12.1558" y="49.5223" width="109.369" height="106.747" filterUnits="userSpaceOnUse" color-interpolation-filters="sRGB">
<feFlood flood-opacity="0" result="BackgroundImageFix"/>
<feColorMatrix in="SourceAlpha" type="matrix" values="0 0 0 0 0 0 0 0 0 0 0 0 0 0 0 0 0 0 127 0" result="hardAlpha"/>
<feOffset/>
<feGaussianBlur stdDeviation="22.45"/>
<feComposite in2="hardAlpha" operator="out"/>
<feColorMatrix type="matrix" values="0 0 0 0 1 0 0 0 0 1 0 0 0 0 1 0 0 0 1 0"/>
<feBlend mode="normal" in2="BackgroundImageFix" result="effect1_dropShadow_17_252"/>
<feBlend mode="normal" in="SourceGraphic" in2="effect1_dropShadow_17_252" result="shape"/>
</filter>
<filter id="filter6_d_17_252" x="12.1557" y="73.9568" width="109.369" height="106.747" filterUnits="userSpaceOnUse" color-interpolation-filters="sRGB">
<feFlood flood-opacity="0" result="BackgroundImageFix"/>
<feColorMatrix in="SourceAlpha" type="matrix" values="0 0 0 0 0 0 0 0 0 0 0 0 0 0 0 0 0 0 127 0" result="hardAlpha"/>
<feOffset/>
<feGaussianBlur stdDeviation="22.45"/>
<feComposite in2="hardAlpha" operator="out"/>
<feColorMatrix type="matrix" values="0 0 0 0 1 0 0 0 0 1 0 0 0 0 1 0 0 0 1 0"/>
<feBlend mode="normal" in2="BackgroundImageFix" result="effect1_dropShadow_17_252"/>
<feBlend mode="normal" in="SourceGraphic" in2="effect1_dropShadow_17_252" result="shape"/>
</filter>
<filter id="filter7_d_17_252" x="37.9702" y="95.1251" width="109.369" height="106.747" filterUnits="userSpaceOnUse" color-interpolation-filters="sRGB">
<feFlood flood-opacity="0" result="BackgroundImageFix"/>
<feColorMatrix in="SourceAlpha" type="matrix" values="0 0 0 0 0 0 0 0 0 0 0 0 0 0 0 0 0 0 127 0" result="hardAlpha"/>
<feOffset/>
<feGaussianBlur stdDeviation="22.45"/>
<feComposite in2="hardAlpha" operator="out"/>
<feColorMatrix type="matrix" values="0 0 0 0 1 0 0 0 0 1 0 0 0 0 1 0 0 0 1 0"/>
<feBlend mode="normal" in2="BackgroundImageFix" result="effect1_dropShadow_17_252"/>
<feBlend mode="normal" in="SourceGraphic" in2="effect1_dropShadow_17_252" result="shape"/>
</filter>
<filter id="filter8_d_17_252" x="109.1" y="0.0999985" width="1858.8" height="1147.8" filterUnits="userSpaceOnUse" color-interpolation-filters="sRGB">
<feFlood flood-opacity="0" result="BackgroundImageFix"/>
<feColorMatrix in="SourceAlpha" type="matrix" values="0 0 0 0 0 0 0 0 0 0 0 0 0 0 0 0 0 0 127 0" result="hardAlpha"/>
<feOffset/>
<feGaussianBlur stdDeviation="22.45"/>
<feComposite in2="hardAlpha" operator="out"/>
<feColorMatrix type="matrix" values="0 0 0 0 1 0 0 0 0 1 0 0 0 0 1 0 0 0 1 0"/>
<feBlend mode="normal" in2="BackgroundImageFix" result="effect1_dropShadow_17_252"/>
<feBlend mode="normal" in="SourceGraphic" in2="effect1_dropShadow_17_252" result="shape"/>
</filter>
</defs>
</svg>
