<svg width="1935" height="1101" viewBox="0 0 1935 1101" fill="none" xmlns="http://www.w3.org/2000/svg">
<rect x="15" y="11" width="1920" height="1080" fill="#D9D9D9"/>
<g filter="url(#filter0_d_17_251)">
<rect x="45" y="45" width="96" height="1011" rx="48" fill="white"/>
</g>
<circle cx="92.7215" cy="92.7215" r="43.7215" fill="#D9D9D9"/>
<g filter="url(#filter1_d_17_251)">
<ellipse cx="92.7215" cy="92.7215" rx="18.8524" ry="18.7187" fill="white"/>
</g>
<g filter="url(#filter2_d_17_251)">
<path d="M92.6546 51.8078L102.439 68.7549H82.8702L92.6546 51.8078Z" fill="white"/>
</g>
<g filter="url(#filter3_d_17_251)">
<path d="M108.532 72.9571L128.101 72.9571L118.316 89.9042L108.532 72.9571Z" fill="white"/>
</g>
<g filter="url(#filter4_d_17_251)">
<path d="M108.532 113.804L118.316 96.8568L128.101 113.804L108.532 113.804Z" fill="white"/>
</g>
<g filter="url(#filter5_d_17_251)">
<path d="M57.0557 72.4223L76.6245 72.4223L66.8401 89.3694L57.0557 72.4223Z" fill="white"/>
</g>
<g filter="url(#filter6_d_17_251)">
<path d="M57.0557 113.804L66.8401 96.8568L76.6245 113.804L57.0557 113.804Z" fill="white"/>
</g>
<g filter="url(#filter7_d_17_251)">
<path d="M92.6546 134.972L82.8702 118.025H102.439L92.6546 134.972Z" fill="white"/>
</g>
<circle cx="92.7215" cy="337.721" r="43.7215" fill="#D9D9D9"/>
<circle cx="92.7215" cy="436.721" r="43.7215" fill="#D9D9D9"/>
<circle cx="92.7215" cy="634.721" r="43.7215" fill="#D9D9D9"/>
<circle cx="92.7215" cy="535.721" r="43.7215" fill="#D9D9D9"/>
<circle cx="63.5" cy="214.5" r="12.5" fill="#D9D9D9"/>
<circle cx="63.5" cy="245.5" r="12.5" fill="#D9D9D9"/>
<circle cx="93.5" cy="245.5" r="12.5" fill="#D9D9D9"/>
<circle cx="123.5" cy="245.5" r="12.5" fill="#D9D9D9"/>
<circle cx="93.5" cy="214.5" r="12.5" fill="#D9D9D9"/>
<circle cx="123.5" cy="214.5" r="12.5" fill="#D9D9D9"/>
<path d="M57.4205 161.199C56.483 161.199 55.6473 161.038 54.9134 160.716C54.1842 160.394 53.6042 159.946 53.1733 159.374C52.7472 158.796 52.5152 158.126 52.4773 157.364H54.267C54.3049 157.832 54.4659 158.237 54.75 158.578C55.0341 158.914 55.4058 159.175 55.8651 159.359C56.3243 159.544 56.8333 159.636 57.392 159.636C58.017 159.636 58.571 159.527 59.054 159.31C59.5369 159.092 59.9157 158.789 60.1903 158.401C60.465 158.012 60.6023 157.562 60.6023 157.051C60.6023 156.516 60.4697 156.045 60.2045 155.638C59.9394 155.226 59.5511 154.904 59.0398 154.672C58.5284 154.44 57.9034 154.324 57.1648 154.324H56V152.761H57.1648C57.7424 152.761 58.2491 152.657 58.6847 152.449C59.125 152.241 59.4683 151.947 59.7145 151.568C59.9654 151.189 60.0909 150.744 60.0909 150.233C60.0909 149.741 59.982 149.312 59.7642 148.947C59.5464 148.583 59.2386 148.299 58.8409 148.095C58.4479 147.892 57.9839 147.79 57.4489 147.79C56.947 147.79 56.4735 147.882 56.0284 148.067C55.5881 148.247 55.2282 148.509 54.9489 148.855C54.6695 149.196 54.518 149.608 54.4943 150.091H52.7898C52.8182 149.329 53.0478 148.661 53.4787 148.088C53.9096 147.51 54.473 147.061 55.169 146.739C55.8698 146.417 56.6392 146.256 57.4773 146.256C58.3769 146.256 59.1487 146.438 59.7926 146.803C60.4366 147.162 60.9313 147.638 61.277 148.23C61.6226 148.822 61.7955 149.461 61.7955 150.148C61.7955 150.967 61.58 151.665 61.1491 152.243C60.723 152.821 60.143 153.221 59.4091 153.443V153.557C60.3277 153.708 61.045 154.099 61.5611 154.729C62.0772 155.354 62.3352 156.128 62.3352 157.051C62.3352 157.842 62.1198 158.552 61.6889 159.182C61.2628 159.807 60.6804 160.299 59.9418 160.659C59.2031 161.019 58.3627 161.199 57.4205 161.199ZM66.4901 159.139C66.1397 159.139 65.839 159.014 65.5881 158.763C65.3371 158.512 65.2116 158.211 65.2116 157.861C65.2116 157.51 65.3371 157.21 65.5881 156.959C65.839 156.708 66.1397 156.582 66.4901 156.582C66.8404 156.582 67.1411 156.708 67.392 156.959C67.643 157.21 67.7685 157.51 67.7685 157.861C67.7685 158.093 67.7093 158.306 67.5909 158.5C67.4773 158.694 67.3234 158.85 67.1293 158.969C66.9399 159.082 66.7268 159.139 66.4901 159.139ZM66.4901 151.781C66.1397 151.781 65.839 151.656 65.5881 151.405C65.3371 151.154 65.2116 150.853 65.2116 150.503C65.2116 150.152 65.3371 149.852 65.5881 149.601C65.839 149.35 66.1397 149.224 66.4901 149.224C66.8404 149.224 67.1411 149.35 67.392 149.601C67.643 149.852 67.7685 150.152 67.7685 150.503C67.7685 150.735 67.7093 150.948 67.5909 151.142C67.4773 151.336 67.3234 151.492 67.1293 151.611C66.9399 151.724 66.7268 151.781 66.4901 151.781ZM70.407 158.017V156.568L76.799 146.455H77.8501V148.699H77.1399L72.3104 156.341V156.455H80.9183V158.017H70.407ZM77.2536 161V157.577V156.902V146.455H78.9297V161H77.2536ZM88.1254 161.199C87.292 161.199 86.5415 161.033 85.8739 160.702C85.2063 160.37 84.6713 159.916 84.2688 159.338C83.8664 158.76 83.6462 158.102 83.6083 157.364H85.3129C85.3791 158.022 85.6774 158.566 86.2077 158.997C86.7428 159.423 87.382 159.636 88.1254 159.636C88.7219 159.636 89.2522 159.497 89.7163 159.217C90.185 158.938 90.552 158.554 90.8171 158.067C91.087 157.574 91.2219 157.018 91.2219 156.398C91.2219 155.763 91.0823 155.197 90.8029 154.7C90.5283 154.198 90.1495 153.803 89.6665 153.514C89.1836 153.225 88.632 153.079 88.0117 153.074C87.5666 153.069 87.1097 153.138 86.641 153.28C86.1722 153.417 85.7863 153.595 85.4833 153.812L83.8356 153.614L84.7163 146.455H92.2731V148.017H86.1935L85.6822 152.307H85.7674C86.0657 152.07 86.4397 151.874 86.8896 151.717C87.3394 151.561 87.8081 151.483 88.2958 151.483C89.186 151.483 89.979 151.696 90.6751 152.122C91.3758 152.544 91.9251 153.121 92.3228 153.855C92.7253 154.589 92.9265 155.427 92.9265 156.369C92.9265 157.297 92.7182 158.126 92.3015 158.855C91.8896 159.58 91.3214 160.152 90.5969 160.574C89.8725 160.991 89.0487 161.199 88.1254 161.199ZM101.629 161V146.455H106.543C107.684 146.455 108.617 146.661 109.342 147.072C110.071 147.48 110.611 148.031 110.961 148.727C111.311 149.423 111.487 150.2 111.487 151.057C111.487 151.914 111.311 152.693 110.961 153.393C110.615 154.094 110.08 154.653 109.356 155.07C108.631 155.482 107.703 155.688 106.572 155.688H103.049V154.125H106.515C107.296 154.125 107.924 153.99 108.397 153.72C108.871 153.45 109.214 153.086 109.427 152.626C109.645 152.162 109.754 151.639 109.754 151.057C109.754 150.474 109.645 149.954 109.427 149.494C109.214 149.035 108.868 148.675 108.39 148.415C107.912 148.15 107.277 148.017 106.487 148.017H103.39V161H101.629ZM114.324 146.455H116.426L121.369 158.528H121.54L126.483 146.455H128.585V161H126.938V149.949H126.795L122.25 161H120.659L116.114 149.949H115.972V161H114.324V146.455Z" fill="black"/>
<path d="M54.5057 185V183.722L59.3068 178.466C59.8703 177.85 60.3343 177.315 60.6989 176.861C61.0634 176.402 61.3333 175.971 61.5085 175.568C61.6884 175.161 61.7784 174.735 61.7784 174.29C61.7784 173.778 61.6553 173.336 61.4091 172.962C61.1676 172.588 60.8362 172.299 60.4148 172.095C59.9934 171.892 59.5199 171.79 58.9943 171.79C58.4356 171.79 57.9479 171.906 57.5312 172.138C57.1193 172.365 56.7997 172.685 56.5724 173.097C56.3499 173.509 56.2386 173.991 56.2386 174.545H54.5625C54.5625 173.693 54.759 172.945 55.152 172.301C55.545 171.657 56.08 171.155 56.7571 170.795C57.4389 170.436 58.2036 170.256 59.0511 170.256C59.9034 170.256 60.6586 170.436 61.3168 170.795C61.9749 171.155 62.491 171.641 62.8651 172.251C63.2391 172.862 63.4261 173.542 63.4261 174.29C63.4261 174.825 63.3291 175.348 63.1349 175.859C62.9455 176.366 62.6141 176.932 62.1406 177.557C61.6719 178.177 61.0208 178.935 60.1875 179.83L56.9205 183.324V183.438H63.6818V185H54.5057ZM71.1605 185.199C70.3272 185.199 69.5767 185.033 68.9091 184.702C68.2415 184.37 67.7064 183.916 67.304 183.338C66.9015 182.76 66.6813 182.102 66.6435 181.364H68.348C68.4143 182.022 68.7126 182.566 69.2429 182.997C69.7779 183.423 70.4171 183.636 71.1605 183.636C71.7571 183.636 72.2874 183.497 72.7514 183.217C73.2202 182.938 73.5871 182.554 73.8523 182.067C74.1222 181.574 74.2571 181.018 74.2571 180.398C74.2571 179.763 74.1174 179.197 73.8381 178.7C73.5634 178.198 73.1847 177.803 72.7017 177.514C72.2188 177.225 71.6671 177.079 71.0469 177.074C70.6018 177.069 70.1449 177.138 69.6761 177.28C69.2074 177.417 68.8215 177.595 68.5185 177.812L66.8707 177.614L67.7514 170.455H75.3082V172.017H69.2287L68.7173 176.307H68.8026C69.1009 176.07 69.4749 175.874 69.9247 175.717C70.3745 175.561 70.8433 175.483 71.331 175.483C72.2211 175.483 73.0142 175.696 73.7102 176.122C74.411 176.544 74.9602 177.121 75.358 177.855C75.7604 178.589 75.9616 179.427 75.9616 180.369C75.9616 181.297 75.7533 182.126 75.3366 182.855C74.9247 183.58 74.3565 184.152 73.6321 184.574C72.9077 184.991 72.0838 185.199 71.1605 185.199ZM85.0614 176.946V178.509H78.6978V176.946H85.0614ZM92.5277 185.199C91.6944 185.199 90.9439 185.033 90.2763 184.702C89.6087 184.37 89.0736 183.916 88.6712 183.338C88.2687 182.76 88.0485 182.102 88.0107 181.364H89.7152C89.7815 182.022 90.0798 182.566 90.6101 182.997C91.1451 183.423 91.7843 183.636 92.5277 183.636C93.1243 183.636 93.6546 183.497 94.1186 183.217C94.5874 182.938 94.9543 182.554 95.2195 182.067C95.4893 181.574 95.6243 181.018 95.6243 180.398C95.6243 179.763 95.4846 179.197 95.2053 178.7C94.9306 178.198 94.5518 177.803 94.0689 177.514C93.5859 177.225 93.0343 177.079 92.4141 177.074C91.969 177.069 91.5121 177.138 91.0433 177.28C90.5746 177.417 90.1887 177.595 89.8857 177.812L88.2379 177.614L89.1186 170.455H96.6754V172.017H90.5959L90.0845 176.307H90.1697C90.468 176.07 90.8421 175.874 91.2919 175.717C91.7417 175.561 92.2105 175.483 92.6982 175.483C93.5883 175.483 94.3814 175.696 95.0774 176.122C95.7782 176.544 96.3274 177.121 96.7251 177.855C97.1276 178.589 97.3288 179.427 97.3288 180.369C97.3288 181.297 97.1205 182.126 96.7038 182.855C96.2919 183.58 95.7237 184.152 94.9993 184.574C94.2749 184.991 93.451 185.199 92.5277 185.199ZM106.429 176.946V178.509H100.065V176.946H106.429ZM114.463 170.455V185H112.702V172.301H112.616L109.065 174.659V172.869L112.702 170.455H114.463ZM118.305 182.017V180.568L124.697 170.455H125.749V172.699H125.038L120.209 180.341V180.455H128.817V182.017H118.305ZM125.152 185V181.577V180.902V170.455H126.828V185H125.152Z" fill="black"/>
<path d="M71.5341 345V334.091H73.2102V345H71.5341ZM72.3864 332.273C72.0597 332.273 71.7779 332.161 71.5412 331.939C71.3092 331.716 71.1932 331.449 71.1932 331.136C71.1932 330.824 71.3092 330.556 71.5412 330.334C71.7779 330.111 72.0597 330 72.3864 330C72.7131 330 72.9924 330.111 73.2244 330.334C73.4612 330.556 73.5795 330.824 73.5795 331.136C73.5795 331.449 73.4612 331.716 73.2244 331.939C72.9924 332.161 72.7131 332.273 72.3864 332.273ZM80.712 345.227C79.6893 345.227 78.8086 344.986 78.07 344.503C77.3313 344.02 76.7631 343.355 76.3654 342.507C75.9677 341.66 75.7688 340.691 75.7688 339.602C75.7688 338.494 75.9724 337.517 76.3796 336.669C76.7915 335.817 77.3645 335.152 78.0984 334.673C78.837 334.19 79.6987 333.949 80.6836 333.949C81.4506 333.949 82.1419 334.091 82.7575 334.375C83.373 334.659 83.8772 335.057 84.2702 335.568C84.6632 336.08 84.9071 336.676 85.0018 337.358H83.3256C83.1978 336.861 82.9137 336.42 82.4734 336.037C82.0378 335.649 81.4506 335.455 80.712 335.455C80.0586 335.455 79.4857 335.625 78.9933 335.966C78.5056 336.302 78.1244 336.778 77.8498 337.393C77.5799 338.004 77.445 338.722 77.445 339.545C77.445 340.388 77.5775 341.122 77.8427 341.747C78.1126 342.372 78.4914 342.857 78.979 343.203C79.4715 343.549 80.0491 343.722 80.712 343.722C81.1476 343.722 81.543 343.646 81.8981 343.494C82.2532 343.343 82.5539 343.125 82.8001 342.841C83.0463 342.557 83.2215 342.216 83.3256 341.818H85.0018C84.9071 342.462 84.6727 343.042 84.2987 343.558C83.9293 344.07 83.4393 344.477 82.8285 344.78C82.2224 345.078 81.5169 345.227 80.712 345.227ZM91.8839 345.227C90.899 345.227 90.0349 344.993 89.2915 344.524C88.5529 344.055 87.9753 343.4 87.5586 342.557C87.1467 341.714 86.9407 340.729 86.9407 339.602C86.9407 338.466 87.1467 337.474 87.5586 336.626C87.9753 335.779 88.5529 335.121 89.2915 334.652C90.0349 334.183 90.899 333.949 91.8839 333.949C92.8687 333.949 93.7305 334.183 94.4691 334.652C95.2125 335.121 95.7901 335.779 96.2021 336.626C96.6187 337.474 96.8271 338.466 96.8271 339.602C96.8271 340.729 96.6187 341.714 96.2021 342.557C95.7901 343.4 95.2125 344.055 94.4691 344.524C93.7305 344.993 92.8687 345.227 91.8839 345.227ZM91.8839 343.722C92.632 343.722 93.2475 343.53 93.7305 343.146C94.2134 342.763 94.5709 342.259 94.8029 341.634C95.0349 341.009 95.1509 340.331 95.1509 339.602C95.1509 338.873 95.0349 338.194 94.8029 337.564C94.5709 336.934 94.2134 336.425 93.7305 336.037C93.2475 335.649 92.632 335.455 91.8839 335.455C91.1358 335.455 90.5202 335.649 90.0373 336.037C89.5543 336.425 89.1969 336.934 88.9648 337.564C88.7328 338.194 88.6168 338.873 88.6168 339.602C88.6168 340.331 88.7328 341.009 88.9648 341.634C89.1969 342.259 89.5543 342.763 90.0373 343.146C90.5202 343.53 91.1358 343.722 91.8839 343.722ZM101.062 338.438V345H99.3857V334.091H101.005V335.795H101.147C101.403 335.241 101.791 334.796 102.312 334.46C102.833 334.119 103.505 333.949 104.329 333.949C105.067 333.949 105.714 334.1 106.268 334.403C106.822 334.702 107.253 335.156 107.56 335.767C107.868 336.373 108.022 337.14 108.022 338.068V345H106.346V338.182C106.346 337.325 106.123 336.657 105.678 336.179C105.233 335.696 104.622 335.455 103.846 335.455C103.311 335.455 102.833 335.571 102.411 335.803C101.995 336.035 101.665 336.373 101.424 336.818C101.183 337.263 101.062 337.803 101.062 338.438ZM115.369 330.455V345H113.608V332.301H113.523L109.972 334.659V332.869L113.608 330.455H115.369Z" fill="black"/>
<path d="M69.5341 642V631.091H71.2102V642H69.5341ZM70.3864 629.273C70.0597 629.273 69.7779 629.161 69.5412 628.939C69.3092 628.716 69.1932 628.449 69.1932 628.136C69.1932 627.824 69.3092 627.556 69.5412 627.334C69.7779 627.111 70.0597 627 70.3864 627C70.7131 627 70.9924 627.111 71.2244 627.334C71.4612 627.556 71.5795 627.824 71.5795 628.136C71.5795 628.449 71.4612 628.716 71.2244 628.939C70.9924 629.161 70.7131 629.273 70.3864 629.273ZM78.712 642.227C77.6893 642.227 76.8086 641.986 76.07 641.503C75.3313 641.02 74.7631 640.355 74.3654 639.507C73.9677 638.66 73.7688 637.691 73.7688 636.602C73.7688 635.494 73.9724 634.517 74.3796 633.669C74.7915 632.817 75.3645 632.152 76.0984 631.673C76.837 631.19 77.6987 630.949 78.6836 630.949C79.4506 630.949 80.1419 631.091 80.7575 631.375C81.373 631.659 81.8772 632.057 82.2702 632.568C82.6632 633.08 82.9071 633.676 83.0018 634.358H81.3256C81.1978 633.861 80.9137 633.42 80.4734 633.037C80.0378 632.649 79.4506 632.455 78.712 632.455C78.0586 632.455 77.4857 632.625 76.9933 632.966C76.5056 633.302 76.1244 633.778 75.8498 634.393C75.5799 635.004 75.445 635.722 75.445 636.545C75.445 637.388 75.5775 638.122 75.8427 638.747C76.1126 639.372 76.4914 639.857 76.979 640.203C77.4715 640.549 78.0491 640.722 78.712 640.722C79.1476 640.722 79.543 640.646 79.8981 640.494C80.2532 640.343 80.5539 640.125 80.8001 639.841C81.0463 639.557 81.2215 639.216 81.3256 638.818H83.0018C82.9071 639.462 82.6727 640.042 82.2987 640.558C81.9293 641.07 81.4393 641.477 80.8285 641.78C80.2224 642.078 79.5169 642.227 78.712 642.227ZM89.8839 642.227C88.899 642.227 88.0349 641.993 87.2915 641.524C86.5529 641.055 85.9753 640.4 85.5586 639.557C85.1467 638.714 84.9407 637.729 84.9407 636.602C84.9407 635.466 85.1467 634.474 85.5586 633.626C85.9753 632.779 86.5529 632.121 87.2915 631.652C88.0349 631.183 88.899 630.949 89.8839 630.949C90.8687 630.949 91.7305 631.183 92.4691 631.652C93.2125 632.121 93.7901 632.779 94.2021 633.626C94.6187 634.474 94.8271 635.466 94.8271 636.602C94.8271 637.729 94.6187 638.714 94.2021 639.557C93.7901 640.4 93.2125 641.055 92.4691 641.524C91.7305 641.993 90.8687 642.227 89.8839 642.227ZM89.8839 640.722C90.632 640.722 91.2475 640.53 91.7305 640.146C92.2134 639.763 92.5709 639.259 92.8029 638.634C93.0349 638.009 93.1509 637.331 93.1509 636.602C93.1509 635.873 93.0349 635.194 92.8029 634.564C92.5709 633.934 92.2134 633.425 91.7305 633.037C91.2475 632.649 90.632 632.455 89.8839 632.455C89.1358 632.455 88.5202 632.649 88.0373 633.037C87.5543 633.425 87.1969 633.934 86.9648 634.564C86.7328 635.194 86.6168 635.873 86.6168 636.602C86.6168 637.331 86.7328 638.009 86.9648 638.634C87.1969 639.259 87.5543 639.763 88.0373 640.146C88.5202 640.53 89.1358 640.722 89.8839 640.722ZM99.0618 635.438V642H97.3857V631.091H99.005V632.795H99.147C99.4027 632.241 99.791 631.796 100.312 631.46C100.833 631.119 101.505 630.949 102.329 630.949C103.067 630.949 103.714 631.1 104.268 631.403C104.822 631.702 105.253 632.156 105.56 632.767C105.868 633.373 106.022 634.14 106.022 635.068V642H104.346V635.182C104.346 634.325 104.123 633.657 103.678 633.179C103.233 632.696 102.622 632.455 101.846 632.455C101.311 632.455 100.833 632.571 100.411 632.803C99.9946 633.035 99.6655 633.373 99.424 633.818C99.1825 634.263 99.0618 634.803 99.0618 635.438ZM108.716 639.017V637.568L115.108 627.455H116.159V629.699H115.449L110.619 637.341V637.455H119.227V639.017H108.716ZM115.562 642V638.577V637.902V627.455H117.238V642H115.562Z" fill="black"/>
<path d="M70.5341 543V532.091H72.2102V543H70.5341ZM71.3864 530.273C71.0597 530.273 70.7779 530.161 70.5412 529.939C70.3092 529.716 70.1932 529.449 70.1932 529.136C70.1932 528.824 70.3092 528.556 70.5412 528.334C70.7779 528.111 71.0597 528 71.3864 528C71.7131 528 71.9924 528.111 72.2244 528.334C72.4612 528.556 72.5795 528.824 72.5795 529.136C72.5795 529.449 72.4612 529.716 72.2244 529.939C71.9924 530.161 71.7131 530.273 71.3864 530.273ZM79.712 543.227C78.6893 543.227 77.8086 542.986 77.07 542.503C76.3313 542.02 75.7631 541.355 75.3654 540.507C74.9677 539.66 74.7688 538.691 74.7688 537.602C74.7688 536.494 74.9724 535.517 75.3796 534.669C75.7915 533.817 76.3645 533.152 77.0984 532.673C77.837 532.19 78.6987 531.949 79.6836 531.949C80.4506 531.949 81.1419 532.091 81.7575 532.375C82.373 532.659 82.8772 533.057 83.2702 533.568C83.6632 534.08 83.9071 534.676 84.0018 535.358H82.3256C82.1978 534.861 81.9137 534.42 81.4734 534.037C81.0378 533.649 80.4506 533.455 79.712 533.455C79.0586 533.455 78.4857 533.625 77.9933 533.966C77.5056 534.302 77.1244 534.778 76.8498 535.393C76.5799 536.004 76.445 536.722 76.445 537.545C76.445 538.388 76.5775 539.122 76.8427 539.747C77.1126 540.372 77.4914 540.857 77.979 541.203C78.4715 541.549 79.0491 541.722 79.712 541.722C80.1476 541.722 80.543 541.646 80.8981 541.494C81.2532 541.343 81.5539 541.125 81.8001 540.841C82.0463 540.557 82.2215 540.216 82.3256 539.818H84.0018C83.9071 540.462 83.6727 541.042 83.2987 541.558C82.9293 542.07 82.4393 542.477 81.8285 542.78C81.2224 543.078 80.5169 543.227 79.712 543.227ZM90.8839 543.227C89.899 543.227 89.0349 542.993 88.2915 542.524C87.5529 542.055 86.9753 541.4 86.5586 540.557C86.1467 539.714 85.9407 538.729 85.9407 537.602C85.9407 536.466 86.1467 535.474 86.5586 534.626C86.9753 533.779 87.5529 533.121 88.2915 532.652C89.0349 532.183 89.899 531.949 90.8839 531.949C91.8687 531.949 92.7305 532.183 93.4691 532.652C94.2125 533.121 94.7901 533.779 95.2021 534.626C95.6187 535.474 95.8271 536.466 95.8271 537.602C95.8271 538.729 95.6187 539.714 95.2021 540.557C94.7901 541.4 94.2125 542.055 93.4691 542.524C92.7305 542.993 91.8687 543.227 90.8839 543.227ZM90.8839 541.722C91.632 541.722 92.2475 541.53 92.7305 541.146C93.2134 540.763 93.5709 540.259 93.8029 539.634C94.0349 539.009 94.1509 538.331 94.1509 537.602C94.1509 536.873 94.0349 536.194 93.8029 535.564C93.5709 534.934 93.2134 534.425 92.7305 534.037C92.2475 533.649 91.632 533.455 90.8839 533.455C90.1358 533.455 89.5202 533.649 89.0373 534.037C88.5543 534.425 88.1969 534.934 87.9648 535.564C87.7328 536.194 87.6168 536.873 87.6168 537.602C87.6168 538.331 87.7328 539.009 87.9648 539.634C88.1969 540.259 88.5543 540.763 89.0373 541.146C89.5202 541.53 90.1358 541.722 90.8839 541.722ZM100.062 536.438V543H98.3857V532.091H100.005V533.795H100.147C100.403 533.241 100.791 532.796 101.312 532.46C101.833 532.119 102.505 531.949 103.329 531.949C104.067 531.949 104.714 532.1 105.268 532.403C105.822 532.702 106.253 533.156 106.56 533.767C106.868 534.373 107.022 535.14 107.022 536.068V543H105.346V536.182C105.346 535.325 105.123 534.657 104.678 534.179C104.233 533.696 103.622 533.455 102.846 533.455C102.311 533.455 101.833 533.571 101.411 533.803C100.995 534.035 100.665 534.373 100.424 534.818C100.183 535.263 100.062 535.803 100.062 536.438ZM114.971 543.199C114.034 543.199 113.198 543.038 112.464 542.716C111.735 542.394 111.155 541.946 110.724 541.374C110.298 540.796 110.066 540.126 110.028 539.364H111.818C111.856 539.832 112.017 540.237 112.301 540.578C112.585 540.914 112.957 541.175 113.416 541.359C113.875 541.544 114.384 541.636 114.943 541.636C115.568 541.636 116.122 541.527 116.605 541.31C117.088 541.092 117.467 540.789 117.741 540.401C118.016 540.012 118.153 539.562 118.153 539.051C118.153 538.516 118.02 538.045 117.755 537.638C117.49 537.226 117.102 536.904 116.591 536.672C116.079 536.44 115.454 536.324 114.716 536.324H113.551V534.761H114.716C115.293 534.761 115.8 534.657 116.235 534.449C116.676 534.241 117.019 533.947 117.265 533.568C117.516 533.189 117.642 532.744 117.642 532.233C117.642 531.741 117.533 531.312 117.315 530.947C117.097 530.583 116.789 530.299 116.392 530.095C115.999 529.892 115.535 529.79 115 529.79C114.498 529.79 114.024 529.882 113.579 530.067C113.139 530.247 112.779 530.509 112.5 530.855C112.22 531.196 112.069 531.608 112.045 532.091H110.341C110.369 531.329 110.599 530.661 111.029 530.088C111.46 529.51 112.024 529.061 112.72 528.739C113.421 528.417 114.19 528.256 115.028 528.256C115.928 528.256 116.699 528.438 117.343 528.803C117.987 529.162 118.482 529.638 118.828 530.23C119.173 530.822 119.346 531.461 119.346 532.148C119.346 532.967 119.131 533.665 118.7 534.243C118.274 534.821 117.694 535.221 116.96 535.443V535.557C117.878 535.708 118.596 536.099 119.112 536.729C119.628 537.354 119.886 538.128 119.886 539.051C119.886 539.842 119.671 540.552 119.24 541.182C118.814 541.807 118.231 542.299 117.493 542.659C116.754 543.019 115.913 543.199 114.971 543.199Z" fill="black"/>
<path d="M70.5341 444V433.091H72.2102V444H70.5341ZM71.3864 431.273C71.0597 431.273 70.7779 431.161 70.5412 430.939C70.3092 430.716 70.1932 430.449 70.1932 430.136C70.1932 429.824 70.3092 429.556 70.5412 429.334C70.7779 429.111 71.0597 429 71.3864 429C71.7131 429 71.9924 429.111 72.2244 429.334C72.4612 429.556 72.5795 429.824 72.5795 430.136C72.5795 430.449 72.4612 430.716 72.2244 430.939C71.9924 431.161 71.7131 431.273 71.3864 431.273ZM79.712 444.227C78.6893 444.227 77.8086 443.986 77.07 443.503C76.3313 443.02 75.7631 442.355 75.3654 441.507C74.9677 440.66 74.7688 439.691 74.7688 438.602C74.7688 437.494 74.9724 436.517 75.3796 435.669C75.7915 434.817 76.3645 434.152 77.0984 433.673C77.837 433.19 78.6987 432.949 79.6836 432.949C80.4506 432.949 81.1419 433.091 81.7575 433.375C82.373 433.659 82.8772 434.057 83.2702 434.568C83.6632 435.08 83.9071 435.676 84.0018 436.358H82.3256C82.1978 435.861 81.9137 435.42 81.4734 435.037C81.0378 434.649 80.4506 434.455 79.712 434.455C79.0586 434.455 78.4857 434.625 77.9933 434.966C77.5056 435.302 77.1244 435.778 76.8498 436.393C76.5799 437.004 76.445 437.722 76.445 438.545C76.445 439.388 76.5775 440.122 76.8427 440.747C77.1126 441.372 77.4914 441.857 77.979 442.203C78.4715 442.549 79.0491 442.722 79.712 442.722C80.1476 442.722 80.543 442.646 80.8981 442.494C81.2532 442.343 81.5539 442.125 81.8001 441.841C82.0463 441.557 82.2215 441.216 82.3256 440.818H84.0018C83.9071 441.462 83.6727 442.042 83.2987 442.558C82.9293 443.07 82.4393 443.477 81.8285 443.78C81.2224 444.078 80.5169 444.227 79.712 444.227ZM90.8839 444.227C89.899 444.227 89.0349 443.993 88.2915 443.524C87.5529 443.055 86.9753 442.4 86.5586 441.557C86.1467 440.714 85.9407 439.729 85.9407 438.602C85.9407 437.466 86.1467 436.474 86.5586 435.626C86.9753 434.779 87.5529 434.121 88.2915 433.652C89.0349 433.183 89.899 432.949 90.8839 432.949C91.8687 432.949 92.7305 433.183 93.4691 433.652C94.2125 434.121 94.7901 434.779 95.2021 435.626C95.6187 436.474 95.8271 437.466 95.8271 438.602C95.8271 439.729 95.6187 440.714 95.2021 441.557C94.7901 442.4 94.2125 443.055 93.4691 443.524C92.7305 443.993 91.8687 444.227 90.8839 444.227ZM90.8839 442.722C91.632 442.722 92.2475 442.53 92.7305 442.146C93.2134 441.763 93.5709 441.259 93.8029 440.634C94.0349 440.009 94.1509 439.331 94.1509 438.602C94.1509 437.873 94.0349 437.194 93.8029 436.564C93.5709 435.934 93.2134 435.425 92.7305 435.037C92.2475 434.649 91.632 434.455 90.8839 434.455C90.1358 434.455 89.5202 434.649 89.0373 435.037C88.5543 435.425 88.1969 435.934 87.9648 436.564C87.7328 437.194 87.6168 437.873 87.6168 438.602C87.6168 439.331 87.7328 440.009 87.9648 440.634C88.1969 441.259 88.5543 441.763 89.0373 442.146C89.5202 442.53 90.1358 442.722 90.8839 442.722ZM100.062 437.438V444H98.3857V433.091H100.005V434.795H100.147C100.403 434.241 100.791 433.796 101.312 433.46C101.833 433.119 102.505 432.949 103.329 432.949C104.067 432.949 104.714 433.1 105.268 433.403C105.822 433.702 106.253 434.156 106.56 434.767C106.868 435.373 107.022 436.14 107.022 437.068V444H105.346V437.182C105.346 436.325 105.123 435.657 104.678 435.179C104.233 434.696 103.622 434.455 102.846 434.455C102.311 434.455 101.833 434.571 101.411 434.803C100.995 435.035 100.665 435.373 100.424 435.818C100.183 436.263 100.062 436.803 100.062 437.438ZM110.056 444V442.722L114.858 437.466C115.421 436.85 115.885 436.315 116.25 435.861C116.614 435.402 116.884 434.971 117.059 434.568C117.239 434.161 117.329 433.735 117.329 433.29C117.329 432.778 117.206 432.336 116.96 431.962C116.718 431.588 116.387 431.299 115.966 431.095C115.544 430.892 115.071 430.79 114.545 430.79C113.986 430.79 113.499 430.906 113.082 431.138C112.67 431.365 112.35 431.685 112.123 432.097C111.901 432.509 111.789 432.991 111.789 433.545H110.113C110.113 432.693 110.31 431.945 110.703 431.301C111.096 430.657 111.631 430.155 112.308 429.795C112.99 429.436 113.754 429.256 114.602 429.256C115.454 429.256 116.209 429.436 116.868 429.795C117.526 430.155 118.042 430.641 118.416 431.251C118.79 431.862 118.977 432.542 118.977 433.29C118.977 433.825 118.88 434.348 118.686 434.859C118.496 435.366 118.165 435.932 117.691 436.557C117.223 437.177 116.572 437.935 115.738 438.83L112.471 442.324V442.438H119.233V444H110.056Z" fill="black"/>
<rect x="15" y="11" width="1920" height="1080" fill="#D9D9D9"/>
<g filter="url(#filter8_d_17_251)">
<rect x="45" y="45" width="96" height="1011" rx="48" fill="white"/>
</g>
<circle cx="92.7215" cy="92.7215" r="43.7215" fill="#D9D9D9"/>
<g filter="url(#filter9_d_17_251)">
<ellipse cx="92.7215" cy="92.7215" rx="18.8524" ry="18.7187" fill="white"/>
</g>
<g filter="url(#filter10_d_17_251)">
<path d="M92.6546 51.8078L102.439 68.7549H82.8702L92.6546 51.8078Z" fill="white"/>
</g>
<g filter="url(#filter11_d_17_251)">
<path d="M108.532 72.9571L128.101 72.9571L118.316 89.9042L108.532 72.9571Z" fill="white"/>
</g>
<g filter="url(#filter12_d_17_251)">
<path d="M108.532 113.804L118.316 96.8568L128.101 113.804L108.532 113.804Z" fill="white"/>
</g>
<g filter="url(#filter13_d_17_251)">
<path d="M57.0557 72.4223L76.6245 72.4223L66.8401 89.3694L57.0557 72.4223Z" fill="white"/>
</g>
<g filter="url(#filter14_d_17_251)">
<path d="M57.0557 113.804L66.8401 96.8568L76.6245 113.804L57.0557 113.804Z" fill="white"/>
</g>
<g filter="url(#filter15_d_17_251)">
<path d="M92.6546 134.972L82.8702 118.025H102.439L92.6546 134.972Z" fill="white"/>
</g>
<circle cx="92.7215" cy="337.721" r="43.7215" fill="#D9D9D9"/>
<circle cx="92.7215" cy="436.721" r="43.7215" fill="#D9D9D9"/>
<circle cx="92.7215" cy="634.721" r="43.7215" fill="#D9D9D9"/>
<circle cx="92.7215" cy="535.721" r="43.7215" fill="#D9D9D9"/>
<circle cx="63.5" cy="214.5" r="12.5" fill="#D9D9D9"/>
<circle cx="63.5" cy="245.5" r="12.5" fill="#D9D9D9"/>
<circle cx="93.5" cy="245.5" r="12.5" fill="#D9D9D9"/>
<circle cx="123.5" cy="245.5" r="12.5" fill="#D9D9D9"/>
<circle cx="93.5" cy="214.5" r="12.5" fill="#D9D9D9"/>
<circle cx="123.5" cy="214.5" r="12.5" fill="#D9D9D9"/>
<path d="M57.4205 161.199C56.483 161.199 55.6473 161.038 54.9134 160.716C54.1842 160.394 53.6042 159.946 53.1733 159.374C52.7472 158.796 52.5152 158.126 52.4773 157.364H54.267C54.3049 157.832 54.4659 158.237 54.75 158.578C55.0341 158.914 55.4058 159.175 55.8651 159.359C56.3243 159.544 56.8333 159.636 57.392 159.636C58.017 159.636 58.571 159.527 59.054 159.31C59.5369 159.092 59.9157 158.789 60.1903 158.401C60.465 158.012 60.6023 157.562 60.6023 157.051C60.6023 156.516 60.4697 156.045 60.2045 155.638C59.9394 155.226 59.5511 154.904 59.0398 154.672C58.5284 154.44 57.9034 154.324 57.1648 154.324H56V152.761H57.1648C57.7424 152.761 58.2491 152.657 58.6847 152.449C59.125 152.241 59.4683 151.947 59.7145 151.568C59.9654 151.189 60.0909 150.744 60.0909 150.233C60.0909 149.741 59.982 149.312 59.7642 148.947C59.5464 148.583 59.2386 148.299 58.8409 148.095C58.4479 147.892 57.9839 147.79 57.4489 147.79C56.947 147.79 56.4735 147.882 56.0284 148.067C55.5881 148.247 55.2282 148.509 54.9489 148.855C54.6695 149.196 54.518 149.608 54.4943 150.091H52.7898C52.8182 149.329 53.0478 148.661 53.4787 148.088C53.9096 147.51 54.473 147.061 55.169 146.739C55.8698 146.417 56.6392 146.256 57.4773 146.256C58.3769 146.256 59.1487 146.438 59.7926 146.803C60.4366 147.162 60.9313 147.638 61.277 148.23C61.6226 148.822 61.7955 149.461 61.7955 150.148C61.7955 150.967 61.58 151.665 61.1491 152.243C60.723 152.821 60.143 153.221 59.4091 153.443V153.557C60.3277 153.708 61.045 154.099 61.5611 154.729C62.0772 155.354 62.3352 156.128 62.3352 157.051C62.3352 157.842 62.1198 158.552 61.6889 159.182C61.2628 159.807 60.6804 160.299 59.9418 160.659C59.2031 161.019 58.3627 161.199 57.4205 161.199ZM66.4901 159.139C66.1397 159.139 65.839 159.014 65.5881 158.763C65.3371 158.512 65.2116 158.211 65.2116 157.861C65.2116 157.51 65.3371 157.21 65.5881 156.959C65.839 156.708 66.1397 156.582 66.4901 156.582C66.8404 156.582 67.1411 156.708 67.392 156.959C67.643 157.21 67.7685 157.51 67.7685 157.861C67.7685 158.093 67.7093 158.306 67.5909 158.5C67.4773 158.694 67.3234 158.85 67.1293 158.969C66.9399 159.082 66.7268 159.139 66.4901 159.139ZM66.4901 151.781C66.1397 151.781 65.839 151.656 65.5881 151.405C65.3371 151.154 65.2116 150.853 65.2116 150.503C65.2116 150.152 65.3371 149.852 65.5881 149.601C65.839 149.35 66.1397 149.224 66.4901 149.224C66.8404 149.224 67.1411 149.35 67.392 149.601C67.643 149.852 67.7685 150.152 67.7685 150.503C67.7685 150.735 67.7093 150.948 67.5909 151.142C67.4773 151.336 67.3234 151.492 67.1293 151.611C66.9399 151.724 66.7268 151.781 66.4901 151.781ZM70.407 158.017V156.568L76.799 146.455H77.8501V148.699H77.1399L72.3104 156.341V156.455H80.9183V158.017H70.407ZM77.2536 161V157.577V156.902V146.455H78.9297V161H77.2536ZM88.1254 161.199C87.292 161.199 86.5415 161.033 85.8739 160.702C85.2063 160.37 84.6713 159.916 84.2688 159.338C83.8664 158.76 83.6462 158.102 83.6083 157.364H85.3129C85.3791 158.022 85.6774 158.566 86.2077 158.997C86.7428 159.423 87.382 159.636 88.1254 159.636C88.7219 159.636 89.2522 159.497 89.7163 159.217C90.185 158.938 90.552 158.554 90.8171 158.067C91.087 157.574 91.2219 157.018 91.2219 156.398C91.2219 155.763 91.0823 155.197 90.8029 154.7C90.5283 154.198 90.1495 153.803 89.6665 153.514C89.1836 153.225 88.632 153.079 88.0117 153.074C87.5666 153.069 87.1097 153.138 86.641 153.28C86.1722 153.417 85.7863 153.595 85.4833 153.812L83.8356 153.614L84.7163 146.455H92.2731V148.017H86.1935L85.6822 152.307H85.7674C86.0657 152.07 86.4397 151.874 86.8896 151.717C87.3394 151.561 87.8081 151.483 88.2958 151.483C89.186 151.483 89.979 151.696 90.6751 152.122C91.3758 152.544 91.9251 153.121 92.3228 153.855C92.7253 154.589 92.9265 155.427 92.9265 156.369C92.9265 157.297 92.7182 158.126 92.3015 158.855C91.8896 159.58 91.3214 160.152 90.5969 160.574C89.8725 160.991 89.0487 161.199 88.1254 161.199ZM101.629 161V146.455H106.543C107.684 146.455 108.617 146.661 109.342 147.072C110.071 147.48 110.611 148.031 110.961 148.727C111.311 149.423 111.487 150.2 111.487 151.057C111.487 151.914 111.311 152.693 110.961 153.393C110.615 154.094 110.08 154.653 109.356 155.07C108.631 155.482 107.703 155.688 106.572 155.688H103.049V154.125H106.515C107.296 154.125 107.924 153.99 108.397 153.72C108.871 153.45 109.214 153.086 109.427 152.626C109.645 152.162 109.754 151.639 109.754 151.057C109.754 150.474 109.645 149.954 109.427 149.494C109.214 149.035 108.868 148.675 108.39 148.415C107.912 148.15 107.277 148.017 106.487 148.017H103.39V161H101.629ZM114.324 146.455H116.426L121.369 158.528H121.54L126.483 146.455H128.585V161H126.938V149.949H126.795L122.25 161H120.659L116.114 149.949H115.972V161H114.324V146.455Z" fill="black"/>
<path d="M54.5057 185V183.722L59.3068 178.466C59.8703 177.85 60.3343 177.315 60.6989 176.861C61.0634 176.402 61.3333 175.971 61.5085 175.568C61.6884 175.161 61.7784 174.735 61.7784 174.29C61.7784 173.778 61.6553 173.336 61.4091 172.962C61.1676 172.588 60.8362 172.299 60.4148 172.095C59.9934 171.892 59.5199 171.79 58.9943 171.79C58.4356 171.79 57.9479 171.906 57.5312 172.138C57.1193 172.365 56.7997 172.685 56.5724 173.097C56.3499 173.509 56.2386 173.991 56.2386 174.545H54.5625C54.5625 173.693 54.759 172.945 55.152 172.301C55.545 171.657 56.08 171.155 56.7571 170.795C57.4389 170.436 58.2036 170.256 59.0511 170.256C59.9034 170.256 60.6586 170.436 61.3168 170.795C61.9749 171.155 62.491 171.641 62.8651 172.251C63.2391 172.862 63.4261 173.542 63.4261 174.29C63.4261 174.825 63.3291 175.348 63.1349 175.859C62.9455 176.366 62.6141 176.932 62.1406 177.557C61.6719 178.177 61.0208 178.935 60.1875 179.83L56.9205 183.324V183.438H63.6818V185H54.5057ZM71.1605 185.199C70.3272 185.199 69.5767 185.033 68.9091 184.702C68.2415 184.37 67.7064 183.916 67.304 183.338C66.9015 182.76 66.6813 182.102 66.6435 181.364H68.348C68.4143 182.022 68.7126 182.566 69.2429 182.997C69.7779 183.423 70.4171 183.636 71.1605 183.636C71.7571 183.636 72.2874 183.497 72.7514 183.217C73.2202 182.938 73.5871 182.554 73.8523 182.067C74.1222 181.574 74.2571 181.018 74.2571 180.398C74.2571 179.763 74.1174 179.197 73.8381 178.7C73.5634 178.198 73.1847 177.803 72.7017 177.514C72.2188 177.225 71.6671 177.079 71.0469 177.074C70.6018 177.069 70.1449 177.138 69.6761 177.28C69.2074 177.417 68.8215 177.595 68.5185 177.812L66.8707 177.614L67.7514 170.455H75.3082V172.017H69.2287L68.7173 176.307H68.8026C69.1009 176.07 69.4749 175.874 69.9247 175.717C70.3745 175.561 70.8433 175.483 71.331 175.483C72.2211 175.483 73.0142 175.696 73.7102 176.122C74.411 176.544 74.9602 177.121 75.358 177.855C75.7604 178.589 75.9616 179.427 75.9616 180.369C75.9616 181.297 75.7533 182.126 75.3366 182.855C74.9247 183.58 74.3565 184.152 73.6321 184.574C72.9077 184.991 72.0838 185.199 71.1605 185.199ZM85.0614 176.946V178.509H78.6978V176.946H85.0614ZM92.5277 185.199C91.6944 185.199 90.9439 185.033 90.2763 184.702C89.6087 184.37 89.0736 183.916 88.6712 183.338C88.2687 182.76 88.0485 182.102 88.0107 181.364H89.7152C89.7815 182.022 90.0798 182.566 90.6101 182.997C91.1451 183.423 91.7843 183.636 92.5277 183.636C93.1243 183.636 93.6546 183.497 94.1186 183.217C94.5874 182.938 94.9543 182.554 95.2195 182.067C95.4893 181.574 95.6243 181.018 95.6243 180.398C95.6243 179.763 95.4846 179.197 95.2053 178.7C94.9306 178.198 94.5518 177.803 94.0689 177.514C93.5859 177.225 93.0343 177.079 92.4141 177.074C91.969 177.069 91.5121 177.138 91.0433 177.28C90.5746 177.417 90.1887 177.595 89.8857 177.812L88.2379 177.614L89.1186 170.455H96.6754V172.017H90.5959L90.0845 176.307H90.1697C90.468 176.07 90.8421 175.874 91.2919 175.717C91.7417 175.561 92.2105 175.483 92.6982 175.483C93.5883 175.483 94.3814 175.696 95.0774 176.122C95.7782 176.544 96.3274 177.121 96.7251 177.855C97.1276 178.589 97.3288 179.427 97.3288 180.369C97.3288 181.297 97.1205 182.126 96.7038 182.855C96.2919 183.58 95.7237 184.152 94.9993 184.574C94.2749 184.991 93.451 185.199 92.5277 185.199ZM106.429 176.946V178.509H100.065V176.946H106.429ZM114.463 170.455V185H112.702V172.301H112.616L109.065 174.659V172.869L112.702 170.455H114.463ZM118.305 182.017V180.568L124.697 170.455H125.749V172.699H125.038L120.209 180.341V180.455H128.817V182.017H118.305ZM125.152 185V181.577V180.902V170.455H126.828V185H125.152Z" fill="black"/>
<path d="M71.5341 345V334.091H73.2102V345H71.5341ZM72.3864 332.273C72.0597 332.273 71.7779 332.161 71.5412 331.939C71.3092 331.716 71.1932 331.449 71.1932 331.136C71.1932 330.824 71.3092 330.556 71.5412 330.334C71.7779 330.111 72.0597 330 72.3864 330C72.7131 330 72.9924 330.111 73.2244 330.334C73.4612 330.556 73.5795 330.824 73.5795 331.136C73.5795 331.449 73.4612 331.716 73.2244 331.939C72.9924 332.161 72.7131 332.273 72.3864 332.273ZM80.712 345.227C79.6893 345.227 78.8086 344.986 78.07 344.503C77.3313 344.02 76.7631 343.355 76.3654 342.507C75.9677 341.66 75.7688 340.691 75.7688 339.602C75.7688 338.494 75.9724 337.517 76.3796 336.669C76.7915 335.817 77.3645 335.152 78.0984 334.673C78.837 334.19 79.6987 333.949 80.6836 333.949C81.4506 333.949 82.1419 334.091 82.7575 334.375C83.373 334.659 83.8772 335.057 84.2702 335.568C84.6632 336.08 84.9071 336.676 85.0018 337.358H83.3256C83.1978 336.861 82.9137 336.42 82.4734 336.037C82.0378 335.649 81.4506 335.455 80.712 335.455C80.0586 335.455 79.4857 335.625 78.9933 335.966C78.5056 336.302 78.1244 336.778 77.8498 337.393C77.5799 338.004 77.445 338.722 77.445 339.545C77.445 340.388 77.5775 341.122 77.8427 341.747C78.1126 342.372 78.4914 342.857 78.979 343.203C79.4715 343.549 80.0491 343.722 80.712 343.722C81.1476 343.722 81.543 343.646 81.8981 343.494C82.2532 343.343 82.5539 343.125 82.8001 342.841C83.0463 342.557 83.2215 342.216 83.3256 341.818H85.0018C84.9071 342.462 84.6727 343.042 84.2987 343.558C83.9293 344.07 83.4393 344.477 82.8285 344.78C82.2224 345.078 81.5169 345.227 80.712 345.227ZM91.8839 345.227C90.899 345.227 90.0349 344.993 89.2915 344.524C88.5529 344.055 87.9753 343.4 87.5586 342.557C87.1467 341.714 86.9407 340.729 86.9407 339.602C86.9407 338.466 87.1467 337.474 87.5586 336.626C87.9753 335.779 88.5529 335.121 89.2915 334.652C90.0349 334.183 90.899 333.949 91.8839 333.949C92.8687 333.949 93.7305 334.183 94.4691 334.652C95.2125 335.121 95.7901 335.779 96.2021 336.626C96.6187 337.474 96.8271 338.466 96.8271 339.602C96.8271 340.729 96.6187 341.714 96.2021 342.557C95.7901 343.4 95.2125 344.055 94.4691 344.524C93.7305 344.993 92.8687 345.227 91.8839 345.227ZM91.8839 343.722C92.632 343.722 93.2475 343.53 93.7305 343.146C94.2134 342.763 94.5709 342.259 94.8029 341.634C95.0349 341.009 95.1509 340.331 95.1509 339.602C95.1509 338.873 95.0349 338.194 94.8029 337.564C94.5709 336.934 94.2134 336.425 93.7305 336.037C93.2475 335.649 92.632 335.455 91.8839 335.455C91.1358 335.455 90.5202 335.649 90.0373 336.037C89.5543 336.425 89.1969 336.934 88.9648 337.564C88.7328 338.194 88.6168 338.873 88.6168 339.602C88.6168 340.331 88.7328 341.009 88.9648 341.634C89.1969 342.259 89.5543 342.763 90.0373 343.146C90.5202 343.53 91.1358 343.722 91.8839 343.722ZM101.062 338.438V345H99.3857V334.091H101.005V335.795H101.147C101.403 335.241 101.791 334.796 102.312 334.46C102.833 334.119 103.505 333.949 104.329 333.949C105.067 333.949 105.714 334.1 106.268 334.403C106.822 334.702 107.253 335.156 107.56 335.767C107.868 336.373 108.022 337.14 108.022 338.068V345H106.346V338.182C106.346 337.325 106.123 336.657 105.678 336.179C105.233 335.696 104.622 335.455 103.846 335.455C103.311 335.455 102.833 335.571 102.411 335.803C101.995 336.035 101.665 336.373 101.424 336.818C101.183 337.263 101.062 337.803 101.062 338.438ZM115.369 330.455V345H113.608V332.301H113.523L109.972 334.659V332.869L113.608 330.455H115.369Z" fill="black"/>
<path d="M69.5341 642V631.091H71.2102V642H69.5341ZM70.3864 629.273C70.0597 629.273 69.7779 629.161 69.5412 628.939C69.3092 628.716 69.1932 628.449 69.1932 628.136C69.1932 627.824 69.3092 627.556 69.5412 627.334C69.7779 627.111 70.0597 627 70.3864 627C70.7131 627 70.9924 627.111 71.2244 627.334C71.4612 627.556 71.5795 627.824 71.5795 628.136C71.5795 628.449 71.4612 628.716 71.2244 628.939C70.9924 629.161 70.7131 629.273 70.3864 629.273ZM78.712 642.227C77.6893 642.227 76.8086 641.986 76.07 641.503C75.3313 641.02 74.7631 640.355 74.3654 639.507C73.9677 638.66 73.7688 637.691 73.7688 636.602C73.7688 635.494 73.9724 634.517 74.3796 633.669C74.7915 632.817 75.3645 632.152 76.0984 631.673C76.837 631.19 77.6987 630.949 78.6836 630.949C79.4506 630.949 80.1419 631.091 80.7575 631.375C81.373 631.659 81.8772 632.057 82.2702 632.568C82.6632 633.08 82.9071 633.676 83.0018 634.358H81.3256C81.1978 633.861 80.9137 633.42 80.4734 633.037C80.0378 632.649 79.4506 632.455 78.712 632.455C78.0586 632.455 77.4857 632.625 76.9933 632.966C76.5056 633.302 76.1244 633.778 75.8498 634.393C75.5799 635.004 75.445 635.722 75.445 636.545C75.445 637.388 75.5775 638.122 75.8427 638.747C76.1126 639.372 76.4914 639.857 76.979 640.203C77.4715 640.549 78.0491 640.722 78.712 640.722C79.1476 640.722 79.543 640.646 79.8981 640.494C80.2532 640.343 80.5539 640.125 80.8001 639.841C81.0463 639.557 81.2215 639.216 81.3256 638.818H83.0018C82.9071 639.462 82.6727 640.042 82.2987 640.558C81.9293 641.07 81.4393 641.477 80.8285 641.78C80.2224 642.078 79.5169 642.227 78.712 642.227ZM89.8839 642.227C88.899 642.227 88.0349 641.993 87.2915 641.524C86.5529 641.055 85.9753 640.4 85.5586 639.557C85.1467 638.714 84.9407 637.729 84.9407 636.602C84.9407 635.466 85.1467 634.474 85.5586 633.626C85.9753 632.779 86.5529 632.121 87.2915 631.652C88.0349 631.183 88.899 630.949 89.8839 630.949C90.8687 630.949 91.7305 631.183 92.4691 631.652C93.2125 632.121 93.7901 632.779 94.2021 633.626C94.6187 634.474 94.8271 635.466 94.8271 636.602C94.8271 637.729 94.6187 638.714 94.2021 639.557C93.7901 640.4 93.2125 641.055 92.4691 641.524C91.7305 641.993 90.8687 642.227 89.8839 642.227ZM89.8839 640.722C90.632 640.722 91.2475 640.53 91.7305 640.146C92.2134 639.763 92.5709 639.259 92.8029 638.634C93.0349 638.009 93.1509 637.331 93.1509 636.602C93.1509 635.873 93.0349 635.194 92.8029 634.564C92.5709 633.934 92.2134 633.425 91.7305 633.037C91.2475 632.649 90.632 632.455 89.8839 632.455C89.1358 632.455 88.5202 632.649 88.0373 633.037C87.5543 633.425 87.1969 633.934 86.9648 634.564C86.7328 635.194 86.6168 635.873 86.6168 636.602C86.6168 637.331 86.7328 638.009 86.9648 638.634C87.1969 639.259 87.5543 639.763 88.0373 640.146C88.5202 640.53 89.1358 640.722 89.8839 640.722ZM99.0618 635.438V642H97.3857V631.091H99.005V632.795H99.147C99.4027 632.241 99.791 631.796 100.312 631.46C100.833 631.119 101.505 630.949 102.329 630.949C103.067 630.949 103.714 631.1 104.268 631.403C104.822 631.702 105.253 632.156 105.56 632.767C105.868 633.373 106.022 634.14 106.022 635.068V642H104.346V635.182C104.346 634.325 104.123 633.657 103.678 633.179C103.233 632.696 102.622 632.455 101.846 632.455C101.311 632.455 100.833 632.571 100.411 632.803C99.9946 633.035 99.6655 633.373 99.424 633.818C99.1825 634.263 99.0618 634.803 99.0618 635.438ZM108.716 639.017V637.568L115.108 627.455H116.159V629.699H115.449L110.619 637.341V637.455H119.227V639.017H108.716ZM115.562 642V638.577V637.902V627.455H117.238V642H115.562Z" fill="black"/>
<path d="M70.5341 543V532.091H72.2102V543H70.5341ZM71.3864 530.273C71.0597 530.273 70.7779 530.161 70.5412 529.939C70.3092 529.716 70.1932 529.449 70.1932 529.136C70.1932 528.824 70.3092 528.556 70.5412 528.334C70.7779 528.111 71.0597 528 71.3864 528C71.7131 528 71.9924 528.111 72.2244 528.334C72.4612 528.556 72.5795 528.824 72.5795 529.136C72.5795 529.449 72.4612 529.716 72.2244 529.939C71.9924 530.161 71.7131 530.273 71.3864 530.273ZM79.712 543.227C78.6893 543.227 77.8086 542.986 77.07 542.503C76.3313 542.02 75.7631 541.355 75.3654 540.507C74.9677 539.66 74.7688 538.691 74.7688 537.602C74.7688 536.494 74.9724 535.517 75.3796 534.669C75.7915 533.817 76.3645 533.152 77.0984 532.673C77.837 532.19 78.6987 531.949 79.6836 531.949C80.4506 531.949 81.1419 532.091 81.7575 532.375C82.373 532.659 82.8772 533.057 83.2702 533.568C83.6632 534.08 83.9071 534.676 84.0018 535.358H82.3256C82.1978 534.861 81.9137 534.42 81.4734 534.037C81.0378 533.649 80.4506 533.455 79.712 533.455C79.0586 533.455 78.4857 533.625 77.9933 533.966C77.5056 534.302 77.1244 534.778 76.8498 535.393C76.5799 536.004 76.445 536.722 76.445 537.545C76.445 538.388 76.5775 539.122 76.8427 539.747C77.1126 540.372 77.4914 540.857 77.979 541.203C78.4715 541.549 79.0491 541.722 79.712 541.722C80.1476 541.722 80.543 541.646 80.8981 541.494C81.2532 541.343 81.5539 541.125 81.8001 540.841C82.0463 540.557 82.2215 540.216 82.3256 539.818H84.0018C83.9071 540.462 83.6727 541.042 83.2987 541.558C82.9293 542.07 82.4393 542.477 81.8285 542.78C81.2224 543.078 80.5169 543.227 79.712 543.227ZM90.8839 543.227C89.899 543.227 89.0349 542.993 88.2915 542.524C87.5529 542.055 86.9753 541.4 86.5586 540.557C86.1467 539.714 85.9407 538.729 85.9407 537.602C85.9407 536.466 86.1467 535.474 86.5586 534.626C86.9753 533.779 87.5529 533.121 88.2915 532.652C89.0349 532.183 89.899 531.949 90.8839 531.949C91.8687 531.949 92.7305 532.183 93.4691 532.652C94.2125 533.121 94.7901 533.779 95.2021 534.626C95.6187 535.474 95.8271 536.466 95.8271 537.602C95.8271 538.729 95.6187 539.714 95.2021 540.557C94.7901 541.4 94.2125 542.055 93.4691 542.524C92.7305 542.993 91.8687 543.227 90.8839 543.227ZM90.8839 541.722C91.632 541.722 92.2475 541.53 92.7305 541.146C93.2134 540.763 93.5709 540.259 93.8029 539.634C94.0349 539.009 94.1509 538.331 94.1509 537.602C94.1509 536.873 94.0349 536.194 93.8029 535.564C93.5709 534.934 93.2134 534.425 92.7305 534.037C92.2475 533.649 91.632 533.455 90.8839 533.455C90.1358 533.455 89.5202 533.649 89.0373 534.037C88.5543 534.425 88.1969 534.934 87.9648 535.564C87.7328 536.194 87.6168 536.873 87.6168 537.602C87.6168 538.331 87.7328 539.009 87.9648 539.634C88.1969 540.259 88.5543 540.763 89.0373 541.146C89.5202 541.53 90.1358 541.722 90.8839 541.722ZM100.062 536.438V543H98.3857V532.091H100.005V533.795H100.147C100.403 533.241 100.791 532.796 101.312 532.46C101.833 532.119 102.505 531.949 103.329 531.949C104.067 531.949 104.714 532.1 105.268 532.403C105.822 532.702 106.253 533.156 106.56 533.767C106.868 534.373 107.022 535.14 107.022 536.068V543H105.346V536.182C105.346 535.325 105.123 534.657 104.678 534.179C104.233 533.696 103.622 533.455 102.846 533.455C102.311 533.455 101.833 533.571 101.411 533.803C100.995 534.035 100.665 534.373 100.424 534.818C100.183 535.263 100.062 535.803 100.062 536.438ZM114.971 543.199C114.034 543.199 113.198 543.038 112.464 542.716C111.735 542.394 111.155 541.946 110.724 541.374C110.298 540.796 110.066 540.126 110.028 539.364H111.818C111.856 539.832 112.017 540.237 112.301 540.578C112.585 540.914 112.957 541.175 113.416 541.359C113.875 541.544 114.384 541.636 114.943 541.636C115.568 541.636 116.122 541.527 116.605 541.31C117.088 541.092 117.467 540.789 117.741 540.401C118.016 540.012 118.153 539.562 118.153 539.051C118.153 538.516 118.02 538.045 117.755 537.638C117.49 537.226 117.102 536.904 116.591 536.672C116.079 536.44 115.454 536.324 114.716 536.324H113.551V534.761H114.716C115.293 534.761 115.8 534.657 116.235 534.449C116.676 534.241 117.019 533.947 117.265 533.568C117.516 533.189 117.642 532.744 117.642 532.233C117.642 531.741 117.533 531.312 117.315 530.947C117.097 530.583 116.789 530.299 116.392 530.095C115.999 529.892 115.535 529.79 115 529.79C114.498 529.79 114.024 529.882 113.579 530.067C113.139 530.247 112.779 530.509 112.5 530.855C112.22 531.196 112.069 531.608 112.045 532.091H110.341C110.369 531.329 110.599 530.661 111.029 530.088C111.46 529.51 112.024 529.061 112.72 528.739C113.421 528.417 114.19 528.256 115.028 528.256C115.928 528.256 116.699 528.438 117.343 528.803C117.987 529.162 118.482 529.638 118.828 530.23C119.173 530.822 119.346 531.461 119.346 532.148C119.346 532.967 119.131 533.665 118.7 534.243C118.274 534.821 117.694 535.221 116.96 535.443V535.557C117.878 535.708 118.596 536.099 119.112 536.729C119.628 537.354 119.886 538.128 119.886 539.051C119.886 539.842 119.671 540.552 119.24 541.182C118.814 541.807 118.231 542.299 117.493 542.659C116.754 543.019 115.913 543.199 114.971 543.199Z" fill="black"/>
<path d="M70.5341 444V433.091H72.2102V444H70.5341ZM71.3864 431.273C71.0597 431.273 70.7779 431.161 70.5412 430.939C70.3092 430.716 70.1932 430.449 70.1932 430.136C70.1932 429.824 70.3092 429.556 70.5412 429.334C70.7779 429.111 71.0597 429 71.3864 429C71.7131 429 71.9924 429.111 72.2244 429.334C72.4612 429.556 72.5795 429.824 72.5795 430.136C72.5795 430.449 72.4612 430.716 72.2244 430.939C71.9924 431.161 71.7131 431.273 71.3864 431.273ZM79.712 444.227C78.6893 444.227 77.8086 443.986 77.07 443.503C76.3313 443.02 75.7631 442.355 75.3654 441.507C74.9677 440.66 74.7688 439.691 74.7688 438.602C74.7688 437.494 74.9724 436.517 75.3796 435.669C75.7915 434.817 76.3645 434.152 77.0984 433.673C77.837 433.19 78.6987 432.949 79.6836 432.949C80.4506 432.949 81.1419 433.091 81.7575 433.375C82.373 433.659 82.8772 434.057 83.2702 434.568C83.6632 435.08 83.9071 435.676 84.0018 436.358H82.3256C82.1978 435.861 81.9137 435.42 81.4734 435.037C81.0378 434.649 80.4506 434.455 79.712 434.455C79.0586 434.455 78.4857 434.625 77.9933 434.966C77.5056 435.302 77.1244 435.778 76.8498 436.393C76.5799 437.004 76.445 437.722 76.445 438.545C76.445 439.388 76.5775 440.122 76.8427 440.747C77.1126 441.372 77.4914 441.857 77.979 442.203C78.4715 442.549 79.0491 442.722 79.712 442.722C80.1476 442.722 80.543 442.646 80.8981 442.494C81.2532 442.343 81.5539 442.125 81.8001 441.841C82.0463 441.557 82.2215 441.216 82.3256 440.818H84.0018C83.9071 441.462 83.6727 442.042 83.2987 442.558C82.9293 443.07 82.4393 443.477 81.8285 443.78C81.2224 444.078 80.5169 444.227 79.712 444.227ZM90.8839 444.227C89.899 444.227 89.0349 443.993 88.2915 443.524C87.5529 443.055 86.9753 442.4 86.5586 441.557C86.1467 440.714 85.9407 439.729 85.9407 438.602C85.9407 437.466 86.1467 436.474 86.5586 435.626C86.9753 434.779 87.5529 434.121 88.2915 433.652C89.0349 433.183 89.899 432.949 90.8839 432.949C91.8687 432.949 92.7305 433.183 93.4691 433.652C94.2125 434.121 94.7901 434.779 95.2021 435.626C95.6187 436.474 95.8271 437.466 95.8271 438.602C95.8271 439.729 95.6187 440.714 95.2021 441.557C94.7901 442.4 94.2125 443.055 93.4691 443.524C92.7305 443.993 91.8687 444.227 90.8839 444.227ZM90.8839 442.722C91.632 442.722 92.2475 442.53 92.7305 442.146C93.2134 441.763 93.5709 441.259 93.8029 440.634C94.0349 440.009 94.1509 439.331 94.1509 438.602C94.1509 437.873 94.0349 437.194 93.8029 436.564C93.5709 435.934 93.2134 435.425 92.7305 435.037C92.2475 434.649 91.632 434.455 90.8839 434.455C90.1358 434.455 89.5202 434.649 89.0373 435.037C88.5543 435.425 88.1969 435.934 87.9648 436.564C87.7328 437.194 87.6168 437.873 87.6168 438.602C87.6168 439.331 87.7328 440.009 87.9648 440.634C88.1969 441.259 88.5543 441.763 89.0373 442.146C89.5202 442.53 90.1358 442.722 90.8839 442.722ZM100.062 437.438V444H98.3857V433.091H100.005V434.795H100.147C100.403 434.241 100.791 433.796 101.312 433.46C101.833 433.119 102.505 432.949 103.329 432.949C104.067 432.949 104.714 433.1 105.268 433.403C105.822 433.702 106.253 434.156 106.56 434.767C106.868 435.373 107.022 436.14 107.022 437.068V444H105.346V437.182C105.346 436.325 105.123 435.657 104.678 435.179C104.233 434.696 103.622 434.455 102.846 434.455C102.311 434.455 101.833 434.571 101.411 434.803C100.995 435.035 100.665 435.373 100.424 435.818C100.183 436.263 100.062 436.803 100.062 437.438ZM110.056 444V442.722L114.858 437.466C115.421 436.85 115.885 436.315 116.25 435.861C116.614 435.402 116.884 434.971 117.059 434.568C117.239 434.161 117.329 433.735 117.329 433.29C117.329 432.778 117.206 432.336 116.96 431.962C116.718 431.588 116.387 431.299 115.966 431.095C115.544 430.892 115.071 430.79 114.545 430.79C113.986 430.79 113.499 430.906 113.082 431.138C112.67 431.365 112.35 431.685 112.123 432.097C111.901 432.509 111.789 432.991 111.789 433.545H110.113C110.113 432.693 110.31 431.945 110.703 431.301C111.096 430.657 111.631 430.155 112.308 429.795C112.99 429.436 113.754 429.256 114.602 429.256C115.454 429.256 116.209 429.436 116.868 429.795C117.526 430.155 118.042 430.641 118.416 431.251C118.79 431.862 118.977 432.542 118.977 433.29C118.977 433.825 118.88 434.348 118.686 434.859C118.496 435.366 118.165 435.932 117.691 436.557C117.223 437.177 116.572 437.935 115.738 438.83L112.471 442.324V442.438H119.233V444H110.056Z" fill="black"/>
<defs>
<filter id="filter0_d_17_251" x="0.0999985" y="0.0999985" width="185.8" height="1100.8" filterUnits="userSpaceOnUse" color-interpolation-filters="sRGB">
<feFlood flood-opacity="0" result="BackgroundImageFix"/>
<feColorMatrix in="SourceAlpha" type="matrix" values="0 0 0 0 0 0 0 0 0 0 0 0 0 0 0 0 0 0 127 0" result="hardAlpha"/>
<feOffset/>
<feGaussianBlur stdDeviation="22.45"/>
<feComposite in2="hardAlpha" operator="out"/>
<feColorMatrix type="matrix" values="0 0 0 0 1 0 0 0 0 1 0 0 0 0 1 0 0 0 1 0"/>
<feBlend mode="normal" in2="BackgroundImageFix" result="effect1_dropShadow_17_251"/>
<feBlend mode="normal" in="SourceGraphic" in2="effect1_dropShadow_17_251" result="shape"/>
</filter>
<filter id="filter1_d_17_251" x="28.9691" y="29.1028" width="127.505" height="127.237" filterUnits="userSpaceOnUse" color-interpolation-filters="sRGB">
<feFlood flood-opacity="0" result="BackgroundImageFix"/>
<feColorMatrix in="SourceAlpha" type="matrix" values="0 0 0 0 0 0 0 0 0 0 0 0 0 0 0 0 0 0 127 0" result="hardAlpha"/>
<feOffset/>
<feGaussianBlur stdDeviation="22.45"/>
<feComposite in2="hardAlpha" operator="out"/>
<feColorMatrix type="matrix" values="0 0 0 0 1 0 0 0 0 1 0 0 0 0 1 0 0 0 1 0"/>
<feBlend mode="normal" in2="BackgroundImageFix" result="effect1_dropShadow_17_251"/>
<feBlend mode="normal" in="SourceGraphic" in2="effect1_dropShadow_17_251" result="shape"/>
</filter>
<filter id="filter2_d_17_251" x="37.9702" y="6.9078" width="109.369" height="106.747" filterUnits="userSpaceOnUse" color-interpolation-filters="sRGB">
<feFlood flood-opacity="0" result="BackgroundImageFix"/>
<feColorMatrix in="SourceAlpha" type="matrix" values="0 0 0 0 0 0 0 0 0 0 0 0 0 0 0 0 0 0 127 0" result="hardAlpha"/>
<feOffset/>
<feGaussianBlur stdDeviation="22.45"/>
<feComposite in2="hardAlpha" operator="out"/>
<feColorMatrix type="matrix" values="0 0 0 0 1 0 0 0 0 1 0 0 0 0 1 0 0 0 1 0"/>
<feBlend mode="normal" in2="BackgroundImageFix" result="effect1_dropShadow_17_251"/>
<feBlend mode="normal" in="SourceGraphic" in2="effect1_dropShadow_17_251" result="shape"/>
</filter>
<filter id="filter3_d_17_251" x="63.6321" y="28.0571" width="109.369" height="106.747" filterUnits="userSpaceOnUse" color-interpolation-filters="sRGB">
<feFlood flood-opacity="0" result="BackgroundImageFix"/>
<feColorMatrix in="SourceAlpha" type="matrix" values="0 0 0 0 0 0 0 0 0 0 0 0 0 0 0 0 0 0 127 0" result="hardAlpha"/>
<feOffset/>
<feGaussianBlur stdDeviation="22.45"/>
<feComposite in2="hardAlpha" operator="out"/>
<feColorMatrix type="matrix" values="0 0 0 0 1 0 0 0 0 1 0 0 0 0 1 0 0 0 1 0"/>
<feBlend mode="normal" in2="BackgroundImageFix" result="effect1_dropShadow_17_251"/>
<feBlend mode="normal" in="SourceGraphic" in2="effect1_dropShadow_17_251" result="shape"/>
</filter>
<filter id="filter4_d_17_251" x="63.632" y="51.9568" width="109.369" height="106.747" filterUnits="userSpaceOnUse" color-interpolation-filters="sRGB">
<feFlood flood-opacity="0" result="BackgroundImageFix"/>
<feColorMatrix in="SourceAlpha" type="matrix" values="0 0 0 0 0 0 0 0 0 0 0 0 0 0 0 0 0 0 127 0" result="hardAlpha"/>
<feOffset/>
<feGaussianBlur stdDeviation="22.45"/>
<feComposite in2="hardAlpha" operator="out"/>
<feColorMatrix type="matrix" values="0 0 0 0 1 0 0 0 0 1 0 0 0 0 1 0 0 0 1 0"/>
<feBlend mode="normal" in2="BackgroundImageFix" result="effect1_dropShadow_17_251"/>
<feBlend mode="normal" in="SourceGraphic" in2="effect1_dropShadow_17_251" result="shape"/>
</filter>
<filter id="filter5_d_17_251" x="12.1557" y="27.5223" width="109.369" height="106.747" filterUnits="userSpaceOnUse" color-interpolation-filters="sRGB">
<feFlood flood-opacity="0" result="BackgroundImageFix"/>
<feColorMatrix in="SourceAlpha" type="matrix" values="0 0 0 0 0 0 0 0 0 0 0 0 0 0 0 0 0 0 127 0" result="hardAlpha"/>
<feOffset/>
<feGaussianBlur stdDeviation="22.45"/>
<feComposite in2="hardAlpha" operator="out"/>
<feColorMatrix type="matrix" values="0 0 0 0 1 0 0 0 0 1 0 0 0 0 1 0 0 0 1 0"/>
<feBlend mode="normal" in2="BackgroundImageFix" result="effect1_dropShadow_17_251"/>
<feBlend mode="normal" in="SourceGraphic" in2="effect1_dropShadow_17_251" result="shape"/>
</filter>
<filter id="filter6_d_17_251" x="12.1557" y="51.9568" width="109.369" height="106.747" filterUnits="userSpaceOnUse" color-interpolation-filters="sRGB">
<feFlood flood-opacity="0" result="BackgroundImageFix"/>
<feColorMatrix in="SourceAlpha" type="matrix" values="0 0 0 0 0 0 0 0 0 0 0 0 0 0 0 0 0 0 127 0" result="hardAlpha"/>
<feOffset/>
<feGaussianBlur stdDeviation="22.45"/>
<feComposite in2="hardAlpha" operator="out"/>
<feColorMatrix type="matrix" values="0 0 0 0 1 0 0 0 0 1 0 0 0 0 1 0 0 0 1 0"/>
<feBlend mode="normal" in2="BackgroundImageFix" result="effect1_dropShadow_17_251"/>
<feBlend mode="normal" in="SourceGraphic" in2="effect1_dropShadow_17_251" result="shape"/>
</filter>
<filter id="filter7_d_17_251" x="37.9702" y="73.1251" width="109.369" height="106.747" filterUnits="userSpaceOnUse" color-interpolation-filters="sRGB">
<feFlood flood-opacity="0" result="BackgroundImageFix"/>
<feColorMatrix in="SourceAlpha" type="matrix" values="0 0 0 0 0 0 0 0 0 0 0 0 0 0 0 0 0 0 127 0" result="hardAlpha"/>
<feOffset/>
<feGaussianBlur stdDeviation="22.45"/>
<feComposite in2="hardAlpha" operator="out"/>
<feColorMatrix type="matrix" values="0 0 0 0 1 0 0 0 0 1 0 0 0 0 1 0 0 0 1 0"/>
<feBlend mode="normal" in2="BackgroundImageFix" result="effect1_dropShadow_17_251"/>
<feBlend mode="normal" in="SourceGraphic" in2="effect1_dropShadow_17_251" result="shape"/>
</filter>
<filter id="filter8_d_17_251" x="0.0999985" y="0.0999985" width="185.8" height="1100.8" filterUnits="userSpaceOnUse" color-interpolation-filters="sRGB">
<feFlood flood-opacity="0" result="BackgroundImageFix"/>
<feColorMatrix in="SourceAlpha" type="matrix" values="0 0 0 0 0 0 0 0 0 0 0 0 0 0 0 0 0 0 127 0" result="hardAlpha"/>
<feOffset/>
<feGaussianBlur stdDeviation="22.45"/>
<feComposite in2="hardAlpha" operator="out"/>
<feColorMatrix type="matrix" values="0 0 0 0 1 0 0 0 0 1 0 0 0 0 1 0 0 0 1 0"/>
<feBlend mode="normal" in2="BackgroundImageFix" result="effect1_dropShadow_17_251"/>
<feBlend mode="normal" in="SourceGraphic" in2="effect1_dropShadow_17_251" result="shape"/>
</filter>
<filter id="filter9_d_17_251" x="28.9691" y="29.1028" width="127.505" height="127.237" filterUnits="userSpaceOnUse" color-interpolation-filters="sRGB">
<feFlood flood-opacity="0" result="BackgroundImageFix"/>
<feColorMatrix in="SourceAlpha" type="matrix" values="0 0 0 0 0 0 0 0 0 0 0 0 0 0 0 0 0 0 127 0" result="hardAlpha"/>
<feOffset/>
<feGaussianBlur stdDeviation="22.45"/>
<feComposite in2="hardAlpha" operator="out"/>
<feColorMatrix type="matrix" values="0 0 0 0 1 0 0 0 0 1 0 0 0 0 1 0 0 0 1 0"/>
<feBlend mode="normal" in2="BackgroundImageFix" result="effect1_dropShadow_17_251"/>
<feBlend mode="normal" in="SourceGraphic" in2="effect1_dropShadow_17_251" result="shape"/>
</filter>
<filter id="filter10_d_17_251" x="37.9702" y="6.9078" width="109.369" height="106.747" filterUnits="userSpaceOnUse" color-interpolation-filters="sRGB">
<feFlood flood-opacity="0" result="BackgroundImageFix"/>
<feColorMatrix in="SourceAlpha" type="matrix" values="0 0 0 0 0 0 0 0 0 0 0 0 0 0 0 0 0 0 127 0" result="hardAlpha"/>
<feOffset/>
<feGaussianBlur stdDeviation="22.45"/>
<feComposite in2="hardAlpha" operator="out"/>
<feColorMatrix type="matrix" values="0 0 0 0 1 0 0 0 0 1 0 0 0 0 1 0 0 0 1 0"/>
<feBlend mode="normal" in2="BackgroundImageFix" result="effect1_dropShadow_17_251"/>
<feBlend mode="normal" in="SourceGraphic" in2="effect1_dropShadow_17_251" result="shape"/>
</filter>
<filter id="filter11_d_17_251" x="63.6321" y="28.0571" width="109.369" height="106.747" filterUnits="userSpaceOnUse" color-interpolation-filters="sRGB">
<feFlood flood-opacity="0" result="BackgroundImageFix"/>
<feColorMatrix in="SourceAlpha" type="matrix" values="0 0 0 0 0 0 0 0 0 0 0 0 0 0 0 0 0 0 127 0" result="hardAlpha"/>
<feOffset/>
<feGaussianBlur stdDeviation="22.45"/>
<feComposite in2="hardAlpha" operator="out"/>
<feColorMatrix type="matrix" values="0 0 0 0 1 0 0 0 0 1 0 0 0 0 1 0 0 0 1 0"/>
<feBlend mode="normal" in2="BackgroundImageFix" result="effect1_dropShadow_17_251"/>
<feBlend mode="normal" in="SourceGraphic" in2="effect1_dropShadow_17_251" result="shape"/>
</filter>
<filter id="filter12_d_17_251" x="63.632" y="51.9568" width="109.369" height="106.747" filterUnits="userSpaceOnUse" color-interpolation-filters="sRGB">
<feFlood flood-opacity="0" result="BackgroundImageFix"/>
<feColorMatrix in="SourceAlpha" type="matrix" values="0 0 0 0 0 0 0 0 0 0 0 0 0 0 0 0 0 0 127 0" result="hardAlpha"/>
<feOffset/>
<feGaussianBlur stdDeviation="22.45"/>
<feComposite in2="hardAlpha" operator="out"/>
<feColorMatrix type="matrix" values="0 0 0 0 1 0 0 0 0 1 0 0 0 0 1 0 0 0 1 0"/>
<feBlend mode="normal" in2="BackgroundImageFix" result="effect1_dropShadow_17_251"/>
<feBlend mode="normal" in="SourceGraphic" in2="effect1_dropShadow_17_251" result="shape"/>
</filter>
<filter id="filter13_d_17_251" x="12.1557" y="27.5223" width="109.369" height="106.747" filterUnits="userSpaceOnUse" color-interpolation-filters="sRGB">
<feFlood flood-opacity="0" result="BackgroundImageFix"/>
<feColorMatrix in="SourceAlpha" type="matrix" values="0 0 0 0 0 0 0 0 0 0 0 0 0 0 0 0 0 0 127 0" result="hardAlpha"/>
<feOffset/>
<feGaussianBlur stdDeviation="22.45"/>
<feComposite in2="hardAlpha" operator="out"/>
<feColorMatrix type="matrix" values="0 0 0 0 1 0 0 0 0 1 0 0 0 0 1 0 0 0 1 0"/>
<feBlend mode="normal" in2="BackgroundImageFix" result="effect1_dropShadow_17_251"/>
<feBlend mode="normal" in="SourceGraphic" in2="effect1_dropShadow_17_251" result="shape"/>
</filter>
<filter id="filter14_d_17_251" x="12.1557" y="51.9568" width="109.369" height="106.747" filterUnits="userSpaceOnUse" color-interpolation-filters="sRGB">
<feFlood flood-opacity="0" result="BackgroundImageFix"/>
<feColorMatrix in="SourceAlpha" type="matrix" values="0 0 0 0 0 0 0 0 0 0 0 0 0 0 0 0 0 0 127 0" result="hardAlpha"/>
<feOffset/>
<feGaussianBlur stdDeviation="22.45"/>
<feComposite in2="hardAlpha" operator="out"/>
<feColorMatrix type="matrix" values="0 0 0 0 1 0 0 0 0 1 0 0 0 0 1 0 0 0 1 0"/>
<feBlend mode="normal" in2="BackgroundImageFix" result="effect1_dropShadow_17_251"/>
<feBlend mode="normal" in="SourceGraphic" in2="effect1_dropShadow_17_251" result="shape"/>
</filter>
<filter id="filter15_d_17_251" x="37.9702" y="73.1251" width="109.369" height="106.747" filterUnits="userSpaceOnUse" color-interpolation-filters="sRGB">
<feFlood flood-opacity="0" result="BackgroundImageFix"/>
<feColorMatrix in="SourceAlpha" type="matrix" values="0 0 0 0 0 0 0 0 0 0 0 0 0 0 0 0 0 0 127 0" result="hardAlpha"/>
<feOffset/>
<feGaussianBlur stdDeviation="22.45"/>
<feComposite in2="hardAlpha" operator="out"/>
<feColorMatrix type="matrix" values="0 0 0 0 1 0 0 0 0 1 0 0 0 0 1 0 0 0 1 0"/>
<feBlend mode="normal" in2="BackgroundImageFix" result="effect1_dropShadow_17_251"/>
<feBlend mode="normal" in="SourceGraphic" in2="effect1_dropShadow_17_251" result="shape"/>
</filter>
</defs>
</svg>
