<svg width="1935" height="1123" viewBox="0 0 1935 1123" fill="none" xmlns="http://www.w3.org/2000/svg">
<rect x="15" y="33" width="1920" height="1080" fill="#D9D9D9"/>
<g filter="url(#filter0_d_20_290)">
<rect x="45" y="67" width="96" height="1011" rx="48" fill="white"/>
</g>
<circle cx="92.7215" cy="114.721" r="43.7215" fill="#D9D9D9"/>
<g filter="url(#filter1_d_20_290)">
<ellipse cx="92.7215" cy="114.721" rx="18.8524" ry="18.7187" fill="white"/>
</g>
<g filter="url(#filter2_d_20_290)">
<path d="M92.6546 73.8079L102.439 90.7549H82.8702L92.6546 73.8079Z" fill="white"/>
</g>
<g filter="url(#filter3_d_20_290)">
<path d="M108.532 94.9571L128.101 94.9571L118.316 111.904L108.532 94.9571Z" fill="white"/>
</g>
<g filter="url(#filter4_d_20_290)">
<path d="M108.532 135.804L118.316 118.857L128.101 135.804L108.532 135.804Z" fill="white"/>
</g>
<g filter="url(#filter5_d_20_290)">
<path d="M57.0558 94.4223L76.6246 94.4223L66.8402 111.369L57.0558 94.4223Z" fill="white"/>
</g>
<g filter="url(#filter6_d_20_290)">
<path d="M57.0557 135.804L66.8401 118.857L76.6245 135.804L57.0557 135.804Z" fill="white"/>
</g>
<g filter="url(#filter7_d_20_290)">
<path d="M92.6546 156.972L82.8702 140.025H102.439L92.6546 156.972Z" fill="white"/>
</g>
<circle cx="92.7215" cy="359.721" r="43.7215" fill="#D9D9D9"/>
<circle cx="92.7215" cy="458.721" r="43.7215" fill="#D9D9D9"/>
<circle cx="92.7215" cy="656.721" r="43.7215" fill="#D9D9D9"/>
<circle cx="92.7215" cy="557.721" r="43.7215" fill="#D9D9D9"/>
<circle cx="63.5" cy="236.5" r="12.5" fill="#D9D9D9"/>
<circle cx="63.5" cy="267.5" r="12.5" fill="#D9D9D9"/>
<circle cx="93.5" cy="267.5" r="12.5" fill="#D9D9D9"/>
<circle cx="123.5" cy="267.5" r="12.5" fill="#D9D9D9"/>
<circle cx="93.5" cy="236.5" r="12.5" fill="#D9D9D9"/>
<circle cx="123.5" cy="236.5" r="12.5" fill="#D9D9D9"/>
<path d="M57.4205 183.199C56.483 183.199 55.6473 183.038 54.9134 182.716C54.1842 182.394 53.6042 181.946 53.1733 181.374C52.7472 180.796 52.5152 180.126 52.4773 179.364H54.267C54.3049 179.832 54.4659 180.237 54.75 180.578C55.0341 180.914 55.4058 181.175 55.8651 181.359C56.3243 181.544 56.8333 181.636 57.392 181.636C58.017 181.636 58.571 181.527 59.054 181.31C59.5369 181.092 59.9157 180.789 60.1903 180.401C60.465 180.012 60.6023 179.562 60.6023 179.051C60.6023 178.516 60.4697 178.045 60.2045 177.638C59.9394 177.226 59.5511 176.904 59.0398 176.672C58.5284 176.44 57.9034 176.324 57.1648 176.324H56V174.761H57.1648C57.7424 174.761 58.2491 174.657 58.6847 174.449C59.125 174.241 59.4683 173.947 59.7145 173.568C59.9654 173.189 60.0909 172.744 60.0909 172.233C60.0909 171.741 59.982 171.312 59.7642 170.947C59.5464 170.583 59.2386 170.299 58.8409 170.095C58.4479 169.892 57.9839 169.79 57.4489 169.79C56.947 169.79 56.4735 169.882 56.0284 170.067C55.5881 170.247 55.2282 170.509 54.9489 170.855C54.6695 171.196 54.518 171.608 54.4943 172.091H52.7898C52.8182 171.329 53.0478 170.661 53.4787 170.088C53.9096 169.51 54.473 169.061 55.169 168.739C55.8698 168.417 56.6392 168.256 57.4773 168.256C58.3769 168.256 59.1487 168.438 59.7926 168.803C60.4366 169.162 60.9313 169.638 61.277 170.23C61.6226 170.822 61.7955 171.461 61.7955 172.148C61.7955 172.967 61.58 173.665 61.1491 174.243C60.723 174.821 60.143 175.221 59.4091 175.443V175.557C60.3277 175.708 61.045 176.099 61.5611 176.729C62.0772 177.354 62.3352 178.128 62.3352 179.051C62.3352 179.842 62.1198 180.552 61.6889 181.182C61.2628 181.807 60.6804 182.299 59.9418 182.659C59.2031 183.019 58.3627 183.199 57.4205 183.199ZM66.4901 181.139C66.1397 181.139 65.839 181.014 65.5881 180.763C65.3371 180.512 65.2116 180.211 65.2116 179.861C65.2116 179.51 65.3371 179.21 65.5881 178.959C65.839 178.708 66.1397 178.582 66.4901 178.582C66.8404 178.582 67.1411 178.708 67.392 178.959C67.643 179.21 67.7685 179.51 67.7685 179.861C67.7685 180.093 67.7093 180.306 67.5909 180.5C67.4773 180.694 67.3234 180.85 67.1293 180.969C66.9399 181.082 66.7268 181.139 66.4901 181.139ZM66.4901 173.781C66.1397 173.781 65.839 173.656 65.5881 173.405C65.3371 173.154 65.2116 172.853 65.2116 172.503C65.2116 172.152 65.3371 171.852 65.5881 171.601C65.839 171.35 66.1397 171.224 66.4901 171.224C66.8404 171.224 67.1411 171.35 67.392 171.601C67.643 171.852 67.7685 172.152 67.7685 172.503C67.7685 172.735 67.7093 172.948 67.5909 173.142C67.4773 173.336 67.3234 173.492 67.1293 173.611C66.9399 173.724 66.7268 173.781 66.4901 173.781ZM70.407 180.017V178.568L76.799 168.455H77.8501V170.699H77.1399L72.3104 178.341V178.455H80.9183V180.017H70.407ZM77.2536 183V179.577V178.902V168.455H78.9297V183H77.2536ZM88.1254 183.199C87.292 183.199 86.5415 183.033 85.8739 182.702C85.2063 182.37 84.6713 181.916 84.2688 181.338C83.8664 180.76 83.6462 180.102 83.6083 179.364H85.3129C85.3791 180.022 85.6774 180.566 86.2077 180.997C86.7428 181.423 87.382 181.636 88.1254 181.636C88.7219 181.636 89.2522 181.497 89.7163 181.217C90.185 180.938 90.552 180.554 90.8171 180.067C91.087 179.574 91.2219 179.018 91.2219 178.398C91.2219 177.763 91.0823 177.197 90.8029 176.7C90.5283 176.198 90.1495 175.803 89.6665 175.514C89.1836 175.225 88.632 175.079 88.0117 175.074C87.5666 175.069 87.1097 175.138 86.641 175.28C86.1722 175.417 85.7863 175.595 85.4833 175.812L83.8356 175.614L84.7163 168.455H92.2731V170.017H86.1935L85.6822 174.307H85.7674C86.0657 174.07 86.4397 173.874 86.8896 173.717C87.3394 173.561 87.8081 173.483 88.2958 173.483C89.186 173.483 89.979 173.696 90.6751 174.122C91.3758 174.544 91.9251 175.121 92.3228 175.855C92.7253 176.589 92.9265 177.427 92.9265 178.369C92.9265 179.297 92.7182 180.126 92.3015 180.855C91.8896 181.58 91.3214 182.152 90.5969 182.574C89.8725 182.991 89.0487 183.199 88.1254 183.199ZM101.629 183V168.455H106.543C107.684 168.455 108.617 168.661 109.342 169.072C110.071 169.48 110.611 170.031 110.961 170.727C111.311 171.423 111.487 172.2 111.487 173.057C111.487 173.914 111.311 174.693 110.961 175.393C110.615 176.094 110.08 176.653 109.356 177.07C108.631 177.482 107.703 177.688 106.572 177.688H103.049V176.125H106.515C107.296 176.125 107.924 175.99 108.397 175.72C108.871 175.45 109.214 175.086 109.427 174.626C109.645 174.162 109.754 173.639 109.754 173.057C109.754 172.474 109.645 171.954 109.427 171.494C109.214 171.035 108.868 170.675 108.39 170.415C107.912 170.15 107.277 170.017 106.487 170.017H103.39V183H101.629ZM114.324 168.455H116.426L121.369 180.528H121.54L126.483 168.455H128.585V183H126.938V171.949H126.795L122.25 183H120.659L116.114 171.949H115.972V183H114.324V168.455Z" fill="black"/>
<path d="M54.5057 207V205.722L59.3068 200.466C59.8703 199.85 60.3343 199.315 60.6989 198.861C61.0634 198.402 61.3333 197.971 61.5085 197.568C61.6884 197.161 61.7784 196.735 61.7784 196.29C61.7784 195.778 61.6553 195.336 61.4091 194.962C61.1676 194.588 60.8362 194.299 60.4148 194.095C59.9934 193.892 59.5199 193.79 58.9943 193.79C58.4356 193.79 57.9479 193.906 57.5312 194.138C57.1193 194.365 56.7997 194.685 56.5724 195.097C56.3499 195.509 56.2386 195.991 56.2386 196.545H54.5625C54.5625 195.693 54.759 194.945 55.152 194.301C55.545 193.657 56.08 193.155 56.7571 192.795C57.4389 192.436 58.2036 192.256 59.0511 192.256C59.9034 192.256 60.6586 192.436 61.3168 192.795C61.9749 193.155 62.491 193.641 62.8651 194.251C63.2391 194.862 63.4261 195.542 63.4261 196.29C63.4261 196.825 63.3291 197.348 63.1349 197.859C62.9455 198.366 62.6141 198.932 62.1406 199.557C61.6719 200.177 61.0208 200.935 60.1875 201.83L56.9205 205.324V205.438H63.6818V207H54.5057ZM71.1605 207.199C70.3272 207.199 69.5767 207.033 68.9091 206.702C68.2415 206.37 67.7064 205.916 67.304 205.338C66.9015 204.76 66.6813 204.102 66.6435 203.364H68.348C68.4143 204.022 68.7126 204.566 69.2429 204.997C69.7779 205.423 70.4171 205.636 71.1605 205.636C71.7571 205.636 72.2874 205.497 72.7514 205.217C73.2202 204.938 73.5871 204.554 73.8523 204.067C74.1222 203.574 74.2571 203.018 74.2571 202.398C74.2571 201.763 74.1174 201.197 73.8381 200.7C73.5634 200.198 73.1847 199.803 72.7017 199.514C72.2188 199.225 71.6671 199.079 71.0469 199.074C70.6018 199.069 70.1449 199.138 69.6761 199.28C69.2074 199.417 68.8215 199.595 68.5185 199.812L66.8707 199.614L67.7514 192.455H75.3082V194.017H69.2287L68.7173 198.307H68.8026C69.1009 198.07 69.4749 197.874 69.9247 197.717C70.3745 197.561 70.8433 197.483 71.331 197.483C72.2211 197.483 73.0142 197.696 73.7102 198.122C74.411 198.544 74.9602 199.121 75.358 199.855C75.7604 200.589 75.9616 201.427 75.9616 202.369C75.9616 203.297 75.7533 204.126 75.3366 204.855C74.9247 205.58 74.3565 206.152 73.6321 206.574C72.9077 206.991 72.0838 207.199 71.1605 207.199ZM85.0614 198.946V200.509H78.6978V198.946H85.0614ZM92.5277 207.199C91.6944 207.199 90.9439 207.033 90.2763 206.702C89.6087 206.37 89.0736 205.916 88.6712 205.338C88.2687 204.76 88.0485 204.102 88.0107 203.364H89.7152C89.7815 204.022 90.0798 204.566 90.6101 204.997C91.1451 205.423 91.7843 205.636 92.5277 205.636C93.1243 205.636 93.6546 205.497 94.1186 205.217C94.5874 204.938 94.9543 204.554 95.2195 204.067C95.4893 203.574 95.6243 203.018 95.6243 202.398C95.6243 201.763 95.4846 201.197 95.2053 200.7C94.9306 200.198 94.5518 199.803 94.0689 199.514C93.5859 199.225 93.0343 199.079 92.4141 199.074C91.969 199.069 91.5121 199.138 91.0433 199.28C90.5746 199.417 90.1887 199.595 89.8857 199.812L88.2379 199.614L89.1186 192.455H96.6754V194.017H90.5959L90.0845 198.307H90.1697C90.468 198.07 90.8421 197.874 91.2919 197.717C91.7417 197.561 92.2105 197.483 92.6982 197.483C93.5883 197.483 94.3814 197.696 95.0774 198.122C95.7782 198.544 96.3274 199.121 96.7251 199.855C97.1276 200.589 97.3288 201.427 97.3288 202.369C97.3288 203.297 97.1205 204.126 96.7038 204.855C96.2919 205.58 95.7237 206.152 94.9993 206.574C94.2749 206.991 93.451 207.199 92.5277 207.199ZM106.429 198.946V200.509H100.065V198.946H106.429ZM114.463 192.455V207H112.702V194.301H112.616L109.065 196.659V194.869L112.702 192.455H114.463ZM118.305 204.017V202.568L124.697 192.455H125.749V194.699H125.038L120.209 202.341V202.455H128.817V204.017H118.305ZM125.152 207V203.577V202.902V192.455H126.828V207H125.152Z" fill="black"/>
<path d="M71.5341 367V356.091H73.2102V367H71.5341ZM72.3864 354.273C72.0597 354.273 71.7779 354.161 71.5412 353.939C71.3092 353.716 71.1932 353.449 71.1932 353.136C71.1932 352.824 71.3092 352.556 71.5412 352.334C71.7779 352.111 72.0597 352 72.3864 352C72.7131 352 72.9924 352.111 73.2244 352.334C73.4612 352.556 73.5795 352.824 73.5795 353.136C73.5795 353.449 73.4612 353.716 73.2244 353.939C72.9924 354.161 72.7131 354.273 72.3864 354.273ZM80.712 367.227C79.6893 367.227 78.8086 366.986 78.07 366.503C77.3313 366.02 76.7631 365.355 76.3654 364.507C75.9677 363.66 75.7688 362.691 75.7688 361.602C75.7688 360.494 75.9724 359.517 76.3796 358.669C76.7915 357.817 77.3645 357.152 78.0984 356.673C78.837 356.19 79.6987 355.949 80.6836 355.949C81.4506 355.949 82.1419 356.091 82.7575 356.375C83.373 356.659 83.8772 357.057 84.2702 357.568C84.6632 358.08 84.9071 358.676 85.0018 359.358H83.3256C83.1978 358.861 82.9137 358.42 82.4734 358.037C82.0378 357.649 81.4506 357.455 80.712 357.455C80.0586 357.455 79.4857 357.625 78.9933 357.966C78.5056 358.302 78.1244 358.778 77.8498 359.393C77.5799 360.004 77.445 360.722 77.445 361.545C77.445 362.388 77.5775 363.122 77.8427 363.747C78.1126 364.372 78.4914 364.857 78.979 365.203C79.4715 365.549 80.0491 365.722 80.712 365.722C81.1476 365.722 81.543 365.646 81.8981 365.494C82.2532 365.343 82.5539 365.125 82.8001 364.841C83.0463 364.557 83.2215 364.216 83.3256 363.818H85.0018C84.9071 364.462 84.6727 365.042 84.2987 365.558C83.9293 366.07 83.4393 366.477 82.8285 366.78C82.2224 367.078 81.5169 367.227 80.712 367.227ZM91.8839 367.227C90.899 367.227 90.0349 366.993 89.2915 366.524C88.5529 366.055 87.9753 365.4 87.5586 364.557C87.1467 363.714 86.9407 362.729 86.9407 361.602C86.9407 360.466 87.1467 359.474 87.5586 358.626C87.9753 357.779 88.5529 357.121 89.2915 356.652C90.0349 356.183 90.899 355.949 91.8839 355.949C92.8687 355.949 93.7305 356.183 94.4691 356.652C95.2125 357.121 95.7901 357.779 96.2021 358.626C96.6187 359.474 96.8271 360.466 96.8271 361.602C96.8271 362.729 96.6187 363.714 96.2021 364.557C95.7901 365.4 95.2125 366.055 94.4691 366.524C93.7305 366.993 92.8687 367.227 91.8839 367.227ZM91.8839 365.722C92.632 365.722 93.2475 365.53 93.7305 365.146C94.2134 364.763 94.5709 364.259 94.8029 363.634C95.0349 363.009 95.1509 362.331 95.1509 361.602C95.1509 360.873 95.0349 360.194 94.8029 359.564C94.5709 358.934 94.2134 358.425 93.7305 358.037C93.2475 357.649 92.632 357.455 91.8839 357.455C91.1358 357.455 90.5202 357.649 90.0373 358.037C89.5543 358.425 89.1969 358.934 88.9648 359.564C88.7328 360.194 88.6168 360.873 88.6168 361.602C88.6168 362.331 88.7328 363.009 88.9648 363.634C89.1969 364.259 89.5543 364.763 90.0373 365.146C90.5202 365.53 91.1358 365.722 91.8839 365.722ZM101.062 360.438V367H99.3857V356.091H101.005V357.795H101.147C101.403 357.241 101.791 356.796 102.312 356.46C102.833 356.119 103.505 355.949 104.329 355.949C105.067 355.949 105.714 356.1 106.268 356.403C106.822 356.702 107.253 357.156 107.56 357.767C107.868 358.373 108.022 359.14 108.022 360.068V367H106.346V360.182C106.346 359.325 106.123 358.657 105.678 358.179C105.233 357.696 104.622 357.455 103.846 357.455C103.311 357.455 102.833 357.571 102.411 357.803C101.995 358.035 101.665 358.373 101.424 358.818C101.183 359.263 101.062 359.803 101.062 360.438ZM115.369 352.455V367H113.608V354.301H113.523L109.972 356.659V354.869L113.608 352.455H115.369Z" fill="black"/>
<path d="M69.5341 664V653.091H71.2102V664H69.5341ZM70.3864 651.273C70.0597 651.273 69.7779 651.161 69.5412 650.939C69.3092 650.716 69.1932 650.449 69.1932 650.136C69.1932 649.824 69.3092 649.556 69.5412 649.334C69.7779 649.111 70.0597 649 70.3864 649C70.7131 649 70.9924 649.111 71.2244 649.334C71.4612 649.556 71.5795 649.824 71.5795 650.136C71.5795 650.449 71.4612 650.716 71.2244 650.939C70.9924 651.161 70.7131 651.273 70.3864 651.273ZM78.712 664.227C77.6893 664.227 76.8086 663.986 76.07 663.503C75.3313 663.02 74.7631 662.355 74.3654 661.507C73.9677 660.66 73.7688 659.691 73.7688 658.602C73.7688 657.494 73.9724 656.517 74.3796 655.669C74.7915 654.817 75.3645 654.152 76.0984 653.673C76.837 653.19 77.6987 652.949 78.6836 652.949C79.4506 652.949 80.1419 653.091 80.7575 653.375C81.373 653.659 81.8772 654.057 82.2702 654.568C82.6632 655.08 82.9071 655.676 83.0018 656.358H81.3256C81.1978 655.861 80.9137 655.42 80.4734 655.037C80.0378 654.649 79.4506 654.455 78.712 654.455C78.0586 654.455 77.4857 654.625 76.9933 654.966C76.5056 655.302 76.1244 655.778 75.8498 656.393C75.5799 657.004 75.445 657.722 75.445 658.545C75.445 659.388 75.5775 660.122 75.8427 660.747C76.1126 661.372 76.4914 661.857 76.979 662.203C77.4715 662.549 78.0491 662.722 78.712 662.722C79.1476 662.722 79.543 662.646 79.8981 662.494C80.2532 662.343 80.5539 662.125 80.8001 661.841C81.0463 661.557 81.2215 661.216 81.3256 660.818H83.0018C82.9071 661.462 82.6727 662.042 82.2987 662.558C81.9293 663.07 81.4393 663.477 80.8285 663.78C80.2224 664.078 79.5169 664.227 78.712 664.227ZM89.8839 664.227C88.899 664.227 88.0349 663.993 87.2915 663.524C86.5529 663.055 85.9753 662.4 85.5586 661.557C85.1467 660.714 84.9407 659.729 84.9407 658.602C84.9407 657.466 85.1467 656.474 85.5586 655.626C85.9753 654.779 86.5529 654.121 87.2915 653.652C88.0349 653.183 88.899 652.949 89.8839 652.949C90.8687 652.949 91.7305 653.183 92.4691 653.652C93.2125 654.121 93.7901 654.779 94.2021 655.626C94.6187 656.474 94.8271 657.466 94.8271 658.602C94.8271 659.729 94.6187 660.714 94.2021 661.557C93.7901 662.4 93.2125 663.055 92.4691 663.524C91.7305 663.993 90.8687 664.227 89.8839 664.227ZM89.8839 662.722C90.632 662.722 91.2475 662.53 91.7305 662.146C92.2134 661.763 92.5709 661.259 92.8029 660.634C93.0349 660.009 93.1509 659.331 93.1509 658.602C93.1509 657.873 93.0349 657.194 92.8029 656.564C92.5709 655.934 92.2134 655.425 91.7305 655.037C91.2475 654.649 90.632 654.455 89.8839 654.455C89.1358 654.455 88.5202 654.649 88.0373 655.037C87.5543 655.425 87.1969 655.934 86.9648 656.564C86.7328 657.194 86.6168 657.873 86.6168 658.602C86.6168 659.331 86.7328 660.009 86.9648 660.634C87.1969 661.259 87.5543 661.763 88.0373 662.146C88.5202 662.53 89.1358 662.722 89.8839 662.722ZM99.0618 657.438V664H97.3857V653.091H99.005V654.795H99.147C99.4027 654.241 99.791 653.796 100.312 653.46C100.833 653.119 101.505 652.949 102.329 652.949C103.067 652.949 103.714 653.1 104.268 653.403C104.822 653.702 105.253 654.156 105.56 654.767C105.868 655.373 106.022 656.14 106.022 657.068V664H104.346V657.182C104.346 656.325 104.123 655.657 103.678 655.179C103.233 654.696 102.622 654.455 101.846 654.455C101.311 654.455 100.833 654.571 100.411 654.803C99.9946 655.035 99.6655 655.373 99.424 655.818C99.1825 656.263 99.0618 656.803 99.0618 657.438ZM108.716 661.017V659.568L115.108 649.455H116.159V651.699H115.449L110.619 659.341V659.455H119.227V661.017H108.716ZM115.562 664V660.577V659.902V649.455H117.238V664H115.562Z" fill="black"/>
<path d="M70.5341 565V554.091H72.2102V565H70.5341ZM71.3864 552.273C71.0597 552.273 70.7779 552.161 70.5412 551.939C70.3092 551.716 70.1932 551.449 70.1932 551.136C70.1932 550.824 70.3092 550.556 70.5412 550.334C70.7779 550.111 71.0597 550 71.3864 550C71.7131 550 71.9924 550.111 72.2244 550.334C72.4612 550.556 72.5795 550.824 72.5795 551.136C72.5795 551.449 72.4612 551.716 72.2244 551.939C71.9924 552.161 71.7131 552.273 71.3864 552.273ZM79.712 565.227C78.6893 565.227 77.8086 564.986 77.07 564.503C76.3313 564.02 75.7631 563.355 75.3654 562.507C74.9677 561.66 74.7688 560.691 74.7688 559.602C74.7688 558.494 74.9724 557.517 75.3796 556.669C75.7915 555.817 76.3645 555.152 77.0984 554.673C77.837 554.19 78.6987 553.949 79.6836 553.949C80.4506 553.949 81.1419 554.091 81.7575 554.375C82.373 554.659 82.8772 555.057 83.2702 555.568C83.6632 556.08 83.9071 556.676 84.0018 557.358H82.3256C82.1978 556.861 81.9137 556.42 81.4734 556.037C81.0378 555.649 80.4506 555.455 79.712 555.455C79.0586 555.455 78.4857 555.625 77.9933 555.966C77.5056 556.302 77.1244 556.778 76.8498 557.393C76.5799 558.004 76.445 558.722 76.445 559.545C76.445 560.388 76.5775 561.122 76.8427 561.747C77.1126 562.372 77.4914 562.857 77.979 563.203C78.4715 563.549 79.0491 563.722 79.712 563.722C80.1476 563.722 80.543 563.646 80.8981 563.494C81.2532 563.343 81.5539 563.125 81.8001 562.841C82.0463 562.557 82.2215 562.216 82.3256 561.818H84.0018C83.9071 562.462 83.6727 563.042 83.2987 563.558C82.9293 564.07 82.4393 564.477 81.8285 564.78C81.2224 565.078 80.5169 565.227 79.712 565.227ZM90.8839 565.227C89.899 565.227 89.0349 564.993 88.2915 564.524C87.5529 564.055 86.9753 563.4 86.5586 562.557C86.1467 561.714 85.9407 560.729 85.9407 559.602C85.9407 558.466 86.1467 557.474 86.5586 556.626C86.9753 555.779 87.5529 555.121 88.2915 554.652C89.0349 554.183 89.899 553.949 90.8839 553.949C91.8687 553.949 92.7305 554.183 93.4691 554.652C94.2125 555.121 94.7901 555.779 95.2021 556.626C95.6187 557.474 95.8271 558.466 95.8271 559.602C95.8271 560.729 95.6187 561.714 95.2021 562.557C94.7901 563.4 94.2125 564.055 93.4691 564.524C92.7305 564.993 91.8687 565.227 90.8839 565.227ZM90.8839 563.722C91.632 563.722 92.2475 563.53 92.7305 563.146C93.2134 562.763 93.5709 562.259 93.8029 561.634C94.0349 561.009 94.1509 560.331 94.1509 559.602C94.1509 558.873 94.0349 558.194 93.8029 557.564C93.5709 556.934 93.2134 556.425 92.7305 556.037C92.2475 555.649 91.632 555.455 90.8839 555.455C90.1358 555.455 89.5202 555.649 89.0373 556.037C88.5543 556.425 88.1969 556.934 87.9648 557.564C87.7328 558.194 87.6168 558.873 87.6168 559.602C87.6168 560.331 87.7328 561.009 87.9648 561.634C88.1969 562.259 88.5543 562.763 89.0373 563.146C89.5202 563.53 90.1358 563.722 90.8839 563.722ZM100.062 558.438V565H98.3857V554.091H100.005V555.795H100.147C100.403 555.241 100.791 554.796 101.312 554.46C101.833 554.119 102.505 553.949 103.329 553.949C104.067 553.949 104.714 554.1 105.268 554.403C105.822 554.702 106.253 555.156 106.56 555.767C106.868 556.373 107.022 557.14 107.022 558.068V565H105.346V558.182C105.346 557.325 105.123 556.657 104.678 556.179C104.233 555.696 103.622 555.455 102.846 555.455C102.311 555.455 101.833 555.571 101.411 555.803C100.995 556.035 100.665 556.373 100.424 556.818C100.183 557.263 100.062 557.803 100.062 558.438ZM114.971 565.199C114.034 565.199 113.198 565.038 112.464 564.716C111.735 564.394 111.155 563.946 110.724 563.374C110.298 562.796 110.066 562.126 110.028 561.364H111.818C111.856 561.832 112.017 562.237 112.301 562.578C112.585 562.914 112.957 563.175 113.416 563.359C113.875 563.544 114.384 563.636 114.943 563.636C115.568 563.636 116.122 563.527 116.605 563.31C117.088 563.092 117.467 562.789 117.741 562.401C118.016 562.012 118.153 561.562 118.153 561.051C118.153 560.516 118.02 560.045 117.755 559.638C117.49 559.226 117.102 558.904 116.591 558.672C116.079 558.44 115.454 558.324 114.716 558.324H113.551V556.761H114.716C115.293 556.761 115.8 556.657 116.235 556.449C116.676 556.241 117.019 555.947 117.265 555.568C117.516 555.189 117.642 554.744 117.642 554.233C117.642 553.741 117.533 553.312 117.315 552.947C117.097 552.583 116.789 552.299 116.392 552.095C115.999 551.892 115.535 551.79 115 551.79C114.498 551.79 114.024 551.882 113.579 552.067C113.139 552.247 112.779 552.509 112.5 552.855C112.22 553.196 112.069 553.608 112.045 554.091H110.341C110.369 553.329 110.599 552.661 111.029 552.088C111.46 551.51 112.024 551.061 112.72 550.739C113.421 550.417 114.19 550.256 115.028 550.256C115.928 550.256 116.699 550.438 117.343 550.803C117.987 551.162 118.482 551.638 118.828 552.23C119.173 552.822 119.346 553.461 119.346 554.148C119.346 554.967 119.131 555.665 118.7 556.243C118.274 556.821 117.694 557.221 116.96 557.443V557.557C117.878 557.708 118.596 558.099 119.112 558.729C119.628 559.354 119.886 560.128 119.886 561.051C119.886 561.842 119.671 562.552 119.24 563.182C118.814 563.807 118.231 564.299 117.493 564.659C116.754 565.019 115.913 565.199 114.971 565.199Z" fill="black"/>
<path d="M70.5341 466V455.091H72.2102V466H70.5341ZM71.3864 453.273C71.0597 453.273 70.7779 453.161 70.5412 452.939C70.3092 452.716 70.1932 452.449 70.1932 452.136C70.1932 451.824 70.3092 451.556 70.5412 451.334C70.7779 451.111 71.0597 451 71.3864 451C71.7131 451 71.9924 451.111 72.2244 451.334C72.4612 451.556 72.5795 451.824 72.5795 452.136C72.5795 452.449 72.4612 452.716 72.2244 452.939C71.9924 453.161 71.7131 453.273 71.3864 453.273ZM79.712 466.227C78.6893 466.227 77.8086 465.986 77.07 465.503C76.3313 465.02 75.7631 464.355 75.3654 463.507C74.9677 462.66 74.7688 461.691 74.7688 460.602C74.7688 459.494 74.9724 458.517 75.3796 457.669C75.7915 456.817 76.3645 456.152 77.0984 455.673C77.837 455.19 78.6987 454.949 79.6836 454.949C80.4506 454.949 81.1419 455.091 81.7575 455.375C82.373 455.659 82.8772 456.057 83.2702 456.568C83.6632 457.08 83.9071 457.676 84.0018 458.358H82.3256C82.1978 457.861 81.9137 457.42 81.4734 457.037C81.0378 456.649 80.4506 456.455 79.712 456.455C79.0586 456.455 78.4857 456.625 77.9933 456.966C77.5056 457.302 77.1244 457.778 76.8498 458.393C76.5799 459.004 76.445 459.722 76.445 460.545C76.445 461.388 76.5775 462.122 76.8427 462.747C77.1126 463.372 77.4914 463.857 77.979 464.203C78.4715 464.549 79.0491 464.722 79.712 464.722C80.1476 464.722 80.543 464.646 80.8981 464.494C81.2532 464.343 81.5539 464.125 81.8001 463.841C82.0463 463.557 82.2215 463.216 82.3256 462.818H84.0018C83.9071 463.462 83.6727 464.042 83.2987 464.558C82.9293 465.07 82.4393 465.477 81.8285 465.78C81.2224 466.078 80.5169 466.227 79.712 466.227ZM90.8839 466.227C89.899 466.227 89.0349 465.993 88.2915 465.524C87.5529 465.055 86.9753 464.4 86.5586 463.557C86.1467 462.714 85.9407 461.729 85.9407 460.602C85.9407 459.466 86.1467 458.474 86.5586 457.626C86.9753 456.779 87.5529 456.121 88.2915 455.652C89.0349 455.183 89.899 454.949 90.8839 454.949C91.8687 454.949 92.7305 455.183 93.4691 455.652C94.2125 456.121 94.7901 456.779 95.2021 457.626C95.6187 458.474 95.8271 459.466 95.8271 460.602C95.8271 461.729 95.6187 462.714 95.2021 463.557C94.7901 464.4 94.2125 465.055 93.4691 465.524C92.7305 465.993 91.8687 466.227 90.8839 466.227ZM90.8839 464.722C91.632 464.722 92.2475 464.53 92.7305 464.146C93.2134 463.763 93.5709 463.259 93.8029 462.634C94.0349 462.009 94.1509 461.331 94.1509 460.602C94.1509 459.873 94.0349 459.194 93.8029 458.564C93.5709 457.934 93.2134 457.425 92.7305 457.037C92.2475 456.649 91.632 456.455 90.8839 456.455C90.1358 456.455 89.5202 456.649 89.0373 457.037C88.5543 457.425 88.1969 457.934 87.9648 458.564C87.7328 459.194 87.6168 459.873 87.6168 460.602C87.6168 461.331 87.7328 462.009 87.9648 462.634C88.1969 463.259 88.5543 463.763 89.0373 464.146C89.5202 464.53 90.1358 464.722 90.8839 464.722ZM100.062 459.438V466H98.3857V455.091H100.005V456.795H100.147C100.403 456.241 100.791 455.796 101.312 455.46C101.833 455.119 102.505 454.949 103.329 454.949C104.067 454.949 104.714 455.1 105.268 455.403C105.822 455.702 106.253 456.156 106.56 456.767C106.868 457.373 107.022 458.14 107.022 459.068V466H105.346V459.182C105.346 458.325 105.123 457.657 104.678 457.179C104.233 456.696 103.622 456.455 102.846 456.455C102.311 456.455 101.833 456.571 101.411 456.803C100.995 457.035 100.665 457.373 100.424 457.818C100.183 458.263 100.062 458.803 100.062 459.438ZM110.056 466V464.722L114.858 459.466C115.421 458.85 115.885 458.315 116.25 457.861C116.614 457.402 116.884 456.971 117.059 456.568C117.239 456.161 117.329 455.735 117.329 455.29C117.329 454.778 117.206 454.336 116.96 453.962C116.718 453.588 116.387 453.299 115.966 453.095C115.544 452.892 115.071 452.79 114.545 452.79C113.986 452.79 113.499 452.906 113.082 453.138C112.67 453.365 112.35 453.685 112.123 454.097C111.901 454.509 111.789 454.991 111.789 455.545H110.113C110.113 454.693 110.31 453.945 110.703 453.301C111.096 452.657 111.631 452.155 112.308 451.795C112.99 451.436 113.754 451.256 114.602 451.256C115.454 451.256 116.209 451.436 116.868 451.795C117.526 452.155 118.042 452.641 118.416 453.251C118.79 453.862 118.977 454.542 118.977 455.29C118.977 455.825 118.88 456.348 118.686 456.859C118.496 457.366 118.165 457.932 117.691 458.557C117.223 459.177 116.572 459.935 115.738 460.83L112.471 464.324V464.438H119.233V466H110.056Z" fill="black"/>
<g filter="url(#filter8_d_20_290)">
<rect x="439" y="45" width="875" height="655" rx="48" fill="white"/>
</g>
<rect x="451" y="96" width="852" height="595" rx="53" fill="#D9D9D9"/>
<path d="M748.761 414.364V387.364H751.676V390.483H752.034C752.256 390.142 752.563 389.707 752.955 389.179C753.355 388.642 753.926 388.165 754.668 387.747C755.418 387.321 756.432 387.108 757.71 387.108C759.364 387.108 760.821 387.521 762.082 388.348C763.344 389.175 764.328 390.347 765.036 391.864C765.743 393.381 766.097 395.17 766.097 397.233C766.097 399.312 765.743 401.115 765.036 402.641C764.328 404.158 763.348 405.334 762.095 406.169C760.842 406.996 759.398 407.409 757.761 407.409C756.5 407.409 755.49 407.2 754.732 406.783C753.973 406.357 753.389 405.875 752.98 405.338C752.571 404.793 752.256 404.341 752.034 403.983H751.778V414.364H748.761ZM751.727 397.182C751.727 398.665 751.945 399.973 752.379 401.107C752.814 402.232 753.449 403.114 754.284 403.753C755.119 404.384 756.142 404.699 757.352 404.699C758.614 404.699 759.666 404.366 760.51 403.702C761.362 403.028 762.001 402.125 762.428 400.991C762.862 399.849 763.08 398.58 763.08 397.182C763.08 395.801 762.866 394.557 762.44 393.449C762.023 392.332 761.388 391.45 760.536 390.803C759.692 390.146 758.631 389.818 757.352 389.818C756.125 389.818 755.094 390.129 754.259 390.751C753.423 391.365 752.793 392.226 752.366 393.334C751.94 394.433 751.727 395.716 751.727 397.182ZM770.699 407V387.364H773.614V390.33H773.818C774.176 389.358 774.824 388.57 775.761 387.964C776.699 387.359 777.756 387.057 778.932 387.057C779.153 387.057 779.43 387.061 779.763 387.07C780.095 387.078 780.347 387.091 780.517 387.108V390.176C780.415 390.151 780.18 390.112 779.814 390.061C779.456 390.001 779.077 389.972 778.676 389.972C777.722 389.972 776.869 390.172 776.119 390.572C775.378 390.964 774.79 391.51 774.355 392.209C773.929 392.899 773.716 393.687 773.716 394.574V407H770.699ZM791.473 407.409C789.7 407.409 788.145 406.987 786.807 406.143C785.477 405.3 784.438 404.119 783.688 402.602C782.946 401.085 782.575 399.312 782.575 397.284C782.575 395.239 782.946 393.453 783.688 391.928C784.438 390.402 785.477 389.217 786.807 388.374C788.145 387.53 789.7 387.108 791.473 387.108C793.246 387.108 794.797 387.53 796.126 388.374C797.464 389.217 798.504 390.402 799.246 391.928C799.996 393.453 800.371 395.239 800.371 397.284C800.371 399.312 799.996 401.085 799.246 402.602C798.504 404.119 797.464 405.3 796.126 406.143C794.797 406.987 793.246 407.409 791.473 407.409ZM791.473 404.699C792.82 404.699 793.928 404.354 794.797 403.663C795.666 402.973 796.31 402.065 796.727 400.94C797.145 399.815 797.354 398.597 797.354 397.284C797.354 395.972 797.145 394.749 796.727 393.615C796.31 392.482 795.666 391.565 794.797 390.866C793.928 390.168 792.82 389.818 791.473 389.818C790.126 389.818 789.018 390.168 788.149 390.866C787.28 391.565 786.636 392.482 786.219 393.615C785.801 394.749 785.592 395.972 785.592 397.284C785.592 398.597 785.801 399.815 786.219 400.94C786.636 402.065 787.28 402.973 788.149 403.663C789.018 404.354 790.126 404.699 791.473 404.699ZM812.902 414.773C811.445 414.773 810.192 414.585 809.144 414.21C808.096 413.844 807.222 413.358 806.523 412.753C805.833 412.156 805.283 411.517 804.874 410.835L807.277 409.148C807.55 409.506 807.895 409.915 808.313 410.375C808.73 410.844 809.301 411.249 810.026 411.589C810.759 411.939 811.718 412.114 812.902 412.114C814.488 412.114 815.796 411.73 816.827 410.963C817.858 410.196 818.374 408.994 818.374 407.358V403.369H818.118C817.897 403.727 817.581 404.17 817.172 404.699C816.772 405.219 816.192 405.683 815.434 406.092C814.684 406.493 813.669 406.693 812.391 406.693C810.806 406.693 809.382 406.318 808.121 405.568C806.868 404.818 805.875 403.727 805.142 402.295C804.418 400.864 804.056 399.125 804.056 397.08C804.056 395.068 804.409 393.317 805.117 391.825C805.824 390.325 806.809 389.166 808.07 388.348C809.331 387.521 810.789 387.108 812.442 387.108C813.721 387.108 814.735 387.321 815.485 387.747C816.243 388.165 816.823 388.642 817.223 389.179C817.632 389.707 817.948 390.142 818.169 390.483H818.476V387.364H821.391V407.562C821.391 409.25 821.007 410.622 820.24 411.679C819.482 412.744 818.459 413.524 817.172 414.018C815.894 414.521 814.471 414.773 812.902 414.773ZM812.8 403.983C814.01 403.983 815.033 403.706 815.868 403.152C816.703 402.598 817.338 401.801 817.773 400.761C818.208 399.722 818.425 398.477 818.425 397.028C818.425 395.614 818.212 394.365 817.786 393.283C817.36 392.2 816.729 391.352 815.894 390.739C815.059 390.125 814.027 389.818 812.8 389.818C811.522 389.818 810.456 390.142 809.604 390.79C808.76 391.437 808.125 392.307 807.699 393.398C807.282 394.489 807.073 395.699 807.073 397.028C807.073 398.392 807.286 399.598 807.712 400.646C808.147 401.686 808.786 402.504 809.63 403.101C810.482 403.689 811.539 403.983 812.8 403.983ZM826.914 407V387.364H829.828V390.33H830.033C830.391 389.358 831.039 388.57 831.976 387.964C832.914 387.359 833.971 387.057 835.147 387.057C835.368 387.057 835.645 387.061 835.978 387.07C836.31 387.078 836.561 387.091 836.732 387.108V390.176C836.63 390.151 836.395 390.112 836.029 390.061C835.671 390.001 835.292 389.972 834.891 389.972C833.936 389.972 833.084 390.172 832.334 390.572C831.593 390.964 831.005 391.51 830.57 392.209C830.144 392.899 829.931 393.687 829.931 394.574V407H826.914ZM846.087 407.46C844.842 407.46 843.713 407.226 842.699 406.757C841.685 406.28 840.879 405.594 840.283 404.699C839.686 403.795 839.388 402.705 839.388 401.426C839.388 400.301 839.609 399.389 840.053 398.69C840.496 397.983 841.088 397.429 841.83 397.028C842.571 396.628 843.389 396.33 844.284 396.134C845.188 395.929 846.095 395.767 847.007 395.648C848.2 395.494 849.168 395.379 849.909 395.303C850.659 395.217 851.205 395.077 851.545 394.881C851.895 394.685 852.07 394.344 852.07 393.858V393.756C852.07 392.494 851.724 391.514 851.034 390.815C850.352 390.116 849.317 389.767 847.928 389.767C846.487 389.767 845.358 390.082 844.54 390.713C843.722 391.344 843.146 392.017 842.814 392.733L839.95 391.71C840.462 390.517 841.143 389.588 841.996 388.923C842.857 388.25 843.794 387.781 844.808 387.517C845.831 387.244 846.837 387.108 847.825 387.108C848.456 387.108 849.18 387.185 849.999 387.338C850.825 387.483 851.622 387.786 852.389 388.246C853.165 388.706 853.808 389.401 854.32 390.33C854.831 391.259 855.087 392.503 855.087 394.062V407H852.07V404.341H851.916C851.712 404.767 851.371 405.223 850.893 405.709C850.416 406.195 849.781 406.608 848.989 406.949C848.196 407.29 847.229 407.46 846.087 407.46ZM846.547 404.75C847.74 404.75 848.746 404.516 849.564 404.047C850.391 403.578 851.013 402.973 851.43 402.232C851.857 401.49 852.07 400.71 852.07 399.892V397.131C851.942 397.284 851.661 397.425 851.226 397.553C850.8 397.672 850.305 397.778 849.743 397.872C849.189 397.957 848.648 398.034 848.119 398.102C847.599 398.162 847.178 398.213 846.854 398.256C846.07 398.358 845.337 398.524 844.655 398.754C843.982 398.976 843.436 399.312 843.018 399.764C842.609 400.207 842.405 400.812 842.405 401.58C842.405 402.628 842.793 403.42 843.568 403.957C844.352 404.486 845.345 404.75 846.547 404.75ZM860.593 407V387.364H863.508V390.432H863.764C864.173 389.384 864.833 388.57 865.745 387.99C866.657 387.402 867.752 387.108 869.031 387.108C870.326 387.108 871.404 387.402 872.265 387.99C873.135 388.57 873.812 389.384 874.298 390.432H874.502C875.005 389.418 875.76 388.612 876.765 388.016C877.771 387.411 878.977 387.108 880.383 387.108C882.139 387.108 883.575 387.658 884.691 388.757C885.808 389.848 886.366 391.548 886.366 393.858V407H883.349V393.858C883.349 392.409 882.953 391.374 882.16 390.751C881.368 390.129 880.434 389.818 879.36 389.818C877.98 389.818 876.91 390.236 876.152 391.071C875.393 391.898 875.014 392.946 875.014 394.216V407H871.946V393.551C871.946 392.435 871.583 391.536 870.859 390.854C870.135 390.163 869.201 389.818 868.059 389.818C867.275 389.818 866.542 390.027 865.86 390.445C865.187 390.862 864.642 391.442 864.224 392.183C863.815 392.916 863.61 393.764 863.61 394.727V407H860.593ZM902.007 407V387.364H905.025V407H902.007ZM903.542 384.091C902.953 384.091 902.446 383.891 902.02 383.49C901.603 383.089 901.394 382.608 901.394 382.045C901.394 381.483 901.603 381.001 902.02 380.601C902.446 380.2 902.953 380 903.542 380C904.13 380 904.632 380.2 905.05 380.601C905.476 381.001 905.689 381.483 905.689 382.045C905.689 382.608 905.476 383.089 905.05 383.49C904.632 383.891 904.13 384.091 903.542 384.091ZM919.295 387.364V389.92H908.71V387.364H919.295ZM911.88 407V384.653C911.88 383.528 912.144 382.591 912.673 381.841C913.201 381.091 913.887 380.528 914.731 380.153C915.575 379.778 916.465 379.591 917.403 379.591C918.144 379.591 918.749 379.651 919.218 379.77C919.687 379.889 920.036 380 920.266 380.102L919.397 382.71C919.244 382.659 919.031 382.595 918.758 382.518C918.494 382.442 918.144 382.403 917.71 382.403C916.712 382.403 915.992 382.655 915.549 383.158C915.114 383.661 914.897 384.398 914.897 385.369V407H911.88ZM923.523 407V387.364H926.438V390.33H926.642C927 389.358 927.648 388.57 928.586 387.964C929.523 387.359 930.58 387.057 931.756 387.057C931.978 387.057 932.255 387.061 932.587 387.07C932.919 387.078 933.171 387.091 933.341 387.108V390.176C933.239 390.151 933.005 390.112 932.638 390.061C932.28 390.001 931.901 389.972 931.5 389.972C930.546 389.972 929.694 390.172 928.944 390.572C928.202 390.964 927.614 391.51 927.179 392.209C926.753 392.899 926.54 393.687 926.54 394.574V407H923.523ZM942.696 407.46C941.452 407.46 940.322 407.226 939.308 406.757C938.294 406.28 937.489 405.594 936.892 404.699C936.295 403.795 935.997 402.705 935.997 401.426C935.997 400.301 936.219 399.389 936.662 398.69C937.105 397.983 937.697 397.429 938.439 397.028C939.18 396.628 939.999 396.33 940.893 396.134C941.797 395.929 942.705 395.767 943.616 395.648C944.81 395.494 945.777 395.379 946.518 395.303C947.268 395.217 947.814 395.077 948.155 394.881C948.504 394.685 948.679 394.344 948.679 393.858V393.756C948.679 392.494 948.334 391.514 947.643 390.815C946.962 390.116 945.926 389.767 944.537 389.767C943.097 389.767 941.967 390.082 941.149 390.713C940.331 391.344 939.756 392.017 939.423 392.733L936.56 391.71C937.071 390.517 937.753 389.588 938.605 388.923C939.466 388.25 940.403 387.781 941.418 387.517C942.44 387.244 943.446 387.108 944.435 387.108C945.065 387.108 945.79 387.185 946.608 387.338C947.435 387.483 948.232 387.786 948.999 388.246C949.774 388.706 950.418 389.401 950.929 390.33C951.44 391.259 951.696 392.503 951.696 394.062V407H948.679V404.341H948.526C948.321 404.767 947.98 405.223 947.503 405.709C947.026 406.195 946.391 406.608 945.598 406.949C944.805 407.29 943.838 407.46 942.696 407.46ZM943.156 404.75C944.349 404.75 945.355 404.516 946.173 404.047C947 403.578 947.622 402.973 948.04 402.232C948.466 401.49 948.679 400.71 948.679 399.892V397.131C948.551 397.284 948.27 397.425 947.835 397.553C947.409 397.672 946.915 397.778 946.352 397.872C945.798 397.957 945.257 398.034 944.729 398.102C944.209 398.162 943.787 398.213 943.463 398.256C942.679 398.358 941.946 398.524 941.264 398.754C940.591 398.976 940.045 399.312 939.628 399.764C939.219 400.207 939.014 400.812 939.014 401.58C939.014 402.628 939.402 403.42 940.178 403.957C940.962 404.486 941.955 404.75 943.156 404.75ZM957.203 407V387.364H960.118V390.432H960.373C960.782 389.384 961.443 388.57 962.355 387.99C963.267 387.402 964.362 387.108 965.64 387.108C966.936 387.108 968.014 387.402 968.875 387.99C969.744 388.57 970.422 389.384 970.907 390.432H971.112C971.615 389.418 972.369 388.612 973.375 388.016C974.38 387.411 975.586 387.108 976.993 387.108C978.748 387.108 980.184 387.658 981.301 388.757C982.417 389.848 982.975 391.548 982.975 393.858V407H979.958V393.858C979.958 392.409 979.562 391.374 978.77 390.751C977.977 390.129 977.044 389.818 975.97 389.818C974.589 389.818 973.52 390.236 972.761 391.071C972.002 391.898 971.623 392.946 971.623 394.216V407H968.555V393.551C968.555 392.435 968.193 391.536 967.468 390.854C966.744 390.163 965.811 389.818 964.669 389.818C963.885 389.818 963.152 390.027 962.47 390.445C961.797 390.862 961.251 391.442 960.833 392.183C960.424 392.916 960.22 393.764 960.22 394.727V407H957.203ZM996.725 407.409C994.833 407.409 993.201 406.991 991.828 406.156C990.465 405.312 989.412 404.136 988.671 402.628C987.938 401.111 987.571 399.347 987.571 397.335C987.571 395.324 987.938 393.551 988.671 392.017C989.412 390.474 990.444 389.273 991.765 388.412C993.094 387.543 994.645 387.108 996.418 387.108C997.441 387.108 998.451 387.278 999.448 387.619C1000.44 387.96 1001.35 388.514 1002.17 389.281C1002.99 390.04 1003.64 391.045 1004.13 392.298C1004.61 393.551 1004.86 395.094 1004.86 396.926V398.205H989.719V395.597H1001.79C1001.79 394.489 1001.57 393.5 1001.12 392.631C1000.69 391.761 1000.07 391.075 999.256 390.572C998.455 390.07 997.509 389.818 996.418 389.818C995.216 389.818 994.176 390.116 993.299 390.713C992.429 391.301 991.76 392.068 991.292 393.014C990.823 393.96 990.588 394.974 990.588 396.057V397.795C990.588 399.278 990.844 400.536 991.355 401.567C991.875 402.589 992.596 403.369 993.516 403.906C994.436 404.435 995.506 404.699 996.725 404.699C997.517 404.699 998.233 404.588 998.873 404.366C999.52 404.136 1000.08 403.795 1000.55 403.344C1001.02 402.884 1001.38 402.312 1001.63 401.631L1004.55 402.449C1004.24 403.438 1003.73 404.307 1003 405.057C1002.28 405.798 1001.38 406.378 1000.32 406.795C999.252 407.205 998.054 407.409 996.725 407.409Z" fill="black"/>
<path d="M755.761 87.3636V60.3636H758.676V63.483H759.034C759.256 63.142 759.563 62.7074 759.955 62.179C760.355 61.642 760.926 61.1648 761.668 60.7472C762.418 60.321 763.432 60.108 764.71 60.108C766.364 60.108 767.821 60.5213 769.082 61.348C770.344 62.1747 771.328 63.3466 772.036 64.8636C772.743 66.3807 773.097 68.1705 773.097 70.233C773.097 72.3125 772.743 74.1151 772.036 75.6406C771.328 77.1577 770.348 78.3338 769.095 79.169C767.842 79.9957 766.398 80.4091 764.761 80.4091C763.5 80.4091 762.49 80.2003 761.732 79.7827C760.973 79.3565 760.389 78.875 759.98 78.3381C759.571 77.7926 759.256 77.3409 759.034 76.983H758.778V87.3636H755.761ZM758.727 70.1818C758.727 71.6648 758.945 72.973 759.379 74.1065C759.814 75.2315 760.449 76.1136 761.284 76.7528C762.119 77.3835 763.142 77.6989 764.352 77.6989C765.614 77.6989 766.666 77.3665 767.51 76.7017C768.362 76.0284 769.001 75.125 769.428 73.9915C769.862 72.8494 770.08 71.5795 770.08 70.1818C770.08 68.8011 769.866 67.5568 769.44 66.4489C769.023 65.3324 768.388 64.4503 767.536 63.8026C766.692 63.1463 765.631 62.8182 764.352 62.8182C763.125 62.8182 762.094 63.1293 761.259 63.7514C760.423 64.3651 759.793 65.2259 759.366 66.3338C758.94 67.4332 758.727 68.7159 758.727 70.1818ZM777.699 80V60.3636H780.614V63.3295H780.818C781.176 62.358 781.824 61.5696 782.761 60.9645C783.699 60.3594 784.756 60.0568 785.932 60.0568C786.153 60.0568 786.43 60.0611 786.763 60.0696C787.095 60.0781 787.347 60.0909 787.517 60.108V63.1761C787.415 63.1506 787.18 63.1122 786.814 63.0611C786.456 63.0014 786.077 62.9716 785.676 62.9716C784.722 62.9716 783.869 63.1719 783.119 63.5724C782.378 63.9645 781.79 64.5099 781.355 65.2088C780.929 65.8991 780.716 66.6875 780.716 67.5739V80H777.699ZM798.473 80.4091C796.7 80.4091 795.145 79.9872 793.807 79.1435C792.477 78.2997 791.438 77.1193 790.688 75.6023C789.946 74.0852 789.575 72.3125 789.575 70.2841C789.575 68.2386 789.946 66.4531 790.688 64.9276C791.438 63.402 792.477 62.2173 793.807 61.3736C795.145 60.5298 796.7 60.108 798.473 60.108C800.246 60.108 801.797 60.5298 803.126 61.3736C804.464 62.2173 805.504 63.402 806.246 64.9276C806.996 66.4531 807.371 68.2386 807.371 70.2841C807.371 72.3125 806.996 74.0852 806.246 75.6023C805.504 77.1193 804.464 78.2997 803.126 79.1435C801.797 79.9872 800.246 80.4091 798.473 80.4091ZM798.473 77.6989C799.82 77.6989 800.928 77.3537 801.797 76.6634C802.666 75.973 803.31 75.0653 803.727 73.9403C804.145 72.8153 804.354 71.5966 804.354 70.2841C804.354 68.9716 804.145 67.7486 803.727 66.6151C803.31 65.4815 802.666 64.5653 801.797 63.8665C800.928 63.1676 799.82 62.8182 798.473 62.8182C797.126 62.8182 796.018 63.1676 795.149 63.8665C794.28 64.5653 793.636 65.4815 793.219 66.6151C792.801 67.7486 792.592 68.9716 792.592 70.2841C792.592 71.5966 792.801 72.8153 793.219 73.9403C793.636 75.0653 794.28 75.973 795.149 76.6634C796.018 77.3537 797.126 77.6989 798.473 77.6989ZM819.902 87.7727C818.445 87.7727 817.192 87.5852 816.144 87.2102C815.096 86.8438 814.222 86.358 813.523 85.7528C812.833 85.1563 812.283 84.517 811.874 83.8352L814.277 82.1477C814.55 82.5057 814.895 82.9148 815.313 83.375C815.73 83.8438 816.301 84.2486 817.026 84.5895C817.759 84.9389 818.718 85.1136 819.902 85.1136C821.488 85.1136 822.796 84.7301 823.827 83.9631C824.858 83.196 825.374 81.9943 825.374 80.358V76.3693H825.118C824.897 76.7273 824.581 77.1705 824.172 77.6989C823.772 78.2188 823.192 78.6832 822.434 79.0923C821.684 79.4929 820.669 79.6932 819.391 79.6932C817.806 79.6932 816.382 79.3182 815.121 78.5682C813.868 77.8182 812.875 76.7273 812.142 75.2955C811.418 73.8636 811.056 72.125 811.056 70.0795C811.056 68.0682 811.409 66.3168 812.117 64.8253C812.824 63.3253 813.809 62.1662 815.07 61.348C816.331 60.5213 817.789 60.108 819.442 60.108C820.721 60.108 821.735 60.321 822.485 60.7472C823.243 61.1648 823.823 61.642 824.223 62.179C824.632 62.7074 824.948 63.142 825.169 63.483H825.476V60.3636H828.391V80.5625C828.391 82.25 828.007 83.6222 827.24 84.679C826.482 85.7443 825.459 86.5241 824.172 87.0185C822.894 87.5213 821.471 87.7727 819.902 87.7727ZM819.8 76.983C821.01 76.983 822.033 76.706 822.868 76.152C823.703 75.598 824.338 74.8011 824.773 73.7614C825.208 72.7216 825.425 71.4773 825.425 70.0284C825.425 68.6136 825.212 67.3651 824.786 66.2827C824.36 65.2003 823.729 64.3523 822.894 63.7386C822.059 63.125 821.027 62.8182 819.8 62.8182C818.522 62.8182 817.456 63.142 816.604 63.7898C815.76 64.4375 815.125 65.3068 814.699 66.3977C814.282 67.4886 814.073 68.6989 814.073 70.0284C814.073 71.392 814.286 72.598 814.712 73.6463C815.147 74.6861 815.786 75.5043 816.63 76.1009C817.482 76.6889 818.539 76.983 819.8 76.983ZM833.914 80V60.3636H836.828V63.3295H837.033C837.391 62.358 838.039 61.5696 838.976 60.9645C839.914 60.3594 840.971 60.0568 842.147 60.0568C842.368 60.0568 842.645 60.0611 842.978 60.0696C843.31 60.0781 843.561 60.0909 843.732 60.108V63.1761C843.63 63.1506 843.395 63.1122 843.029 63.0611C842.671 63.0014 842.292 62.9716 841.891 62.9716C840.936 62.9716 840.084 63.1719 839.334 63.5724C838.593 63.9645 838.005 64.5099 837.57 65.2088C837.144 65.8991 836.931 66.6875 836.931 67.5739V80H833.914ZM853.087 80.4602C851.842 80.4602 850.713 80.2259 849.699 79.7571C848.685 79.2798 847.879 78.5938 847.283 77.6989C846.686 76.7955 846.388 75.7045 846.388 74.4261C846.388 73.3011 846.609 72.3892 847.053 71.6903C847.496 70.983 848.088 70.429 848.83 70.0284C849.571 69.6278 850.389 69.3295 851.284 69.1335C852.188 68.929 853.095 68.767 854.007 68.6477C855.2 68.4943 856.168 68.3793 856.909 68.3026C857.659 68.2173 858.205 68.0767 858.545 67.8807C858.895 67.6847 859.07 67.3437 859.07 66.858V66.7557C859.07 65.4943 858.724 64.5142 858.034 63.8153C857.352 63.1165 856.317 62.767 854.928 62.767C853.487 62.767 852.358 63.0824 851.54 63.7131C850.722 64.3437 850.146 65.017 849.814 65.733L846.95 64.7102C847.462 63.517 848.143 62.5881 848.996 61.9233C849.857 61.25 850.794 60.7812 851.808 60.517C852.831 60.2443 853.837 60.108 854.825 60.108C855.456 60.108 856.18 60.1847 856.999 60.3381C857.825 60.483 858.622 60.7855 859.389 61.2457C860.165 61.706 860.808 62.4006 861.32 63.3295C861.831 64.2585 862.087 65.5028 862.087 67.0625V80H859.07V77.3409H858.916C858.712 77.767 858.371 78.223 857.893 78.7088C857.416 79.1946 856.781 79.608 855.989 79.9489C855.196 80.2898 854.229 80.4602 853.087 80.4602ZM853.547 77.75C854.74 77.75 855.746 77.5156 856.564 77.0469C857.391 76.5781 858.013 75.973 858.43 75.2315C858.857 74.4901 859.07 73.7102 859.07 72.892V70.1307C858.942 70.2841 858.661 70.4247 858.226 70.5526C857.8 70.6719 857.305 70.7784 856.743 70.8722C856.189 70.9574 855.648 71.0341 855.119 71.1023C854.599 71.1619 854.178 71.2131 853.854 71.2557C853.07 71.358 852.337 71.5241 851.655 71.7543C850.982 71.9759 850.436 72.3125 850.018 72.7642C849.609 73.2074 849.405 73.8125 849.405 74.5795C849.405 75.6278 849.793 76.4205 850.568 76.9574C851.352 77.4858 852.345 77.75 853.547 77.75ZM867.593 80V60.3636H870.508V63.4318H870.764C871.173 62.3835 871.833 61.5696 872.745 60.9901C873.657 60.402 874.752 60.108 876.031 60.108C877.326 60.108 878.404 60.402 879.265 60.9901C880.135 61.5696 880.812 62.3835 881.298 63.4318H881.502C882.005 62.4176 882.76 61.6122 883.765 61.0156C884.771 60.4105 885.977 60.108 887.383 60.108C889.139 60.108 890.575 60.6577 891.691 61.7571C892.808 62.848 893.366 64.5483 893.366 66.858V80H890.349V66.858C890.349 65.4091 889.953 64.3736 889.16 63.7514C888.368 63.1293 887.434 62.8182 886.36 62.8182C884.98 62.8182 883.91 63.2358 883.152 64.071C882.393 64.8977 882.014 65.946 882.014 67.2159V80H878.946V66.5511C878.946 65.4347 878.583 64.5355 877.859 63.8537C877.135 63.1634 876.201 62.8182 875.059 62.8182C874.275 62.8182 873.542 63.027 872.86 63.4446C872.187 63.8622 871.642 64.4418 871.224 65.1832C870.815 65.9162 870.61 66.7642 870.61 67.7273V80H867.593ZM912.025 68.1875V80H909.007V60.3636H911.922V63.4318H912.178C912.638 62.4347 913.337 61.6335 914.275 61.0284C915.212 60.4148 916.422 60.108 917.905 60.108C919.235 60.108 920.398 60.3807 921.395 60.9261C922.392 61.4631 923.168 62.2812 923.722 63.3807C924.276 64.4716 924.553 65.8523 924.553 67.5227V80H921.536V67.7273C921.536 66.1847 921.135 64.983 920.334 64.1222C919.533 63.2528 918.434 62.8182 917.036 62.8182C916.073 62.8182 915.212 63.027 914.453 63.4446C913.703 63.8622 913.111 64.4716 912.676 65.2727C912.242 66.0739 912.025 67.0455 912.025 68.1875ZM935.844 80.4602C934.6 80.4602 933.471 80.2259 932.457 79.7571C931.442 79.2798 930.637 78.5938 930.04 77.6989C929.444 76.7955 929.146 75.7045 929.146 74.4261C929.146 73.3011 929.367 72.3892 929.81 71.6903C930.254 70.983 930.846 70.429 931.587 70.0284C932.329 69.6278 933.147 69.3295 934.042 69.1335C934.945 68.929 935.853 68.767 936.765 68.6477C937.958 68.4943 938.925 68.3793 939.667 68.3026C940.417 68.2173 940.962 68.0767 941.303 67.8807C941.653 67.6847 941.827 67.3437 941.827 66.858V66.7557C941.827 65.4943 941.482 64.5142 940.792 63.8153C940.11 63.1165 939.075 62.767 937.685 62.767C936.245 62.767 935.116 63.0824 934.298 63.7131C933.479 64.3437 932.904 65.017 932.572 65.733L929.708 64.7102C930.219 63.517 930.901 62.5881 931.754 61.9233C932.614 61.25 933.552 60.7812 934.566 60.517C935.589 60.2443 936.594 60.108 937.583 60.108C938.214 60.108 938.938 60.1847 939.756 60.3381C940.583 60.483 941.38 60.7855 942.147 61.2457C942.923 61.706 943.566 62.4006 944.077 63.3295C944.589 64.2585 944.844 65.5028 944.844 67.0625V80H941.827V77.3409H941.674C941.469 77.767 941.129 78.223 940.651 78.7088C940.174 79.1946 939.539 79.608 938.746 79.9489C937.954 80.2898 936.987 80.4602 935.844 80.4602ZM936.305 77.75C937.498 77.75 938.504 77.5156 939.322 77.0469C940.148 76.5781 940.771 75.973 941.188 75.2315C941.614 74.4901 941.827 73.7102 941.827 72.892V70.1307C941.7 70.2841 941.418 70.4247 940.984 70.5526C940.558 70.6719 940.063 70.7784 939.501 70.8722C938.947 70.9574 938.406 71.0341 937.877 71.1023C937.357 71.1619 936.935 71.2131 936.612 71.2557C935.827 71.358 935.094 71.5241 934.413 71.7543C933.739 71.9759 933.194 72.3125 932.776 72.7642C932.367 73.2074 932.163 73.8125 932.163 74.5795C932.163 75.6278 932.55 76.4205 933.326 76.9574C934.11 77.4858 935.103 77.75 936.305 77.75ZM950.351 80V60.3636H953.266V63.4318H953.522C953.931 62.3835 954.591 61.5696 955.503 60.9901C956.415 60.402 957.51 60.108 958.789 60.108C960.084 60.108 961.162 60.402 962.023 60.9901C962.892 61.5696 963.57 62.3835 964.056 63.4318H964.26C964.763 62.4176 965.517 61.6122 966.523 61.0156C967.529 60.4105 968.735 60.108 970.141 60.108C971.897 60.108 973.333 60.6577 974.449 61.7571C975.566 62.848 976.124 64.5483 976.124 66.858V80H973.107V66.858C973.107 65.4091 972.711 64.3736 971.918 63.7514C971.125 63.1293 970.192 62.8182 969.118 62.8182C967.738 62.8182 966.668 63.2358 965.909 64.071C965.151 64.8977 964.772 65.946 964.772 67.2159V80H961.703V66.5511C961.703 65.4347 961.341 64.5355 960.617 63.8537C959.892 63.1634 958.959 62.8182 957.817 62.8182C957.033 62.8182 956.3 63.027 955.618 63.4446C954.945 63.8622 954.4 64.4418 953.982 65.1832C953.573 65.9162 953.368 66.7642 953.368 67.7273V80H950.351ZM989.873 80.4091C987.981 80.4091 986.349 79.9915 984.977 79.1562C983.613 78.3125 982.561 77.1364 981.819 75.6278C981.086 74.1108 980.72 72.3466 980.72 70.3352C980.72 68.3239 981.086 66.5511 981.819 65.017C982.561 63.4744 983.592 62.2727 984.913 61.4119C986.243 60.5426 987.794 60.108 989.566 60.108C990.589 60.108 991.599 60.2784 992.596 60.6193C993.593 60.9602 994.501 61.5142 995.319 62.2812C996.137 63.0398 996.789 64.0455 997.275 65.2983C997.761 66.5511 998.004 68.0937 998.004 69.9261V71.2045H982.868V68.5966H994.936C994.936 67.4886 994.714 66.5 994.271 65.6307C993.836 64.7614 993.214 64.0753 992.404 63.5724C991.603 63.0696 990.657 62.8182 989.566 62.8182C988.365 62.8182 987.325 63.1165 986.447 63.7131C985.578 64.3011 984.909 65.0682 984.44 66.0142C983.971 66.9602 983.737 67.9744 983.737 69.0568V70.7955C983.737 72.2784 983.993 73.5355 984.504 74.5668C985.024 75.5895 985.744 76.3693 986.664 76.9062C987.585 77.4347 988.654 77.6989 989.873 77.6989C990.666 77.6989 991.382 77.5881 992.021 77.3665C992.669 77.1364 993.227 76.7955 993.696 76.3438C994.164 75.8835 994.527 75.3125 994.782 74.6307L997.697 75.4489C997.39 76.4375 996.875 77.3068 996.15 78.0568C995.426 78.7983 994.531 79.3778 993.466 79.7955C992.4 80.2045 991.203 80.4091 989.873 80.4091Z" fill="black"/>
<circle cx="1268" cy="74" r="19" fill="#D9D9D9"/>
<path d="M1235 74C1235 68.9609 1233 64.1282 1229.44 60.565C1225.87 57.0018 1221.04 55 1216 55C1210.96 55 1206.13 57.0018 1202.56 60.565C1199 64.1282 1197 68.9609 1197 74L1216 74H1235Z" fill="#D9D9D9"/>
<path d="M1150 74C1150 79.0391 1152 83.8718 1155.56 87.435C1159.13 90.9982 1163.96 93 1169 93C1174.04 93 1178.87 90.9982 1182.44 87.435C1186 83.8718 1188 79.0391 1188 74L1169 74L1150 74Z" fill="#D9D9D9"/>
<defs>
<filter id="filter0_d_20_290" x="0.0999985" y="22.1" width="185.8" height="1100.8" filterUnits="userSpaceOnUse" color-interpolation-filters="sRGB">
<feFlood flood-opacity="0" result="BackgroundImageFix"/>
<feColorMatrix in="SourceAlpha" type="matrix" values="0 0 0 0 0 0 0 0 0 0 0 0 0 0 0 0 0 0 127 0" result="hardAlpha"/>
<feOffset/>
<feGaussianBlur stdDeviation="22.45"/>
<feComposite in2="hardAlpha" operator="out"/>
<feColorMatrix type="matrix" values="0 0 0 0 1 0 0 0 0 1 0 0 0 0 1 0 0 0 1 0"/>
<feBlend mode="normal" in2="BackgroundImageFix" result="effect1_dropShadow_20_290"/>
<feBlend mode="normal" in="SourceGraphic" in2="effect1_dropShadow_20_290" result="shape"/>
</filter>
<filter id="filter1_d_20_290" x="28.9691" y="51.1028" width="127.505" height="127.237" filterUnits="userSpaceOnUse" color-interpolation-filters="sRGB">
<feFlood flood-opacity="0" result="BackgroundImageFix"/>
<feColorMatrix in="SourceAlpha" type="matrix" values="0 0 0 0 0 0 0 0 0 0 0 0 0 0 0 0 0 0 127 0" result="hardAlpha"/>
<feOffset/>
<feGaussianBlur stdDeviation="22.45"/>
<feComposite in2="hardAlpha" operator="out"/>
<feColorMatrix type="matrix" values="0 0 0 0 1 0 0 0 0 1 0 0 0 0 1 0 0 0 1 0"/>
<feBlend mode="normal" in2="BackgroundImageFix" result="effect1_dropShadow_20_290"/>
<feBlend mode="normal" in="SourceGraphic" in2="effect1_dropShadow_20_290" result="shape"/>
</filter>
<filter id="filter2_d_20_290" x="37.9702" y="28.9079" width="109.369" height="106.747" filterUnits="userSpaceOnUse" color-interpolation-filters="sRGB">
<feFlood flood-opacity="0" result="BackgroundImageFix"/>
<feColorMatrix in="SourceAlpha" type="matrix" values="0 0 0 0 0 0 0 0 0 0 0 0 0 0 0 0 0 0 127 0" result="hardAlpha"/>
<feOffset/>
<feGaussianBlur stdDeviation="22.45"/>
<feComposite in2="hardAlpha" operator="out"/>
<feColorMatrix type="matrix" values="0 0 0 0 1 0 0 0 0 1 0 0 0 0 1 0 0 0 1 0"/>
<feBlend mode="normal" in2="BackgroundImageFix" result="effect1_dropShadow_20_290"/>
<feBlend mode="normal" in="SourceGraphic" in2="effect1_dropShadow_20_290" result="shape"/>
</filter>
<filter id="filter3_d_20_290" x="63.6321" y="50.057" width="109.369" height="106.747" filterUnits="userSpaceOnUse" color-interpolation-filters="sRGB">
<feFlood flood-opacity="0" result="BackgroundImageFix"/>
<feColorMatrix in="SourceAlpha" type="matrix" values="0 0 0 0 0 0 0 0 0 0 0 0 0 0 0 0 0 0 127 0" result="hardAlpha"/>
<feOffset/>
<feGaussianBlur stdDeviation="22.45"/>
<feComposite in2="hardAlpha" operator="out"/>
<feColorMatrix type="matrix" values="0 0 0 0 1 0 0 0 0 1 0 0 0 0 1 0 0 0 1 0"/>
<feBlend mode="normal" in2="BackgroundImageFix" result="effect1_dropShadow_20_290"/>
<feBlend mode="normal" in="SourceGraphic" in2="effect1_dropShadow_20_290" result="shape"/>
</filter>
<filter id="filter4_d_20_290" x="63.632" y="73.9569" width="109.369" height="106.747" filterUnits="userSpaceOnUse" color-interpolation-filters="sRGB">
<feFlood flood-opacity="0" result="BackgroundImageFix"/>
<feColorMatrix in="SourceAlpha" type="matrix" values="0 0 0 0 0 0 0 0 0 0 0 0 0 0 0 0 0 0 127 0" result="hardAlpha"/>
<feOffset/>
<feGaussianBlur stdDeviation="22.45"/>
<feComposite in2="hardAlpha" operator="out"/>
<feColorMatrix type="matrix" values="0 0 0 0 1 0 0 0 0 1 0 0 0 0 1 0 0 0 1 0"/>
<feBlend mode="normal" in2="BackgroundImageFix" result="effect1_dropShadow_20_290"/>
<feBlend mode="normal" in="SourceGraphic" in2="effect1_dropShadow_20_290" result="shape"/>
</filter>
<filter id="filter5_d_20_290" x="12.1558" y="49.5222" width="109.369" height="106.747" filterUnits="userSpaceOnUse" color-interpolation-filters="sRGB">
<feFlood flood-opacity="0" result="BackgroundImageFix"/>
<feColorMatrix in="SourceAlpha" type="matrix" values="0 0 0 0 0 0 0 0 0 0 0 0 0 0 0 0 0 0 127 0" result="hardAlpha"/>
<feOffset/>
<feGaussianBlur stdDeviation="22.45"/>
<feComposite in2="hardAlpha" operator="out"/>
<feColorMatrix type="matrix" values="0 0 0 0 1 0 0 0 0 1 0 0 0 0 1 0 0 0 1 0"/>
<feBlend mode="normal" in2="BackgroundImageFix" result="effect1_dropShadow_20_290"/>
<feBlend mode="normal" in="SourceGraphic" in2="effect1_dropShadow_20_290" result="shape"/>
</filter>
<filter id="filter6_d_20_290" x="12.1557" y="73.9569" width="109.369" height="106.747" filterUnits="userSpaceOnUse" color-interpolation-filters="sRGB">
<feFlood flood-opacity="0" result="BackgroundImageFix"/>
<feColorMatrix in="SourceAlpha" type="matrix" values="0 0 0 0 0 0 0 0 0 0 0 0 0 0 0 0 0 0 127 0" result="hardAlpha"/>
<feOffset/>
<feGaussianBlur stdDeviation="22.45"/>
<feComposite in2="hardAlpha" operator="out"/>
<feColorMatrix type="matrix" values="0 0 0 0 1 0 0 0 0 1 0 0 0 0 1 0 0 0 1 0"/>
<feBlend mode="normal" in2="BackgroundImageFix" result="effect1_dropShadow_20_290"/>
<feBlend mode="normal" in="SourceGraphic" in2="effect1_dropShadow_20_290" result="shape"/>
</filter>
<filter id="filter7_d_20_290" x="37.9702" y="95.1251" width="109.369" height="106.747" filterUnits="userSpaceOnUse" color-interpolation-filters="sRGB">
<feFlood flood-opacity="0" result="BackgroundImageFix"/>
<feColorMatrix in="SourceAlpha" type="matrix" values="0 0 0 0 0 0 0 0 0 0 0 0 0 0 0 0 0 0 127 0" result="hardAlpha"/>
<feOffset/>
<feGaussianBlur stdDeviation="22.45"/>
<feComposite in2="hardAlpha" operator="out"/>
<feColorMatrix type="matrix" values="0 0 0 0 1 0 0 0 0 1 0 0 0 0 1 0 0 0 1 0"/>
<feBlend mode="normal" in2="BackgroundImageFix" result="effect1_dropShadow_20_290"/>
<feBlend mode="normal" in="SourceGraphic" in2="effect1_dropShadow_20_290" result="shape"/>
</filter>
<filter id="filter8_d_20_290" x="394.1" y="0.0999985" width="964.8" height="744.8" filterUnits="userSpaceOnUse" color-interpolation-filters="sRGB">
<feFlood flood-opacity="0" result="BackgroundImageFix"/>
<feColorMatrix in="SourceAlpha" type="matrix" values="0 0 0 0 0 0 0 0 0 0 0 0 0 0 0 0 0 0 127 0" result="hardAlpha"/>
<feOffset/>
<feGaussianBlur stdDeviation="22.45"/>
<feComposite in2="hardAlpha" operator="out"/>
<feColorMatrix type="matrix" values="0 0 0 0 1 0 0 0 0 1 0 0 0 0 1 0 0 0 1 0"/>
<feBlend mode="normal" in2="BackgroundImageFix" result="effect1_dropShadow_20_290"/>
<feBlend mode="normal" in="SourceGraphic" in2="effect1_dropShadow_20_290" result="shape"/>
</filter>
</defs>
</svg>
